ISO-10303-21;
HEADER;
FILE_DESCRIPTION (( 'STEP AP214' ),
    '1' );
FILE_NAME ('圆按键1.54.STEP',
    '2023-08-22T11:23:14',
    ( '' ),
    ( '' ),
    'SwSTEP 2.0',
    'SolidWorks 2022',
    '' );
FILE_SCHEMA (( 'AUTOMOTIVE_DESIGN' ));
ENDSEC;

DATA;
#1 = ORIENTED_EDGE ( 'NONE', *, *, #100, .T. ) ;
#2 =( NAMED_UNIT ( * ) PLANE_ANGLE_UNIT ( ) SI_UNIT ( $, .RADIAN. ) );
#3 = CARTESIAN_POINT ( 'NONE',  ( 0.000000000000000000, 2.399999999999999911, 0.000000000000000000 ) ) ;
#4 = SURFACE_STYLE_FILL_AREA ( #78 ) ;
#5 = SURFACE_SIDE_STYLE ('',( #4 ) ) ;
#6 =( GEOMETRIC_REPRESENTATION_CONTEXT ( 3 ) GLOBAL_UNCERTAINTY_ASSIGNED_CONTEXT ( ( #40 ) ) GLOBAL_UNIT_ASSIGNED_CONTEXT ( ( #63, #147, #181 ) ) REPRESENTATION_CONTEXT ( 'NONE', 'WORKASPACE' ) );
#7 = AXIS2_PLACEMENT_3D ( 'NONE', #24, #188, #38 ) ;
#8 = FILL_AREA_STYLE_COLOUR ( '', #53 ) ;
#9 = DIRECTION ( 'NONE',  ( 1.000000000000000000, 0.000000000000000000, 0.000000000000000000 ) ) ;
#10 = ADVANCED_FACE ( 'NONE', ( #49 ), #211, .F. ) ;
#11 = DIRECTION ( 'NONE',  ( -0.000000000000000000, -1.000000000000000000, -0.000000000000000000 ) ) ;
#12 = STYLED_ITEM ( 'NONE', ( #77 ), #61 ) ;
#13 = EDGE_CURVE ( 'NONE', #185, #141, #213, .T. ) ;
#14 = CARTESIAN_POINT ( 'NONE',  ( 4.286263797015737088E-16, 0.000000000000000000, 3.500000000000000444 ) ) ;
#15 = CIRCLE ( 'NONE', #85, 2.649999999999999911 ) ;
#16 = AXIS2_PLACEMENT_3D ( 'NONE', #66, #199, #162 ) ;
#17 = VERTEX_POINT ( 'NONE', #129 ) ;
#18 = PRODUCT_DEFINITION_CONTEXT ( 'detailed design', #131, 'design' ) ;
#19 =( GEOMETRIC_REPRESENTATION_CONTEXT ( 3 ) GLOBAL_UNCERTAINTY_ASSIGNED_CONTEXT ( ( #72 ) ) GLOBAL_UNIT_ASSIGNED_CONTEXT ( ( #168, #31, #79 ) ) REPRESENTATION_CONTEXT ( 'NONE', 'WORKASPACE' ) );
#20 = VECTOR ( 'NONE', #160, 1000.000000000000000 ) ;
#21 = DIRECTION ( 'NONE',  ( 0.000000000000000000, 0.000000000000000000, -1.000000000000000000 ) ) ;
#22 = CARTESIAN_POINT ( 'NONE',  ( 0.000000000000000000, 0.3999999999999995781, 0.000000000000000000 ) ) ;
#23 = PRODUCT_DEFINITION_SHAPE ( 'NONE', 'NONE',  #187 ) ;
#24 = CARTESIAN_POINT ( 'NONE',  ( 0.000000000000000000, 0.000000000000000000, 0.000000000000000000 ) ) ;
#25 = DIRECTION ( 'NONE',  ( -0.000000000000000000, -1.000000000000000000, -0.000000000000000000 ) ) ;
#26 = EDGE_CURVE ( 'NONE', #57, #185, #109, .T. ) ;
#27 = FACE_BOUND ( 'NONE', #54, .T. ) ;
#28 = CARTESIAN_POINT ( 'NONE',  ( -3.500000000000000444, 0.3999999999999995781, 0.000000000000000000 ) ) ;
#29 = CARTESIAN_POINT ( 'NONE',  ( 0.000000000000000000, 0.000000000000000000, 0.000000000000000000 ) ) ;
#30 = ORIENTED_EDGE ( 'NONE', *, *, #113, .T. ) ;
#31 =( NAMED_UNIT ( * ) PLANE_ANGLE_UNIT ( ) SI_UNIT ( $, .RADIAN. ) );
#32 = CIRCLE ( 'NONE', #64, 3.500000000000000444 ) ;
#33 = FACE_OUTER_BOUND ( 'NONE', #119, .T. ) ;
#34 = FACE_OUTER_BOUND ( 'NONE', #48, .T. ) ;
#35 = AXIS2_PLACEMENT_3D ( 'NONE', #194, #198, #145 ) ;
#36 = ADVANCED_FACE ( 'NONE', ( #33, #27 ), #65, .F. ) ;
#37 = ORIENTED_EDGE ( 'NONE', *, *, #113, .F. ) ;
#38 = DIRECTION ( 'NONE',  ( 0.000000000000000000, 0.000000000000000000, -1.000000000000000000 ) ) ;
#39 = AXIS2_PLACEMENT_3D ( 'NONE', #105, #192, #56 ) ;
#40 = UNCERTAINTY_MEASURE_WITH_UNIT (LENGTH_MEASURE( 1.000000000000000082E-05 ), #63, 'distance_accuracy_value', 'NONE');
#41 = SURFACE_STYLE_USAGE ( .BOTH. , #209 ) ;
#42 = DIRECTION ( 'NONE',  ( -0.000000000000000000, -1.000000000000000000, -0.000000000000000000 ) ) ;
#43 = CARTESIAN_POINT ( 'NONE',  ( 0.000000000000000000, 0.000000000000000000, -3.500000000000000444 ) ) ;
#44 = EDGE_CURVE ( 'NONE', #167, #144, #196, .T. ) ;
#45 = ADVANCED_FACE ( 'NONE', ( #60 ), #96, .F. ) ;
#46 = AXIS2_PLACEMENT_3D ( 'NONE', #175, #193, #214 ) ;
#47 = DIRECTION ( 'NONE',  ( 0.000000000000000000, 0.000000000000000000, -1.000000000000000000 ) ) ;
#48 = EDGE_LOOP ( 'NONE', ( #170, #73, #190, #153 ) ) ;
#49 = FACE_OUTER_BOUND ( 'NONE', #70, .T. ) ;
#50 = ORIENTED_EDGE ( 'NONE', *, *, #52, .F. ) ;
#51 = DIRECTION ( 'NONE',  ( 0.000000000000000000, 0.000000000000000000, -1.000000000000000000 ) ) ;
#52 = EDGE_CURVE ( 'NONE', #219, #57, #115, .T. ) ;
#53 = COLOUR_RGB ( '',0.4549019607843137192, 0.6666666666666666297, 1.000000000000000000 ) ;
#54 = EDGE_LOOP ( 'NONE', ( #208, #89 ) ) ;
#55 = FACE_OUTER_BOUND ( 'NONE', #112, .T. ) ;
#56 = DIRECTION ( 'NONE',  ( 0.000000000000000000, 0.000000000000000000, -1.000000000000000000 ) ) ;
#57 = VERTEX_POINT ( 'NONE', #97 ) ;
#58 = CARTESIAN_POINT ( 'NONE',  ( 0.000000000000000000, 0.3999999999999995781, 0.000000000000000000 ) ) ;
#59 = ADVANCED_FACE ( 'NONE', ( #107 ), #126, .T. ) ;
#60 = FACE_OUTER_BOUND ( 'NONE', #210, .T. ) ;
#61 = MANIFOLD_SOLID_BREP ( '旋转1', #136 ) ;
#62 = AXIS2_PLACEMENT_3D ( 'NONE', #22, #84, #142 ) ;
#63 =( LENGTH_UNIT ( ) NAMED_UNIT ( * ) SI_UNIT ( .MILLI., .METRE. ) );
#64 = AXIS2_PLACEMENT_3D ( 'NONE', #186, #90, #21 ) ;
#65 = PLANE ( 'NONE',  #101 ) ;
#66 = CARTESIAN_POINT ( 'NONE',  ( 0.000000000000000000, 2.399999999999999911, 0.000000000000000000 ) ) ;
#67 = CIRCLE ( 'NONE', #39, 3.500000000000000000 ) ;
#68 = PRODUCT_RELATED_PRODUCT_CATEGORY ( 'part', '', ( #82 ) ) ;
#69 = DIRECTION ( 'NONE',  ( -0.000000000000000000, -1.000000000000000000, -0.000000000000000000 ) ) ;
#70 = EDGE_LOOP ( 'NONE', ( #50, #173 ) ) ;
#71 = ORIENTED_EDGE ( 'NONE', *, *, #44, .T. ) ;
#72 = UNCERTAINTY_MEASURE_WITH_UNIT (LENGTH_MEASURE( 1.000000000000000082E-05 ), #168, 'distance_accuracy_value', 'NONE');
#73 = ORIENTED_EDGE ( 'NONE', *, *, #26, .T. ) ;
#74 = SURFACE_STYLE_FILL_AREA ( #123 ) ;
#75 = ORIENTED_EDGE ( 'NONE', *, *, #148, .T. ) ;
#76 = ORIENTED_EDGE ( 'NONE', *, *, #116, .F. ) ;
#77 = PRESENTATION_STYLE_ASSIGNMENT (( #149 ) ) ;
#78 = FILL_AREA_STYLE ('',( #8 ) ) ;
#79 =( NAMED_UNIT ( * ) SI_UNIT ( $, .STERADIAN. ) SOLID_ANGLE_UNIT ( ) );
#80 = DIRECTION ( 'NONE',  ( -0.000000000000000000, -1.000000000000000000, -0.000000000000000000 ) ) ;
#81 = EDGE_CURVE ( 'NONE', #57, #219, #15, .T. ) ;
#82 = PRODUCT ( '圆按键1.54', '圆按键1.54', '', ( #150 ) ) ;
#83 = DIRECTION ( 'NONE',  ( 0.000000000000000000, 0.000000000000000000, -1.000000000000000000 ) ) ;
#84 = DIRECTION ( 'NONE',  ( -0.000000000000000000, -1.000000000000000000, -0.000000000000000000 ) ) ;
#85 = AXIS2_PLACEMENT_3D ( 'NONE', #3, #80, #132 ) ;
#86 = AXIS2_PLACEMENT_3D ( 'NONE', #130, #95, #212 ) ;
#87 = AXIS2_PLACEMENT_3D ( 'NONE', #29, #111, #9 ) ;
#88 = LINE ( 'NONE', #172, #155 ) ;
#89 = ORIENTED_EDGE ( 'NONE', *, *, #13, .T. ) ;
#90 = DIRECTION ( 'NONE',  ( -0.000000000000000000, -1.000000000000000000, -0.000000000000000000 ) ) ;
#91 = ADVANCED_FACE ( 'NONE', ( #34 ), #200, .T. ) ;
#92 = AXIS2_PLACEMENT_3D ( 'NONE', #125, #93, #154 ) ;
#93 = DIRECTION ( 'NONE',  ( -0.000000000000000000, -1.000000000000000000, -0.000000000000000000 ) ) ;
#94 = PRODUCT_DEFINITION_FORMATION_WITH_SPECIFIED_SOURCE ( '任何', '', #82, .NOT_KNOWN. ) ;
#95 = DIRECTION ( 'NONE',  ( 0.000000000000000000, 1.000000000000000000, 0.000000000000000000 ) ) ;
#96 = PLANE ( 'NONE',  #86 ) ;
#97 = CARTESIAN_POINT ( 'NONE',  ( 3.245314017740485962E-16, 2.399999999999999911, 2.649999999999999911 ) ) ;
#98 = ORIENTED_EDGE ( 'NONE', *, *, #100, .F. ) ;
#99 = ORIENTED_EDGE ( 'NONE', *, *, #13, .F. ) ;
#100 = EDGE_CURVE ( 'NONE', #144, #122, #67, .T. ) ;
#101 = AXIS2_PLACEMENT_3D ( 'NONE', #28, #215, #47 ) ;
#102 = CARTESIAN_POINT ( 'NONE',  ( 0.000000000000000000, 0.3999999999999995781, -2.649999999999999911 ) ) ;
#103 = CARTESIAN_POINT ( 'NONE',  ( 3.245314017740485962E-16, 0.3999999999999995781, 2.649999999999999911 ) ) ;
#104 = EDGE_CURVE ( 'NONE', #219, #141, #88, .T. ) ;
#105 = CARTESIAN_POINT ( 'NONE',  ( 0.000000000000000000, -4.286263797015736595E-16, 0.000000000000000000 ) ) ;
#106 = DIRECTION ( 'NONE',  ( -0.000000000000000000, -1.000000000000000000, -0.000000000000000000 ) ) ;
#107 = FACE_OUTER_BOUND ( 'NONE', #165, .T. ) ;
#108 = ORIENTED_EDGE ( 'NONE', *, *, #148, .F. ) ;
#109 = LINE ( 'NONE', #110, #195 ) ;
#110 = CARTESIAN_POINT ( 'NONE',  ( 3.245314017740485962E-16, 0.000000000000000000, 2.649999999999999911 ) ) ;
#111 = DIRECTION ( 'NONE',  ( 0.000000000000000000, 0.000000000000000000, 1.000000000000000000 ) ) ;
#112 = EDGE_LOOP ( 'NONE', ( #121, #177, #98, #205 ) ) ;
#113 = EDGE_CURVE ( 'NONE', #122, #144, #189, .T. ) ;
#114 = CIRCLE ( 'NONE', #62, 3.500000000000000444 ) ;
#115 = CIRCLE ( 'NONE', #16, 2.649999999999999911 ) ;
#116 = EDGE_CURVE ( 'NONE', #167, #17, #114, .T. ) ;
#117 = PRESENTATION_STYLE_ASSIGNMENT (( #41 ) ) ;
#118 = STYLED_ITEM ( 'NONE', ( #117 ), #197 ) ;
#119 = EDGE_LOOP ( 'NONE', ( #76, #108 ) ) ;
#120 = CARTESIAN_POINT ( 'NONE',  ( 0.000000000000000000, -4.286263797015736595E-16, -3.500000000000000000 ) ) ;
#121 = ORIENTED_EDGE ( 'NONE', *, *, #116, .T. ) ;
#122 = VERTEX_POINT ( 'NONE', #158 ) ;
#123 = FILL_AREA_STYLE ('',( #207 ) ) ;
#124 =( GEOMETRIC_REPRESENTATION_CONTEXT ( 3 ) GLOBAL_UNCERTAINTY_ASSIGNED_CONTEXT ( ( #157 ) ) GLOBAL_UNIT_ASSIGNED_CONTEXT ( ( #134, #2, #191 ) ) REPRESENTATION_CONTEXT ( 'NONE', 'WORKASPACE' ) );
#125 = CARTESIAN_POINT ( 'NONE',  ( 0.000000000000000000, 0.000000000000000000, 0.000000000000000000 ) ) ;
#126 = CYLINDRICAL_SURFACE ( 'NONE', #146, 2.649999999999999911 ) ;
#127 = APPLICATION_CONTEXT ( 'automotive_design' ) ;
#128 = COLOUR_RGB ( '',0.4549019607843137192, 0.6666666666666666297, 1.000000000000000000 ) ;
#129 = CARTESIAN_POINT ( 'NONE',  ( 4.286263797015737088E-16, 0.3999999999999995781, 3.500000000000000444 ) ) ;
#130 = CARTESIAN_POINT ( 'NONE',  ( 0.000000000000000000, -2.143131898507868297E-16, 0.000000000000000000 ) ) ;
#131 = APPLICATION_CONTEXT ( 'automotive_design' ) ;
#132 = DIRECTION ( 'NONE',  ( 0.000000000000000000, 0.000000000000000000, -1.000000000000000000 ) ) ;
#133 = AXIS2_PLACEMENT_3D ( 'NONE', #151, #216, #51 ) ;
#134 =( LENGTH_UNIT ( ) NAMED_UNIT ( * ) SI_UNIT ( .MILLI., .METRE. ) );
#135 = ORIENTED_EDGE ( 'NONE', *, *, #104, .T. ) ;
#136 = CLOSED_SHELL ( 'NONE', ( #91, #182, #45, #217, #36, #59, #10 ) ) ;
#137 = FACE_OUTER_BOUND ( 'NONE', #204, .T. ) ;
#138 = CARTESIAN_POINT ( 'NONE',  ( 0.000000000000000000, -4.286263797015736595E-16, 0.000000000000000000 ) ) ;
#139 = ORIENTED_EDGE ( 'NONE', *, *, #201, .F. ) ;
#140 = APPLICATION_PROTOCOL_DEFINITION ( 'draft international standard', 'automotive_design', 1998, #127 ) ;
#141 = VERTEX_POINT ( 'NONE', #102 ) ;
#142 = DIRECTION ( 'NONE',  ( 0.000000000000000000, 0.000000000000000000, -1.000000000000000000 ) ) ;
#143 = PRESENTATION_LAYER_ASSIGNMENT (  '', '', ( #118 ) ) ;
#144 = VERTEX_POINT ( 'NONE', #120 ) ;
#145 = DIRECTION ( 'NONE',  ( 0.000000000000000000, 0.000000000000000000, -1.000000000000000000 ) ) ;
#146 = AXIS2_PLACEMENT_3D ( 'NONE', #163, #166, #178 ) ;
#147 =( NAMED_UNIT ( * ) PLANE_ANGLE_UNIT ( ) SI_UNIT ( $, .RADIAN. ) );
#148 = EDGE_CURVE ( 'NONE', #17, #167, #32, .T. ) ;
#149 = SURFACE_STYLE_USAGE ( .BOTH. , #5 ) ;
#150 = PRODUCT_CONTEXT ( 'NONE', #127, 'mechanical' ) ;
#151 = CARTESIAN_POINT ( 'NONE',  ( 0.000000000000000000, 0.000000000000000000, 0.000000000000000000 ) ) ;
#152 = MECHANICAL_DESIGN_GEOMETRIC_PRESENTATION_REPRESENTATION (  '', ( #118 ), #19 ) ;
#153 = ORIENTED_EDGE ( 'NONE', *, *, #104, .F. ) ;
#154 = DIRECTION ( 'NONE',  ( 0.000000000000000000, 0.000000000000000000, -1.000000000000000000 ) ) ;
#155 = VECTOR ( 'NONE', #69, 1000.000000000000000 ) ;
#156 = CYLINDRICAL_SURFACE ( 'NONE', #92, 3.500000000000000444 ) ;
#157 = UNCERTAINTY_MEASURE_WITH_UNIT (LENGTH_MEASURE( 1.000000000000000082E-05 ), #134, 'distance_accuracy_value', 'NONE');
#158 = CARTESIAN_POINT ( 'NONE',  ( 4.286263797015736595E-16, -4.286263797015736595E-16, 3.500000000000000000 ) ) ;
#159 = CARTESIAN_POINT ( 'NONE',  ( 0.000000000000000000, 2.399999999999999911, -2.649999999999999911 ) ) ;
#160 = DIRECTION ( 'NONE',  ( -0.000000000000000000, -1.000000000000000000, -0.000000000000000000 ) ) ;
#161 = EDGE_CURVE ( 'NONE', #141, #185, #202, .T. ) ;
#162 = DIRECTION ( 'NONE',  ( 0.000000000000000000, 0.000000000000000000, -1.000000000000000000 ) ) ;
#163 = CARTESIAN_POINT ( 'NONE',  ( 0.000000000000000000, 0.000000000000000000, 0.000000000000000000 ) ) ;
#164 = SHAPE_DEFINITION_REPRESENTATION ( #23, #197 ) ;
#165 = EDGE_LOOP ( 'NONE', ( #171, #180, #135, #99 ) ) ;
#166 = DIRECTION ( 'NONE',  ( -0.000000000000000000, -1.000000000000000000, -0.000000000000000000 ) ) ;
#167 = VERTEX_POINT ( 'NONE', #174 ) ;
#168 =( LENGTH_UNIT ( ) NAMED_UNIT ( * ) SI_UNIT ( .MILLI., .METRE. ) );
#169 = LINE ( 'NONE', #14, #20 ) ;
#170 = ORIENTED_EDGE ( 'NONE', *, *, #52, .T. ) ;
#171 = ORIENTED_EDGE ( 'NONE', *, *, #26, .F. ) ;
#172 = CARTESIAN_POINT ( 'NONE',  ( 0.000000000000000000, 0.000000000000000000, -2.649999999999999911 ) ) ;
#173 = ORIENTED_EDGE ( 'NONE', *, *, #81, .F. ) ;
#174 = CARTESIAN_POINT ( 'NONE',  ( 0.000000000000000000, 0.3999999999999995781, -3.500000000000000444 ) ) ;
#175 = CARTESIAN_POINT ( 'NONE',  ( -2.649999999999999911, 2.399999999999999911, 0.000000000000000000 ) ) ;
#176 = MECHANICAL_DESIGN_GEOMETRIC_PRESENTATION_REPRESENTATION (  '', ( #12 ), #6 ) ;
#177 = ORIENTED_EDGE ( 'NONE', *, *, #201, .T. ) ;
#178 = DIRECTION ( 'NONE',  ( 0.000000000000000000, 0.000000000000000000, -1.000000000000000000 ) ) ;
#179 = APPLICATION_PROTOCOL_DEFINITION ( 'draft international standard', 'automotive_design', 1998, #131 ) ;
#180 = ORIENTED_EDGE ( 'NONE', *, *, #81, .T. ) ;
#181 =( NAMED_UNIT ( * ) SI_UNIT ( $, .STERADIAN. ) SOLID_ANGLE_UNIT ( ) );
#182 = ADVANCED_FACE ( 'NONE', ( #55 ), #220, .T. ) ;
#183 = VECTOR ( 'NONE', #11, 1000.000000000000000 ) ;
#184 = AXIS2_PLACEMENT_3D ( 'NONE', #58, #106, #83 ) ;
#185 = VERTEX_POINT ( 'NONE', #103 ) ;
#186 = CARTESIAN_POINT ( 'NONE',  ( 0.000000000000000000, 0.3999999999999995781, 0.000000000000000000 ) ) ;
#187 = PRODUCT_DEFINITION ( '未知', '', #94, #18 ) ;
#188 = DIRECTION ( 'NONE',  ( -0.000000000000000000, -1.000000000000000000, -0.000000000000000000 ) ) ;
#189 = CIRCLE ( 'NONE', #218, 3.500000000000000000 ) ;
#190 = ORIENTED_EDGE ( 'NONE', *, *, #161, .F. ) ;
#191 =( NAMED_UNIT ( * ) SI_UNIT ( $, .STERADIAN. ) SOLID_ANGLE_UNIT ( ) );
#192 = DIRECTION ( 'NONE',  ( -0.000000000000000000, -1.000000000000000000, -0.000000000000000000 ) ) ;
#193 = DIRECTION ( 'NONE',  ( 0.000000000000000000, -1.000000000000000000, -0.000000000000000000 ) ) ;
#194 = CARTESIAN_POINT ( 'NONE',  ( 0.000000000000000000, 0.3999999999999995781, 0.000000000000000000 ) ) ;
#195 = VECTOR ( 'NONE', #25, 1000.000000000000000 ) ;
#196 = LINE ( 'NONE', #43, #183 ) ;
#197 = ADVANCED_BREP_SHAPE_REPRESENTATION ( '圆按键1.54', ( #61, #87 ), #124 ) ;
#198 = DIRECTION ( 'NONE',  ( -0.000000000000000000, -1.000000000000000000, -0.000000000000000000 ) ) ;
#199 = DIRECTION ( 'NONE',  ( -0.000000000000000000, -1.000000000000000000, -0.000000000000000000 ) ) ;
#200 = CYLINDRICAL_SURFACE ( 'NONE', #133, 2.649999999999999911 ) ;
#201 = EDGE_CURVE ( 'NONE', #17, #122, #169, .T. ) ;
#202 = CIRCLE ( 'NONE', #184, 2.649999999999999911 ) ;
#203 = PRESENTATION_LAYER_ASSIGNMENT (  '', '', ( #12 ) ) ;
#204 = EDGE_LOOP ( 'NONE', ( #139, #75, #71, #37 ) ) ;
#205 = ORIENTED_EDGE ( 'NONE', *, *, #44, .F. ) ;
#206 = DIRECTION ( 'NONE',  ( 0.000000000000000000, 0.000000000000000000, -1.000000000000000000 ) ) ;
#207 = FILL_AREA_STYLE_COLOUR ( '', #128 ) ;
#208 = ORIENTED_EDGE ( 'NONE', *, *, #161, .T. ) ;
#209 = SURFACE_SIDE_STYLE ('',( #74 ) ) ;
#210 = EDGE_LOOP ( 'NONE', ( #1, #30 ) ) ;
#211 = PLANE ( 'NONE',  #46 ) ;
#212 = DIRECTION ( 'NONE',  ( 0.000000000000000000, -0.000000000000000000, 1.000000000000000000 ) ) ;
#213 = CIRCLE ( 'NONE', #35, 2.649999999999999911 ) ;
#214 = DIRECTION ( 'NONE',  ( 0.000000000000000000, 0.000000000000000000, -1.000000000000000000 ) ) ;
#215 = DIRECTION ( 'NONE',  ( 0.000000000000000000, -1.000000000000000000, -0.000000000000000000 ) ) ;
#216 = DIRECTION ( 'NONE',  ( -0.000000000000000000, -1.000000000000000000, -0.000000000000000000 ) ) ;
#217 = ADVANCED_FACE ( 'NONE', ( #137 ), #156, .T. ) ;
#218 = AXIS2_PLACEMENT_3D ( 'NONE', #138, #42, #206 ) ;
#219 = VERTEX_POINT ( 'NONE', #159 ) ;
#220 = CYLINDRICAL_SURFACE ( 'NONE', #7, 3.500000000000000444 ) ;
ENDSEC;
END-ISO-10303-21;
