ISO-10303-21;
HEADER;
FILE_DESCRIPTION (( 'STEP AP214' ),
    '1' );
FILE_NAME ('Ô²°´¼ü½ô´Õ.STEP',
    '2023-09-10T06:52:24',
    ( '' ),
    ( '' ),
    'SwSTEP 2.0',
    'SolidWorks 2022',
    '' );
FILE_SCHEMA (( 'AUTOMOTIVE_DESIGN' ));
ENDSEC;

DATA;
#1 = ORIENTED_EDGE ( 'NONE', *, *, #29, .F. ) ;
#2 = CARTESIAN_POINT ( 'NONE',  ( 4.286263797015737088E-16, 0.3999999999999995781, 3.500000000000000444 ) ) ;
#3 = CARTESIAN_POINT ( 'NONE',  ( 0.000000000000000000, 0.000000000000000000, 0.000000000000000000 ) ) ;
#4 = ADVANCED_FACE ( 'NONE', ( #55 ), #35, .T. ) ;
#5 = PLANE ( 'NONE',  #127 ) ;
#6 = PRODUCT_DEFINITION_FORMATION_WITH_SPECIFIED_SOURCE ( 'ÈÎºÎ', '', #152, .NOT_KNOWN. ) ;
#7 = DIRECTION ( 'NONE',  ( 0.000000000000000000, -1.000000000000000000, -0.000000000000000000 ) ) ;
#8 = SHAPE_DEFINITION_REPRESENTATION ( #44, #161 ) ;
#9 = CARTESIAN_POINT ( 'NONE',  ( 0.000000000000000000, 0.3999999999999995781, -2.850000000000000089 ) ) ;
#10 = AXIS2_PLACEMENT_3D ( 'NONE', #96, #106, #78 ) ;
#11 = EDGE_CURVE ( 'NONE', #50, #99, #123, .T. ) ;
#12 = FILL_AREA_STYLE ('',( #220 ) ) ;
#13 = EDGE_CURVE ( 'NONE', #165, #163, #128, .T. ) ;
#14 = EDGE_LOOP ( 'NONE', ( #72, #146, #129, #67 ) ) ;
#15 = UNCERTAINTY_MEASURE_WITH_UNIT (LENGTH_MEASURE( 1.000000000000000082E-05 ), #34, 'distance_accuracy_value', 'NONE');
#16 = COLOUR_RGB ( '',0.4549019607843137192, 0.6666666666666666297, 1.000000000000000000 ) ;
#17 = CARTESIAN_POINT ( 'NONE',  ( 3.490243377569956554E-16, 0.000000000000000000, 2.850000000000000089 ) ) ;
#18 = APPLICATION_CONTEXT ( 'automotive_design' ) ;
#19 = ORIENTED_EDGE ( 'NONE', *, *, #29, .T. ) ;
#20 = DIRECTION ( 'NONE',  ( -0.000000000000000000, -1.000000000000000000, -0.000000000000000000 ) ) ;
#21 = CIRCLE ( 'NONE', #160, 2.850000000000000089 ) ;
#22 = DIRECTION ( 'NONE',  ( -0.000000000000000000, -1.000000000000000000, -0.000000000000000000 ) ) ;
#23 = CARTESIAN_POINT ( 'NONE',  ( 0.000000000000000000, 0.000000000000000000, -2.850000000000000089 ) ) ;
#24 = DIRECTION ( 'NONE',  ( 1.000000000000000000, 0.000000000000000000, 0.000000000000000000 ) ) ;
#25 = DIRECTION ( 'NONE',  ( 0.000000000000000000, 0.000000000000000000, -1.000000000000000000 ) ) ;
#26 = VECTOR ( 'NONE', #148, 1000.000000000000000 ) ;
#27 = CARTESIAN_POINT ( 'NONE',  ( 0.000000000000000000, 0.3999999999999995781, 0.000000000000000000 ) ) ;
#28 = DIRECTION ( 'NONE',  ( 0.000000000000000000, 0.000000000000000000, 1.000000000000000000 ) ) ;
#29 = EDGE_CURVE ( 'NONE', #165, #198, #189, .T. ) ;
#30 = ORIENTED_EDGE ( 'NONE', *, *, #11, .F. ) ;
#31 =( GEOMETRIC_REPRESENTATION_CONTEXT ( 3 ) GLOBAL_UNCERTAINTY_ASSIGNED_CONTEXT ( ( #185 ) ) GLOBAL_UNIT_ASSIGNED_CONTEXT ( ( #195, #108, #157 ) ) REPRESENTATION_CONTEXT ( 'NONE', 'WORKASPACE' ) );
#32 = DIRECTION ( 'NONE',  ( -0.000000000000000000, -1.000000000000000000, -0.000000000000000000 ) ) ;
#33 = EDGE_LOOP ( 'NONE', ( #177, #217 ) ) ;
#34 =( LENGTH_UNIT ( ) NAMED_UNIT ( * ) SI_UNIT ( .MILLI., .METRE. ) );
#35 = CYLINDRICAL_SURFACE ( 'NONE', #181, 3.500000000000000444 ) ;
#36 =( GEOMETRIC_REPRESENTATION_CONTEXT ( 3 ) GLOBAL_UNCERTAINTY_ASSIGNED_CONTEXT ( ( #15 ) ) GLOBAL_UNIT_ASSIGNED_CONTEXT ( ( #34, #219, #203 ) ) REPRESENTATION_CONTEXT ( 'NONE', 'WORKASPACE' ) );
#37 = EDGE_LOOP ( 'NONE', ( #216, #73, #178, #66 ) ) ;
#38 = DIRECTION ( 'NONE',  ( 0.000000000000000000, 0.000000000000000000, -1.000000000000000000 ) ) ;
#39 = MANIFOLD_SOLID_BREP ( 'Ðý×ª1', #147 ) ;
#40 = DIRECTION ( 'NONE',  ( -0.000000000000000000, -1.000000000000000000, -0.000000000000000000 ) ) ;
#41 = MECHANICAL_DESIGN_GEOMETRIC_PRESENTATION_REPRESENTATION (  '', ( #184 ), #36 ) ;
#42 = DIRECTION ( 'NONE',  ( 0.000000000000000000, 0.000000000000000000, -1.000000000000000000 ) ) ;
#43 = DIRECTION ( 'NONE',  ( 0.000000000000000000, 1.000000000000000000, 0.000000000000000000 ) ) ;
#44 = PRODUCT_DEFINITION_SHAPE ( 'NONE', 'NONE',  #131 ) ;
#45 = APPLICATION_PROTOCOL_DEFINITION ( 'draft international standard', 'automotive_design', 1998, #18 ) ;
#46 = FACE_OUTER_BOUND ( 'NONE', #14, .T. ) ;
#47 = CIRCLE ( 'NONE', #168, 3.500000000000000444 ) ;
#48 = DIRECTION ( 'NONE',  ( 0.000000000000000000, 0.000000000000000000, -1.000000000000000000 ) ) ;
#49 = AXIS2_PLACEMENT_3D ( 'NONE', #211, #79, #155 ) ;
#50 = VERTEX_POINT ( 'NONE', #174 ) ;
#51 = ORIENTED_EDGE ( 'NONE', *, *, #206, .T. ) ;
#52 = AXIS2_PLACEMENT_3D ( 'NONE', #153, #137, #25 ) ;
#53 = ORIENTED_EDGE ( 'NONE', *, *, #144, .F. ) ;
#54 = ADVANCED_FACE ( 'NONE', ( #110, #143 ), #5, .F. ) ;
#55 = FACE_OUTER_BOUND ( 'NONE', #71, .T. ) ;
#56 = DIRECTION ( 'NONE',  ( 0.000000000000000000, 0.000000000000000000, -1.000000000000000000 ) ) ;
#57 = ORIENTED_EDGE ( 'NONE', *, *, #191, .T. ) ;
#58 = LINE ( 'NONE', #119, #145 ) ;
#59 = EDGE_CURVE ( 'NONE', #87, #50, #187, .T. ) ;
#60 = CARTESIAN_POINT ( 'NONE',  ( -3.500000000000000444, 0.3999999999999995781, 0.000000000000000000 ) ) ;
#61 = PRESENTATION_LAYER_ASSIGNMENT (  '', '', ( #107 ) ) ;
#62 = DIRECTION ( 'NONE',  ( -0.000000000000000000, -1.000000000000000000, -0.000000000000000000 ) ) ;
#63 = CARTESIAN_POINT ( 'NONE',  ( 0.000000000000000000, 0.3999999999999995781, -3.500000000000000444 ) ) ;
#64 = EDGE_CURVE ( 'NONE', #101, #87, #47, .T. ) ;
#65 = COLOUR_RGB ( '',0.4549019607843137192, 0.6666666666666666297, 1.000000000000000000 ) ;
#66 = ORIENTED_EDGE ( 'NONE', *, *, #191, .F. ) ;
#67 = ORIENTED_EDGE ( 'NONE', *, *, #206, .F. ) ;
#68 = ORIENTED_EDGE ( 'NONE', *, *, #200, .T. ) ;
#69 = AXIS2_PLACEMENT_3D ( 'NONE', #3, #135, #38 ) ;
#70 = DIRECTION ( 'NONE',  ( -0.000000000000000000, -1.000000000000000000, -0.000000000000000000 ) ) ;
#71 = EDGE_LOOP ( 'NONE', ( #68, #114, #30, #166 ) ) ;
#72 = ORIENTED_EDGE ( 'NONE', *, *, #141, .F. ) ;
#73 = ORIENTED_EDGE ( 'NONE', *, *, #13, .T. ) ;
#74 = DIRECTION ( 'NONE',  ( -0.000000000000000000, -1.000000000000000000, -0.000000000000000000 ) ) ;
#75 = CARTESIAN_POINT ( 'NONE',  ( 0.000000000000000000, -4.286263797015736595E-16, 0.000000000000000000 ) ) ;
#76 = DIRECTION ( 'NONE',  ( 0.000000000000000000, 0.000000000000000000, -1.000000000000000000 ) ) ;
#77 = AXIS2_PLACEMENT_3D ( 'NONE', #75, #207, #48 ) ;
#78 = DIRECTION ( 'NONE',  ( 0.000000000000000000, 0.000000000000000000, -1.000000000000000000 ) ) ;
#79 = DIRECTION ( 'NONE',  ( -0.000000000000000000, -1.000000000000000000, -0.000000000000000000 ) ) ;
#80 = SURFACE_STYLE_FILL_AREA ( #175 ) ;
#81 = AXIS2_PLACEMENT_3D ( 'NONE', #192, #7, #118 ) ;
#82 = DIRECTION ( 'NONE',  ( -0.000000000000000000, -1.000000000000000000, -0.000000000000000000 ) ) ;
#83 = VERTEX_POINT ( 'NONE', #9 ) ;
#84 = ADVANCED_FACE ( 'NONE', ( #133 ), #193, .F. ) ;
#85 = CARTESIAN_POINT ( 'NONE',  ( 0.000000000000000000, 1.999999999999999556, 0.000000000000000000 ) ) ;
#86 = PRODUCT_DEFINITION_CONTEXT ( 'detailed design', #18, 'design' ) ;
#87 = VERTEX_POINT ( 'NONE', #63 ) ;
#88 = ADVANCED_FACE ( 'NONE', ( #46 ), #94, .T. ) ;
#89 = DIRECTION ( 'NONE',  ( 0.000000000000000000, 0.000000000000000000, -1.000000000000000000 ) ) ;
#90 = CARTESIAN_POINT ( 'NONE',  ( 3.490243377569956554E-16, 0.3999999999999995781, 2.850000000000000089 ) ) ;
#91 = FACE_OUTER_BOUND ( 'NONE', #103, .T. ) ;
#92 = EDGE_CURVE ( 'NONE', #198, #165, #214, .T. ) ;
#93 = SURFACE_SIDE_STYLE ('',( #80 ) ) ;
#94 = CYLINDRICAL_SURFACE ( 'NONE', #52, 3.500000000000000444 ) ;
#95 = VECTOR ( 'NONE', #210, 1000.000000000000000 ) ;
#96 = CARTESIAN_POINT ( 'NONE',  ( 0.000000000000000000, 1.999999999999999556, 0.000000000000000000 ) ) ;
#97 = PRESENTATION_STYLE_ASSIGNMENT (( #154 ) ) ;
#98 = VECTOR ( 'NONE', #62, 1000.000000000000000 ) ;
#99 = VERTEX_POINT ( 'NONE', #134 ) ;
#100 = CARTESIAN_POINT ( 'NONE',  ( 0.000000000000000000, 0.000000000000000000, 0.000000000000000000 ) ) ;
#101 = VERTEX_POINT ( 'NONE', #2 ) ;
#102 =( GEOMETRIC_REPRESENTATION_CONTEXT ( 3 ) GLOBAL_UNCERTAINTY_ASSIGNED_CONTEXT ( ( #104 ) ) GLOBAL_UNIT_ASSIGNED_CONTEXT ( ( #136, #139, #173 ) ) REPRESENTATION_CONTEXT ( 'NONE', 'WORKASPACE' ) );
#103 = EDGE_LOOP ( 'NONE', ( #199, #19, #57, #53 ) ) ;
#104 = UNCERTAINTY_MEASURE_WITH_UNIT (LENGTH_MEASURE( 1.000000000000000082E-05 ), #136, 'distance_accuracy_value', 'NONE');
#105 = CYLINDRICAL_SURFACE ( 'NONE', #179, 2.850000000000000089 ) ;
#106 = DIRECTION ( 'NONE',  ( -0.000000000000000000, -1.000000000000000000, -0.000000000000000000 ) ) ;
#107 = STYLED_ITEM ( 'NONE', ( #97 ), #161 ) ;
#108 =( NAMED_UNIT ( * ) PLANE_ANGLE_UNIT ( ) SI_UNIT ( $, .RADIAN. ) );
#109 = CARTESIAN_POINT ( 'NONE',  ( 3.490243377569956554E-16, 1.999999999999999556, 2.850000000000000089 ) ) ;
#110 = FACE_OUTER_BOUND ( 'NONE', #142, .T. ) ;
#111 = CARTESIAN_POINT ( 'NONE',  ( 0.000000000000000000, 0.000000000000000000, 0.000000000000000000 ) ) ;
#112 = ADVANCED_FACE ( 'NONE', ( #91 ), #171, .T. ) ;
#113 = EDGE_CURVE ( 'NONE', #83, #163, #156, .T. ) ;
#114 = ORIENTED_EDGE ( 'NONE', *, *, #141, .T. ) ;
#115 = EDGE_LOOP ( 'NONE', ( #201, #51 ) ) ;
#116 = SURFACE_SIDE_STYLE ('',( #180 ) ) ;
#117 = CARTESIAN_POINT ( 'NONE',  ( 0.000000000000000000, 0.3999999999999995781, 0.000000000000000000 ) ) ;
#118 = DIRECTION ( 'NONE',  ( 0.000000000000000000, 0.000000000000000000, -1.000000000000000000 ) ) ;
#119 = CARTESIAN_POINT ( 'NONE',  ( 4.286263797015737088E-16, 0.000000000000000000, 3.500000000000000444 ) ) ;
#120 = CARTESIAN_POINT ( 'NONE',  ( 0.000000000000000000, -2.143131898507868297E-16, 0.000000000000000000 ) ) ;
#121 = CARTESIAN_POINT ( 'NONE',  ( 0.000000000000000000, 0.000000000000000000, -3.500000000000000444 ) ) ;
#122 = AXIS2_PLACEMENT_3D ( 'NONE', #117, #20, #89 ) ;
#123 = CIRCLE ( 'NONE', #204, 3.500000000000000000 ) ;
#124 = APPLICATION_CONTEXT ( 'automotive_design' ) ;
#125 = DIRECTION ( 'NONE',  ( 0.000000000000000000, 0.000000000000000000, -1.000000000000000000 ) ) ;
#126 = ADVANCED_FACE ( 'NONE', ( #205 ), #105, .T. ) ;
#127 = AXIS2_PLACEMENT_3D ( 'NONE', #60, #188, #76 ) ;
#128 = LINE ( 'NONE', #17, #26 ) ;
#129 = ORIENTED_EDGE ( 'NONE', *, *, #59, .T. ) ;
#130 = CIRCLE ( 'NONE', #77, 3.500000000000000000 ) ;
#131 = PRODUCT_DEFINITION ( 'Î´Öª', '', #6, #86 ) ;
#132 = ORIENTED_EDGE ( 'NONE', *, *, #64, .F. ) ;
#133 = FACE_OUTER_BOUND ( 'NONE', #115, .T. ) ;
#134 = CARTESIAN_POINT ( 'NONE',  ( 4.286263797015736595E-16, -4.286263797015736595E-16, 3.500000000000000000 ) ) ;
#135 = DIRECTION ( 'NONE',  ( -0.000000000000000000, -1.000000000000000000, -0.000000000000000000 ) ) ;
#136 =( LENGTH_UNIT ( ) NAMED_UNIT ( * ) SI_UNIT ( .MILLI., .METRE. ) );
#137 = DIRECTION ( 'NONE',  ( -0.000000000000000000, -1.000000000000000000, -0.000000000000000000 ) ) ;
#138 = LINE ( 'NONE', #23, #98 ) ;
#139 =( NAMED_UNIT ( * ) PLANE_ANGLE_UNIT ( ) SI_UNIT ( $, .RADIAN. ) );
#140 = AXIS2_PLACEMENT_3D ( 'NONE', #120, #43, #150 ) ;
#141 = EDGE_CURVE ( 'NONE', #101, #99, #58, .T. ) ;
#142 = EDGE_LOOP ( 'NONE', ( #164, #132 ) ) ;
#143 = FACE_BOUND ( 'NONE', #33, .T. ) ;
#144 = EDGE_CURVE ( 'NONE', #163, #83, #21, .T. ) ;
#145 = VECTOR ( 'NONE', #22, 1000.000000000000000 ) ;
#146 = ORIENTED_EDGE ( 'NONE', *, *, #64, .T. ) ;
#147 = CLOSED_SHELL ( 'NONE', ( #126, #4, #84, #88, #54, #112, #169 ) ) ;
#148 = DIRECTION ( 'NONE',  ( -0.000000000000000000, -1.000000000000000000, -0.000000000000000000 ) ) ;
#149 = DIRECTION ( 'NONE',  ( 0.000000000000000000, 0.000000000000000000, -1.000000000000000000 ) ) ;
#150 = DIRECTION ( 'NONE',  ( 0.000000000000000000, -0.000000000000000000, 1.000000000000000000 ) ) ;
#151 = FACE_OUTER_BOUND ( 'NONE', #183, .T. ) ;
#152 = PRODUCT ( 'Ô²°´¼ü½ô´Õ', 'Ô²°´¼ü½ô´Õ', '', ( #194 ) ) ;
#153 = CARTESIAN_POINT ( 'NONE',  ( 0.000000000000000000, 0.000000000000000000, 0.000000000000000000 ) ) ;
#154 = SURFACE_STYLE_USAGE ( .BOTH. , #93 ) ;
#155 = DIRECTION ( 'NONE',  ( 0.000000000000000000, 0.000000000000000000, -1.000000000000000000 ) ) ;
#156 = CIRCLE ( 'NONE', #49, 2.850000000000000089 ) ;
#157 =( NAMED_UNIT ( * ) SI_UNIT ( $, .STERADIAN. ) SOLID_ANGLE_UNIT ( ) );
#158 = PLANE ( 'NONE',  #81 ) ;
#159 = APPLICATION_PROTOCOL_DEFINITION ( 'draft international standard', 'automotive_design', 1998, #124 ) ;
#160 = AXIS2_PLACEMENT_3D ( 'NONE', #27, #167, #42 ) ;
#161 = ADVANCED_BREP_SHAPE_REPRESENTATION ( 'Ô²°´¼ü½ô´Õ', ( #39, #209 ), #31 ) ;
#162 = PRODUCT_RELATED_PRODUCT_CATEGORY ( 'part', '', ( #152 ) ) ;
#163 = VERTEX_POINT ( 'NONE', #90 ) ;
#164 = ORIENTED_EDGE ( 'NONE', *, *, #200, .F. ) ;
#165 = VERTEX_POINT ( 'NONE', #109 ) ;
#166 = ORIENTED_EDGE ( 'NONE', *, *, #59, .F. ) ;
#167 = DIRECTION ( 'NONE',  ( -0.000000000000000000, -1.000000000000000000, -0.000000000000000000 ) ) ;
#168 = AXIS2_PLACEMENT_3D ( 'NONE', #172, #74, #190 ) ;
#169 = ADVANCED_FACE ( 'NONE', ( #151 ), #158, .F. ) ;
#170 = DIRECTION ( 'NONE',  ( 0.000000000000000000, 0.000000000000000000, -1.000000000000000000 ) ) ;
#171 = CYLINDRICAL_SURFACE ( 'NONE', #69, 2.850000000000000089 ) ;
#172 = CARTESIAN_POINT ( 'NONE',  ( 0.000000000000000000, 0.3999999999999995781, 0.000000000000000000 ) ) ;
#173 =( NAMED_UNIT ( * ) SI_UNIT ( $, .STERADIAN. ) SOLID_ANGLE_UNIT ( ) );
#174 = CARTESIAN_POINT ( 'NONE',  ( 0.000000000000000000, -4.286263797015736595E-16, -3.500000000000000000 ) ) ;
#175 = FILL_AREA_STYLE ('',( #196 ) ) ;
#176 = MECHANICAL_DESIGN_GEOMETRIC_PRESENTATION_REPRESENTATION (  '', ( #107 ), #102 ) ;
#177 = ORIENTED_EDGE ( 'NONE', *, *, #113, .T. ) ;
#178 = ORIENTED_EDGE ( 'NONE', *, *, #113, .F. ) ;
#179 = AXIS2_PLACEMENT_3D ( 'NONE', #111, #40, #170 ) ;
#180 = SURFACE_STYLE_FILL_AREA ( #12 ) ;
#181 = AXIS2_PLACEMENT_3D ( 'NONE', #100, #82, #125 ) ;
#182 = PRESENTATION_STYLE_ASSIGNMENT (( #186 ) ) ;
#183 = EDGE_LOOP ( 'NONE', ( #215, #1 ) ) ;
#184 = STYLED_ITEM ( 'NONE', ( #182 ), #39 ) ;
#185 = UNCERTAINTY_MEASURE_WITH_UNIT (LENGTH_MEASURE( 1.000000000000000082E-05 ), #195, 'distance_accuracy_value', 'NONE');
#186 = SURFACE_STYLE_USAGE ( .BOTH. , #116 ) ;
#187 = LINE ( 'NONE', #121, #95 ) ;
#188 = DIRECTION ( 'NONE',  ( 0.000000000000000000, -1.000000000000000000, -0.000000000000000000 ) ) ;
#189 = CIRCLE ( 'NONE', #197, 2.850000000000000089 ) ;
#190 = DIRECTION ( 'NONE',  ( 0.000000000000000000, 0.000000000000000000, -1.000000000000000000 ) ) ;
#191 = EDGE_CURVE ( 'NONE', #198, #83, #138, .T. ) ;
#192 = CARTESIAN_POINT ( 'NONE',  ( -2.850000000000000089, 1.999999999999999556, 0.000000000000000000 ) ) ;
#193 = PLANE ( 'NONE',  #140 ) ;
#194 = PRODUCT_CONTEXT ( 'NONE', #124, 'mechanical' ) ;
#195 =( LENGTH_UNIT ( ) NAMED_UNIT ( * ) SI_UNIT ( .MILLI., .METRE. ) );
#196 = FILL_AREA_STYLE_COLOUR ( '', #16 ) ;
#197 = AXIS2_PLACEMENT_3D ( 'NONE', #85, #70, #56 ) ;
#198 = VERTEX_POINT ( 'NONE', #212 ) ;
#199 = ORIENTED_EDGE ( 'NONE', *, *, #13, .F. ) ;
#200 = EDGE_CURVE ( 'NONE', #87, #101, #213, .T. ) ;
#201 = ORIENTED_EDGE ( 'NONE', *, *, #11, .T. ) ;
#202 = CARTESIAN_POINT ( 'NONE',  ( 0.000000000000000000, -4.286263797015736595E-16, 0.000000000000000000 ) ) ;
#203 =( NAMED_UNIT ( * ) SI_UNIT ( $, .STERADIAN. ) SOLID_ANGLE_UNIT ( ) );
#204 = AXIS2_PLACEMENT_3D ( 'NONE', #202, #32, #149 ) ;
#205 = FACE_OUTER_BOUND ( 'NONE', #37, .T. ) ;
#206 = EDGE_CURVE ( 'NONE', #99, #50, #130, .T. ) ;
#207 = DIRECTION ( 'NONE',  ( -0.000000000000000000, -1.000000000000000000, -0.000000000000000000 ) ) ;
#208 = CARTESIAN_POINT ( 'NONE',  ( 0.000000000000000000, 0.000000000000000000, 0.000000000000000000 ) ) ;
#209 = AXIS2_PLACEMENT_3D ( 'NONE', #208, #28, #24 ) ;
#210 = DIRECTION ( 'NONE',  ( -0.000000000000000000, -1.000000000000000000, -0.000000000000000000 ) ) ;
#211 = CARTESIAN_POINT ( 'NONE',  ( 0.000000000000000000, 0.3999999999999995781, 0.000000000000000000 ) ) ;
#212 = CARTESIAN_POINT ( 'NONE',  ( 0.000000000000000000, 1.999999999999999556, -2.850000000000000089 ) ) ;
#213 = CIRCLE ( 'NONE', #122, 3.500000000000000444 ) ;
#214 = CIRCLE ( 'NONE', #10, 2.850000000000000089 ) ;
#215 = ORIENTED_EDGE ( 'NONE', *, *, #92, .F. ) ;
#216 = ORIENTED_EDGE ( 'NONE', *, *, #92, .T. ) ;
#217 = ORIENTED_EDGE ( 'NONE', *, *, #144, .T. ) ;
#218 = PRESENTATION_LAYER_ASSIGNMENT (  '', '', ( #184 ) ) ;
#219 =( NAMED_UNIT ( * ) PLANE_ANGLE_UNIT ( ) SI_UNIT ( $, .RADIAN. ) );
#220 = FILL_AREA_STYLE_COLOUR ( '', #65 ) ;
ENDSEC;
END-ISO-10303-21;
