ISO-10303-21;
HEADER;
FILE_DESCRIPTION (( 'STEP AP214' ),
    '1' );
FILE_NAME ('复位按键-间隙紧凑.STEP',
    '2023-09-10T07:32:07',
    ( '' ),
    ( '' ),
    'SwSTEP 2.0',
    'SolidWorks 2022',
    '' );
FILE_SCHEMA (( 'AUTOMOTIVE_DESIGN' ));
ENDSEC;

DATA;
#1 = ORIENTED_EDGE ( 'NONE', *, *, #163, .T. ) ;
#2 = EDGE_CURVE ( 'NONE', #157, #38, #108, .T. ) ;
#3 = EDGE_LOOP ( 'NONE', ( #69, #176, #206, #106 ) ) ;
#4 = PLANE ( 'NONE',  #164 ) ;
#5 = CARTESIAN_POINT ( 'NONE',  ( 0.000000000000000000, 0.000000000000000000, 0.000000000000000000 ) ) ;
#6 = CIRCLE ( 'NONE', #23, 1.750000000000000000 ) ;
#7 = VERTEX_POINT ( 'NONE', #119 ) ;
#8 = CYLINDRICAL_SURFACE ( 'NONE', #83, 1.750000000000000000 ) ;
#9 = DIRECTION ( 'NONE',  ( 0.000000000000000000, 1.000000000000000000, 0.000000000000000000 ) ) ;
#10 = CYLINDRICAL_SURFACE ( 'NONE', #43, 2.200000000000000178 ) ;
#11 = SURFACE_STYLE_USAGE ( .BOTH. , #162 ) ;
#12 = CARTESIAN_POINT ( 'NONE',  ( 0.000000000000000000, 0.000000000000000000, -2.200000000000000178 ) ) ;
#13 = CARTESIAN_POINT ( 'NONE',  ( 0.000000000000000000, 2.399999999999999911, 0.000000000000000000 ) ) ;
#14 = APPLICATION_CONTEXT ( 'automotive_design' ) ;
#15 = CIRCLE ( 'NONE', #70, 1.750000000000000000 ) ;
#16 = DIRECTION ( 'NONE',  ( 0.000000000000000000, 1.000000000000000000, 0.000000000000000000 ) ) ;
#17 = ORIENTED_EDGE ( 'NONE', *, *, #102, .T. ) ;
#18 = CARTESIAN_POINT ( 'NONE',  ( 0.000000000000000000, 2.399999999999999911, 0.000000000000000000 ) ) ;
#19 = DIRECTION ( 'NONE',  ( -0.000000000000000000, -1.000000000000000000, -0.000000000000000000 ) ) ;
#20 =( LENGTH_UNIT ( ) NAMED_UNIT ( * ) SI_UNIT ( .MILLI., .METRE. ) );
#21 = PRODUCT_CONTEXT ( 'NONE', #14, 'mechanical' ) ;
#22 = PRODUCT_DEFINITION_CONTEXT ( 'detailed design', #65, 'design' ) ;
#23 = AXIS2_PLACEMENT_3D ( 'NONE', #66, #34, #41 ) ;
#24 = ORIENTED_EDGE ( 'NONE', *, *, #188, .T. ) ;
#25 = CARTESIAN_POINT ( 'NONE',  ( 0.000000000000000000, 2.399999999999999911, 0.000000000000000000 ) ) ;
#26 = PRODUCT_RELATED_PRODUCT_CATEGORY ( 'part', '', ( #150 ) ) ;
#27 = STYLED_ITEM ( 'NONE', ( #130 ), #175 ) ;
#28 = DIRECTION ( 'NONE',  ( 0.000000000000000000, 1.000000000000000000, 0.000000000000000000 ) ) ;
#29 = CIRCLE ( 'NONE', #47, 2.200000000000000178 ) ;
#30 = PLANE ( 'NONE',  #199 ) ;
#31 = DIRECTION ( 'NONE',  ( 0.000000000000000000, 1.000000000000000000, 0.000000000000000000 ) ) ;
#32 = ORIENTED_EDGE ( 'NONE', *, *, #81, .F. ) ;
#33 = ADVANCED_FACE ( 'NONE', ( #98 ), #8, .T. ) ;
#34 = DIRECTION ( 'NONE',  ( 0.000000000000000000, 1.000000000000000000, 0.000000000000000000 ) ) ;
#35 = CARTESIAN_POINT ( 'NONE',  ( 0.000000000000000000, 3.799999999999999378, -1.750000000000000000 ) ) ;
#36 = ADVANCED_FACE ( 'NONE', ( #166 ), #110, .T. ) ;
#37 = CARTESIAN_POINT ( 'NONE',  ( 0.000000000000000000, 2.399999999999999911, -1.750000000000000000 ) ) ;
#38 = VERTEX_POINT ( 'NONE', #37 ) ;
#39 = DIRECTION ( 'NONE',  ( 0.000000000000000000, -0.000000000000000000, 1.000000000000000000 ) ) ;
#40 = ADVANCED_FACE ( 'NONE', ( #193 ), #10, .T. ) ;
#41 = DIRECTION ( 'NONE',  ( 0.000000000000000000, 0.000000000000000000, 1.000000000000000000 ) ) ;
#42 =( NAMED_UNIT ( * ) PLANE_ANGLE_UNIT ( ) SI_UNIT ( $, .RADIAN. ) );
#43 = AXIS2_PLACEMENT_3D ( 'NONE', #146, #131, #158 ) ;
#44 = DIRECTION ( 'NONE',  ( 0.000000000000000000, -0.000000000000000000, 1.000000000000000000 ) ) ;
#45 = DIRECTION ( 'NONE',  ( -0.000000000000000000, -1.000000000000000000, -0.000000000000000000 ) ) ;
#46 = CARTESIAN_POINT ( 'NONE',  ( 0.000000000000000000, 0.000000000000000000, 0.000000000000000000 ) ) ;
#47 = AXIS2_PLACEMENT_3D ( 'NONE', #46, #61, #135 ) ;
#48 = CARTESIAN_POINT ( 'NONE',  ( 0.000000000000000000, 2.399999999999999911, -2.200000000000000178 ) ) ;
#49 = ORIENTED_EDGE ( 'NONE', *, *, #168, .T. ) ;
#50 = VECTOR ( 'NONE', #53, 1000.000000000000000 ) ;
#51 =( GEOMETRIC_REPRESENTATION_CONTEXT ( 3 ) GLOBAL_UNCERTAINTY_ASSIGNED_CONTEXT ( ( #104 ) ) GLOBAL_UNIT_ASSIGNED_CONTEXT ( ( #139, #201, #140 ) ) REPRESENTATION_CONTEXT ( 'NONE', 'WORKASPACE' ) );
#52 = ORIENTED_EDGE ( 'NONE', *, *, #163, .F. ) ;
#53 = DIRECTION ( 'NONE',  ( -0.000000000000000000, -1.000000000000000000, -0.000000000000000000 ) ) ;
#54 = EDGE_LOOP ( 'NONE', ( #149, #216 ) ) ;
#55 = UNCERTAINTY_MEASURE_WITH_UNIT (LENGTH_MEASURE( 1.000000000000000082E-05 ), #20, 'distance_accuracy_value', 'NONE');
#56 = EDGE_LOOP ( 'NONE', ( #170, #136 ) ) ;
#57 = EDGE_CURVE ( 'NONE', #157, #84, #15, .T. ) ;
#58 = COLOUR_RGB ( '',1.000000000000000000, 0.6078431372549019107, 0.02745098039215686236 ) ;
#59 = VECTOR ( 'NONE', #156, 1000.000000000000000 ) ;
#60 = PRODUCT_DEFINITION_FORMATION_WITH_SPECIFIED_SOURCE ( '任何', '', #150, .NOT_KNOWN. ) ;
#61 = DIRECTION ( 'NONE',  ( 0.000000000000000000, 1.000000000000000000, 0.000000000000000000 ) ) ;
#62 = ADVANCED_FACE ( 'NONE', ( #177 ), #181, .F. ) ;
#63 = FILL_AREA_STYLE_COLOUR ( '', #58 ) ;
#64 = SURFACE_SIDE_STYLE ('',( #99 ) ) ;
#65 = APPLICATION_CONTEXT ( 'automotive_design' ) ;
#66 = CARTESIAN_POINT ( 'NONE',  ( 0.000000000000000000, 3.799999999999999378, 0.000000000000000000 ) ) ;
#67 = EDGE_CURVE ( 'NONE', #84, #157, #6, .T. ) ;
#68 = ORIENTED_EDGE ( 'NONE', *, *, #2, .T. ) ;
#69 = ORIENTED_EDGE ( 'NONE', *, *, #67, .F. ) ;
#70 = AXIS2_PLACEMENT_3D ( 'NONE', #189, #9, #75 ) ;
#71 = VECTOR ( 'NONE', #45, 1000.000000000000000 ) ;
#72 = DIRECTION ( 'NONE',  ( 0.000000000000000000, 0.000000000000000000, 1.000000000000000000 ) ) ;
#73 = CYLINDRICAL_SURFACE ( 'NONE', #167, 1.750000000000000000 ) ;
#74 = ADVANCED_FACE ( 'NONE', ( #194, #115 ), #4, .T. ) ;
#75 = DIRECTION ( 'NONE',  ( 0.000000000000000000, 0.000000000000000000, 1.000000000000000000 ) ) ;
#76 = CARTESIAN_POINT ( 'NONE',  ( 2.143131898507868297E-16, 3.799999999999999378, 1.750000000000000000 ) ) ;
#77 = CARTESIAN_POINT ( 'NONE',  ( 2.694222958124177006E-16, 0.000000000000000000, 2.200000000000000178 ) ) ;
#78 = CARTESIAN_POINT ( 'NONE',  ( 0.000000000000000000, 3.799999999999999378, 0.000000000000000000 ) ) ;
#79 = PRODUCT_DEFINITION_SHAPE ( 'NONE', 'NONE',  #138 ) ;
#80 = DIRECTION ( 'NONE',  ( 0.000000000000000000, 0.000000000000000000, 1.000000000000000000 ) ) ;
#81 = EDGE_CURVE ( 'NONE', #84, #210, #94, .T. ) ;
#82 = CARTESIAN_POINT ( 'NONE',  ( 0.000000000000000000, 2.399999999999999911, 0.000000000000000000 ) ) ;
#83 = AXIS2_PLACEMENT_3D ( 'NONE', #125, #212, #85 ) ;
#84 = VERTEX_POINT ( 'NONE', #220 ) ;
#85 = DIRECTION ( 'NONE',  ( 0.000000000000000000, 0.000000000000000000, -1.000000000000000000 ) ) ;
#86 = ORIENTED_EDGE ( 'NONE', *, *, #218, .F. ) ;
#87 = DIRECTION ( 'NONE',  ( 0.000000000000000000, 1.000000000000000000, 0.000000000000000000 ) ) ;
#88 = CIRCLE ( 'NONE', #159, 1.750000000000000000 ) ;
#89 = EDGE_LOOP ( 'NONE', ( #49, #24 ) ) ;
#90 =( NAMED_UNIT ( * ) PLANE_ANGLE_UNIT ( ) SI_UNIT ( $, .RADIAN. ) );
#91 = EDGE_CURVE ( 'NONE', #172, #200, #141, .T. ) ;
#92 =( LENGTH_UNIT ( ) NAMED_UNIT ( * ) SI_UNIT ( .MILLI., .METRE. ) );
#93 = FACE_OUTER_BOUND ( 'NONE', #3, .T. ) ;
#94 = LINE ( 'NONE', #76, #59 ) ;
#95 = CIRCLE ( 'NONE', #109, 1.750000000000000000 ) ;
#96 = DIRECTION ( 'NONE',  ( 0.000000000000000000, 1.000000000000000000, 0.000000000000000000 ) ) ;
#97 = CARTESIAN_POINT ( 'NONE',  ( 0.000000000000000000, 3.799999999999999378, 0.000000000000000000 ) ) ;
#98 = FACE_OUTER_BOUND ( 'NONE', #219, .T. ) ;
#99 = SURFACE_STYLE_FILL_AREA ( #137 ) ;
#100 = MECHANICAL_DESIGN_GEOMETRIC_PRESENTATION_REPRESENTATION (  '', ( #27 ), #154 ) ;
#101 = UNCERTAINTY_MEASURE_WITH_UNIT (LENGTH_MEASURE( 1.000000000000000082E-05 ), #92, 'distance_accuracy_value', 'NONE');
#102 = EDGE_CURVE ( 'NONE', #200, #202, #203, .T. ) ;
#103 = DIRECTION ( 'NONE',  ( -0.000000000000000000, -1.000000000000000000, -0.000000000000000000 ) ) ;
#104 = UNCERTAINTY_MEASURE_WITH_UNIT (LENGTH_MEASURE( 1.000000000000000082E-05 ), #139, 'distance_accuracy_value', 'NONE');
#105 = VECTOR ( 'NONE', #103, 1000.000000000000000 ) ;
#106 = ORIENTED_EDGE ( 'NONE', *, *, #2, .F. ) ;
#107 = ORIENTED_EDGE ( 'NONE', *, *, #198, .F. ) ;
#108 = LINE ( 'NONE', #35, #105 ) ;
#109 = AXIS2_PLACEMENT_3D ( 'NONE', #18, #207, #204 ) ;
#110 = CYLINDRICAL_SURFACE ( 'NONE', #116, 2.200000000000000178 ) ;
#111 = DIRECTION ( 'NONE',  ( 0.000000000000000000, 0.000000000000000000, 1.000000000000000000 ) ) ;
#112 = ADVANCED_FACE ( 'NONE', ( #93 ), #73, .T. ) ;
#113 = EDGE_LOOP ( 'NONE', ( #52, #160, #126, #17 ) ) ;
#114 = DIRECTION ( 'NONE',  ( 0.000000000000000000, -0.000000000000000000, 1.000000000000000000 ) ) ;
#115 = FACE_OUTER_BOUND ( 'NONE', #89, .T. ) ;
#116 = AXIS2_PLACEMENT_3D ( 'NONE', #145, #19, #179 ) ;
#117 = DIRECTION ( 'NONE',  ( -0.000000000000000000, -1.000000000000000000, -0.000000000000000000 ) ) ;
#118 = CARTESIAN_POINT ( 'NONE',  ( 0.000000000000000000, 3.799999999999999378, -1.750000000000000000 ) ) ;
#119 = CARTESIAN_POINT ( 'NONE',  ( 2.694222958124177006E-16, 2.399999999999999911, 2.200000000000000178 ) ) ;
#120 = ORIENTED_EDGE ( 'NONE', *, *, #57, .F. ) ;
#121 = AXIS2_PLACEMENT_3D ( 'NONE', #185, #132, #80 ) ;
#122 = CARTESIAN_POINT ( 'NONE',  ( 0.000000000000000000, 0.000000000000000000, 0.000000000000000000 ) ) ;
#123 = CARTESIAN_POINT ( 'NONE',  ( 2.143131898507868297E-16, 2.399999999999999911, 1.750000000000000000 ) ) ;
#124 = CIRCLE ( 'NONE', #121, 2.200000000000000178 ) ;
#125 = CARTESIAN_POINT ( 'NONE',  ( 0.000000000000000000, 3.799999999999999378, 0.000000000000000000 ) ) ;
#126 = ORIENTED_EDGE ( 'NONE', *, *, #91, .T. ) ;
#127 = SURFACE_STYLE_FILL_AREA ( #192 ) ;
#128 = AXIS2_PLACEMENT_3D ( 'NONE', #122, #87, #72 ) ;
#129 = DIRECTION ( 'NONE',  ( 0.000000000000000000, 1.000000000000000000, 0.000000000000000000 ) ) ;
#130 = PRESENTATION_STYLE_ASSIGNMENT (( #11 ) ) ;
#131 = DIRECTION ( 'NONE',  ( -0.000000000000000000, -1.000000000000000000, -0.000000000000000000 ) ) ;
#132 = DIRECTION ( 'NONE',  ( 0.000000000000000000, 1.000000000000000000, 0.000000000000000000 ) ) ;
#133 = AXIS2_PLACEMENT_3D ( 'NONE', #5, #111, #209 ) ;
#134 = CARTESIAN_POINT ( 'NONE',  ( 2.694222958124177006E-16, 2.399999999999999911, 2.200000000000000178 ) ) ;
#135 = DIRECTION ( 'NONE',  ( 0.000000000000000000, 0.000000000000000000, 1.000000000000000000 ) ) ;
#136 = ORIENTED_EDGE ( 'NONE', *, *, #67, .T. ) ;
#137 = FILL_AREA_STYLE ('',( #63 ) ) ;
#138 = PRODUCT_DEFINITION ( '未知', '', #60, #22 ) ;
#139 =( LENGTH_UNIT ( ) NAMED_UNIT ( * ) SI_UNIT ( .MILLI., .METRE. ) );
#140 =( NAMED_UNIT ( * ) SI_UNIT ( $, .STERADIAN. ) SOLID_ANGLE_UNIT ( ) );
#141 = LINE ( 'NONE', #205, #50 ) ;
#142 = ORIENTED_EDGE ( 'NONE', *, *, #218, .T. ) ;
#143 = EDGE_CURVE ( 'NONE', #202, #200, #29, .T. ) ;
#144 = ORIENTED_EDGE ( 'NONE', *, *, #91, .F. ) ;
#145 = CARTESIAN_POINT ( 'NONE',  ( 0.000000000000000000, 2.399999999999999911, 0.000000000000000000 ) ) ;
#146 = CARTESIAN_POINT ( 'NONE',  ( 0.000000000000000000, 2.399999999999999911, 0.000000000000000000 ) ) ;
#147 = SHAPE_DEFINITION_REPRESENTATION ( #79, #175 ) ;
#148 = CLOSED_SHELL ( 'NONE', ( #112, #40, #36, #74, #62, #33, #184 ) ) ;
#149 = ORIENTED_EDGE ( 'NONE', *, *, #102, .F. ) ;
#150 = PRODUCT ( '复位按键-间隙紧凑', '复位按键-间隙紧凑', '', ( #21 ) ) ;
#151 = MECHANICAL_DESIGN_GEOMETRIC_PRESENTATION_REPRESENTATION (  '', ( #191 ), #51 ) ;
#152 = DIRECTION ( 'NONE',  ( 0.000000000000000000, 0.000000000000000000, -1.000000000000000000 ) ) ;
#153 = DIRECTION ( 'NONE',  ( 0.000000000000000000, 0.000000000000000000, 1.000000000000000000 ) ) ;
#154 =( GEOMETRIC_REPRESENTATION_CONTEXT ( 3 ) GLOBAL_UNCERTAINTY_ASSIGNED_CONTEXT ( ( #101 ) ) GLOBAL_UNIT_ASSIGNED_CONTEXT ( ( #92, #42, #211 ) ) REPRESENTATION_CONTEXT ( 'NONE', 'WORKASPACE' ) );
#155 = ORIENTED_EDGE ( 'NONE', *, *, #143, .T. ) ;
#156 = DIRECTION ( 'NONE',  ( -0.000000000000000000, -1.000000000000000000, -0.000000000000000000 ) ) ;
#157 = VERTEX_POINT ( 'NONE', #118 ) ;
#158 = DIRECTION ( 'NONE',  ( 0.000000000000000000, 0.000000000000000000, -1.000000000000000000 ) ) ;
#159 = AXIS2_PLACEMENT_3D ( 'NONE', #13, #96, #153 ) ;
#160 = ORIENTED_EDGE ( 'NONE', *, *, #168, .F. ) ;
#161 =( NAMED_UNIT ( * ) SI_UNIT ( $, .STERADIAN. ) SOLID_ANGLE_UNIT ( ) );
#162 = SURFACE_SIDE_STYLE ('',( #127 ) ) ;
#163 = EDGE_CURVE ( 'NONE', #7, #202, #183, .T. ) ;
#164 = AXIS2_PLACEMENT_3D ( 'NONE', #25, #16, #114 ) ;
#165 = FILL_AREA_STYLE_COLOUR ( '', #186 ) ;
#166 = FACE_OUTER_BOUND ( 'NONE', #113, .T. ) ;
#167 = AXIS2_PLACEMENT_3D ( 'NONE', #78, #117, #152 ) ;
#168 = EDGE_CURVE ( 'NONE', #172, #7, #124, .T. ) ;
#169 = DIRECTION ( 'NONE',  ( 0.000000000000000000, 0.000000000000000000, 1.000000000000000000 ) ) ;
#170 = ORIENTED_EDGE ( 'NONE', *, *, #57, .T. ) ;
#171 = SURFACE_STYLE_USAGE ( .BOTH. , #64 ) ;
#172 = VERTEX_POINT ( 'NONE', #48 ) ;
#173 = PRESENTATION_STYLE_ASSIGNMENT (( #171 ) ) ;
#174 = APPLICATION_PROTOCOL_DEFINITION ( 'draft international standard', 'automotive_design', 1998, #14 ) ;
#175 = ADVANCED_BREP_SHAPE_REPRESENTATION ( '复位按键-间隙紧凑', ( #214, #133 ), #215 ) ;
#176 = ORIENTED_EDGE ( 'NONE', *, *, #81, .T. ) ;
#177 = FACE_OUTER_BOUND ( 'NONE', #54, .T. ) ;
#178 = PRESENTATION_LAYER_ASSIGNMENT (  '', '', ( #191 ) ) ;
#179 = DIRECTION ( 'NONE',  ( 0.000000000000000000, 0.000000000000000000, -1.000000000000000000 ) ) ;
#180 = APPLICATION_PROTOCOL_DEFINITION ( 'draft international standard', 'automotive_design', 1998, #65 ) ;
#181 = PLANE ( 'NONE',  #196 ) ;
#182 = PRESENTATION_LAYER_ASSIGNMENT (  '', '', ( #27 ) ) ;
#183 = LINE ( 'NONE', #134, #71 ) ;
#184 = ADVANCED_FACE ( 'NONE', ( #187 ), #30, .T. ) ;
#185 = CARTESIAN_POINT ( 'NONE',  ( 0.000000000000000000, 2.399999999999999911, 0.000000000000000000 ) ) ;
#186 = COLOUR_RGB ( '',1.000000000000000000, 0.6078431372549019107, 0.02745098039215686236 ) ;
#187 = FACE_OUTER_BOUND ( 'NONE', #56, .T. ) ;
#188 = EDGE_CURVE ( 'NONE', #7, #172, #197, .T. ) ;
#189 = CARTESIAN_POINT ( 'NONE',  ( 0.000000000000000000, 3.799999999999999378, 0.000000000000000000 ) ) ;
#190 = ORIENTED_EDGE ( 'NONE', *, *, #188, .F. ) ;
#191 = STYLED_ITEM ( 'NONE', ( #173 ), #214 ) ;
#192 = FILL_AREA_STYLE ('',( #165 ) ) ;
#193 = FACE_OUTER_BOUND ( 'NONE', #217, .T. ) ;
#194 = FACE_BOUND ( 'NONE', #208, .T. ) ;
#195 = CARTESIAN_POINT ( 'NONE',  ( 0.000000000000000000, 0.000000000000000000, 0.000000000000000000 ) ) ;
#196 = AXIS2_PLACEMENT_3D ( 'NONE', #195, #129, #39 ) ;
#197 = CIRCLE ( 'NONE', #213, 2.200000000000000178 ) ;
#198 = EDGE_CURVE ( 'NONE', #210, #38, #88, .T. ) ;
#199 = AXIS2_PLACEMENT_3D ( 'NONE', #97, #28, #44 ) ;
#200 = VERTEX_POINT ( 'NONE', #12 ) ;
#201 =( NAMED_UNIT ( * ) PLANE_ANGLE_UNIT ( ) SI_UNIT ( $, .RADIAN. ) );
#202 = VERTEX_POINT ( 'NONE', #77 ) ;
#203 = CIRCLE ( 'NONE', #128, 2.200000000000000178 ) ;
#204 = DIRECTION ( 'NONE',  ( 0.000000000000000000, 0.000000000000000000, 1.000000000000000000 ) ) ;
#205 = CARTESIAN_POINT ( 'NONE',  ( 0.000000000000000000, 2.399999999999999911, -2.200000000000000178 ) ) ;
#206 = ORIENTED_EDGE ( 'NONE', *, *, #198, .T. ) ;
#207 = DIRECTION ( 'NONE',  ( 0.000000000000000000, 1.000000000000000000, 0.000000000000000000 ) ) ;
#208 = EDGE_LOOP ( 'NONE', ( #86, #107 ) ) ;
#209 = DIRECTION ( 'NONE',  ( 1.000000000000000000, 0.000000000000000000, 0.000000000000000000 ) ) ;
#210 = VERTEX_POINT ( 'NONE', #123 ) ;
#211 =( NAMED_UNIT ( * ) SI_UNIT ( $, .STERADIAN. ) SOLID_ANGLE_UNIT ( ) );
#212 = DIRECTION ( 'NONE',  ( -0.000000000000000000, -1.000000000000000000, -0.000000000000000000 ) ) ;
#213 = AXIS2_PLACEMENT_3D ( 'NONE', #82, #31, #169 ) ;
#214 = MANIFOLD_SOLID_BREP ( '凸台-拉伸3', #148 ) ;
#215 =( GEOMETRIC_REPRESENTATION_CONTEXT ( 3 ) GLOBAL_UNCERTAINTY_ASSIGNED_CONTEXT ( ( #55 ) ) GLOBAL_UNIT_ASSIGNED_CONTEXT ( ( #20, #90, #161 ) ) REPRESENTATION_CONTEXT ( 'NONE', 'WORKASPACE' ) );
#216 = ORIENTED_EDGE ( 'NONE', *, *, #143, .F. ) ;
#217 = EDGE_LOOP ( 'NONE', ( #190, #1, #155, #144 ) ) ;
#218 = EDGE_CURVE ( 'NONE', #38, #210, #95, .T. ) ;
#219 = EDGE_LOOP ( 'NONE', ( #32, #120, #68, #142 ) ) ;
#220 = CARTESIAN_POINT ( 'NONE',  ( 2.143131898507868297E-16, 3.799999999999999378, 1.750000000000000000 ) ) ;
ENDSEC;
END-ISO-10303-21;
