ISO-10303-21;
HEADER;
FILE_DESCRIPTION (( 'STEP AP214' ),
    '1' );
FILE_NAME ('Å¦¿Ûµç³Ø²Ö.STEP',
    '2023-09-10T09:36:02',
    ( '' ),
    ( '' ),
    'SwSTEP 2.0',
    'SolidWorks 2022',
    '' );
FILE_SCHEMA (( 'AUTOMOTIVE_DESIGN' ));
ENDSEC;

DATA;
#1 = ORIENTED_EDGE ( 'NONE', *, *, #696, .F. ) ;
#2 = UNCERTAINTY_MEASURE_WITH_UNIT (LENGTH_MEASURE( 1.000000000000000082E-05 ), #835, 'distance_accuracy_value', 'NONE');
#3 = CARTESIAN_POINT ( 'NONE',  ( 1.249999999999999778, 4.400000000000000355, 5.349999999999999645 ) ) ;
#4 = CYLINDRICAL_SURFACE ( 'NONE', #136, 1.250000000000000222 ) ;
#5 = CARTESIAN_POINT ( 'NONE',  ( 1.249999999999999778, -0.02612978891603254250, -5.509546088062237779 ) ) ;
#6 = EDGE_LOOP ( 'NONE', ( #752, #253, #721, #60, #514, #937 ) ) ;
#7 = FACE_OUTER_BOUND ( 'NONE', #527, .T. ) ;
#8 = EDGE_CURVE ( 'NONE', #673, #570, #182, .T. ) ;
#9 = DIRECTION ( 'NONE',  ( 0.000000000000000000, 0.000000000000000000, -1.000000000000000000 ) ) ;
#10 = ORIENTED_EDGE ( 'NONE', *, *, #1007, .T. ) ;
#11 = CARTESIAN_POINT ( 'NONE',  ( -1.250000000000000000, 8.076149824100303576, 3.904804732633886388 ) ) ;
#12 = VERTEX_POINT ( 'NONE', #528 ) ;
#13 = AXIS2_PLACEMENT_3D ( 'NONE', #857, #451, #91 ) ;
#14 = CARTESIAN_POINT ( 'NONE',  ( -2.523945523394357515, 0.000000000000000000, 3.231052304580904977 ) ) ;
#15 = EDGE_LOOP ( 'NONE', ( #36, #87, #1115, #685 ) ) ;
#16 = AXIS2_PLACEMENT_3D ( 'NONE', #520, #858, #985 ) ;
#17 =( GEOMETRIC_REPRESENTATION_CONTEXT ( 3 ) GLOBAL_UNCERTAINTY_ASSIGNED_CONTEXT ( ( #2 ) ) GLOBAL_UNIT_ASSIGNED_CONTEXT ( ( #835, #54, #812 ) ) REPRESENTATION_CONTEXT ( 'NONE', 'WORKASPACE' ) );
#18 = CARTESIAN_POINT ( 'NONE',  ( 0.000000000000000000, 0.000000000000000000, 0.000000000000000000 ) ) ;
#19 = B_SPLINE_CURVE_WITH_KNOTS ( 'NONE', 3,
 ( #264, #606, #948, #92, #693, #611, #1045, #363, #526, #97, #20, #701 ),
 .UNSPECIFIED., .F., .F.,
 ( 4, 2, 2, 2, 2, 4 ),
 ( 1.338446274958348491E-20, 0.0004445058106820829196, 0.0008890116213641658391, 0.001333517432046248813, 0.001555770337387290137, 0.001778023242728331245 ),
 .UNSPECIFIED. ) ;
#20 = CARTESIAN_POINT ( 'NONE',  ( 0.07434296036455664836, -0.4305341257900572316, -4.557557860366882707 ) ) ;
#21 = VERTEX_POINT ( 'NONE', #864 ) ;
#22 = EDGE_LOOP ( 'NONE', ( #1070, #854, #816, #265, #424, #575, #1, #255, #246 ) ) ;
#23 = FACE_OUTER_BOUND ( 'NONE', #982, .T. ) ;
#24 = LINE ( 'NONE', #702, #79 ) ;
#25 = ORIENTED_EDGE ( 'NONE', *, *, #422, .F. ) ;
#26 = EDGE_CURVE ( 'NONE', #338, #1100, #1074, .T. ) ;
#27 = DIRECTION ( 'NONE',  ( 0.000000000000000000, 1.000000000000000000, 0.000000000000000000 ) ) ;
#28 = B_SPLINE_CURVE_WITH_KNOTS ( 'NONE', 3,
 ( #347, #683, #1033, #695, #273, #98 ),
 .UNSPECIFIED., .F., .F.,
 ( 4, 2, 4 ),
 ( 0.0006332467486015836778, 0.0009494132407251514808, 0.001265579732848719392 ),
 .UNSPECIFIED. ) ;
#29 = CIRCLE ( 'NONE', #795, 1.250000000000000222 ) ;
#30 = CARTESIAN_POINT ( 'NONE',  ( -1.250000000000000000, -0.5149187952844938021, -4.146007302465220867 ) ) ;
#31 = STYLED_ITEM ( 'NONE', ( #88 ), #890 ) ;
#32 = PRESENTATION_STYLE_ASSIGNMENT (( #796 ) ) ;
#33 = CIRCLE ( 'NONE', #321, 4.099999999999999645 ) ;
#34 = B_SPLINE_CURVE_WITH_KNOTS ( 'NONE', 3,
 ( #322, #916, #581, #150, #924, #158 ),
 .UNSPECIFIED., .F., .F.,
 ( 4, 2, 4 ),
 ( 0.0006298106995009621067, 0.0009443438855273188388, 0.001258877071553675571 ),
 .UNSPECIFIED. ) ;
#35 = CARTESIAN_POINT ( 'NONE',  ( 0.1671023966928876781, 0.3259259259259223995, 6.599999999999999645 ) ) ;
#36 = ORIENTED_EDGE ( 'NONE', *, *, #82, .T. ) ;
#37 = CARTESIAN_POINT ( 'NONE',  ( -2.734073084668301679, 0.5050748309238491940, 1.461110667807308250 ) ) ;
#38 = CARTESIAN_POINT ( 'NONE',  ( -0.5494487727505049657, -0.2682752491111432547, -4.965370292735845403 ) ) ;
#39 = ORIENTED_EDGE ( 'NONE', *, *, #416, .T. ) ;
#40 = CARTESIAN_POINT ( 'NONE',  ( 1.249999999999999778, 4.400000000000000355, -5.349999999999999645 ) ) ;
#41 = EDGE_CURVE ( 'NONE', #1119, #785, #284, .T. ) ;
#42 = CARTESIAN_POINT ( 'NONE',  ( 1.249999999999999778, -0.08367121060338882088, 5.349999999999999645 ) ) ;
#43 = ORIENTED_EDGE ( 'NONE', *, *, #8, .F. ) ;
#44 = CARTESIAN_POINT ( 'NONE',  ( -1.249999999999999778, 8.076149824100303576, 5.349999999999999645 ) ) ;
#45 = VECTOR ( 'NONE', #939, 1000.000000000000000 ) ;
#46 = CARTESIAN_POINT ( 'NONE',  ( -2.579354988560515149, 0.8000000000000007105, 1.722898263918234640 ) ) ;
#47 = DIRECTION ( 'NONE',  ( 0.000000000000000000, 1.000000000000000000, 0.000000000000000000 ) ) ;
#48 = EDGE_CURVE ( 'NONE', #880, #296, #1114, .T. ) ;
#49 = CARTESIAN_POINT ( 'NONE',  ( -2.277962043095299356E-13, -0.02312671838195679702, 5.657557860368942038 ) ) ;
#50 = ORIENTED_EDGE ( 'NONE', *, *, #607, .T. ) ;
#51 = EDGE_CURVE ( 'NONE', #486, #684, #332, .T. ) ;
#52 = DIRECTION ( 'NONE',  ( -0.000000000000000000, 1.000000000000000000, -0.000000000000000000 ) ) ;
#53 = LINE ( 'NONE', #397, #358 ) ;
#54 =( NAMED_UNIT ( * ) PLANE_ANGLE_UNIT ( ) SI_UNIT ( $, .RADIAN. ) );
#55 = EDGE_LOOP ( 'NONE', ( #517, #386, #433, #249 ) ) ;
#56 = CARTESIAN_POINT ( 'NONE',  ( -1.250000000000000000, 4.400000000000000355, -3.904804732633885944 ) ) ;
#57 = EDGE_CURVE ( 'NONE', #852, #779, #624, .T. ) ;
#58 = DIRECTION ( 'NONE',  ( -0.000000000000000000, 1.000000000000000000, -0.000000000000000000 ) ) ;
#59 = DIRECTION ( 'NONE',  ( 0.000000000000000000, 0.3473143558235989303, 0.9377487607237017242 ) ) ;
#60 = ORIENTED_EDGE ( 'NONE', *, *, #89, .F. ) ;
#61 = DIRECTION ( 'NONE',  ( -0.000000000000000000, -1.000000000000000000, -0.000000000000000000 ) ) ;
#62 = APPLICATION_PROTOCOL_DEFINITION ( 'draft international standard', 'automotive_design', 1998, #367 ) ;
#63 = DIRECTION ( 'NONE',  ( 0.000000000000000000, 1.000000000000000000, 0.000000000000000000 ) ) ;
#64 = VECTOR ( 'NONE', #1040, 1000.000000000000000 ) ;
#65 = B_SPLINE_CURVE_WITH_KNOTS ( 'NONE', 3,
 ( #1104, #659, #165, #236, #836, #590 ),
 .UNSPECIFIED., .F., .F.,
 ( 4, 2, 4 ),
 ( 0.0006332467486015831357, 0.0009494132407251510471, 0.001265579732848718959 ),
 .UNSPECIFIED. ) ;
#66 = DIRECTION ( 'NONE',  ( 0.000000000000000000, -1.000000000000000000, 0.000000000000000000 ) ) ;
#67 = EDGE_LOOP ( 'NONE', ( #270, #1105, #661, #1093 ) ) ;
#68 = DIRECTION ( 'NONE',  ( 0.000000000000000000, 1.000000000000000000, 0.000000000000000000 ) ) ;
#69 = CARTESIAN_POINT ( 'NONE',  ( 1.249999999999999778, -0.2572242880210444116, -4.868786401844605649 ) ) ;
#70 = DIRECTION ( 'NONE',  ( 0.000000000000000000, -0.000000000000000000, 1.000000000000000000 ) ) ;
#71 = ORIENTED_EDGE ( 'NONE', *, *, #337, .T. ) ;
#72 = CARTESIAN_POINT ( 'NONE',  ( 4.996446609406726580, 0.4000000000000000777, -5.703553390593274486 ) ) ;
#73 = ORIENTED_EDGE ( 'NONE', *, *, #57, .F. ) ;
#74 = CARTESIAN_POINT ( 'NONE',  ( 1.722898263918233530, -4.895850435129855960E-16, -2.579354988560516482 ) ) ;
#75 = VERTEX_POINT ( 'NONE', #988 ) ;
#76 = DIRECTION ( 'NONE',  ( 0.000000000000000000, 1.000000000000000000, 0.000000000000000000 ) ) ;
#77 = ORIENTED_EDGE ( 'NONE', *, *, #554, .T. ) ;
#78 = CARTESIAN_POINT ( 'NONE',  ( 1.249999999999999778, -0.08367121060338882088, 5.349999999999999645 ) ) ;
#79 = VECTOR ( 'NONE', #455, 1000.000000000000000 ) ;
#80 = CARTESIAN_POINT ( 'NONE',  ( 6.735557395310441284E-17, -0.4305341257900646701, 4.557557860366868496 ) ) ;
#81 = AXIS2_PLACEMENT_3D ( 'NONE', #730, #63, #1010 ) ;
#82 = EDGE_CURVE ( 'NONE', #522, #989, #899, .T. ) ;
#83 =( NAMED_UNIT ( * ) SI_UNIT ( $, .STERADIAN. ) SOLID_ANGLE_UNIT ( ) );
#84 = MECHANICAL_DESIGN_GEOMETRIC_PRESENTATION_REPRESENTATION (  '', ( #980 ), #17 ) ;
#85 = LINE ( 'NONE', #769, #927 ) ;
#86 = ORIENTED_EDGE ( 'NONE', *, *, #238, .T. ) ;
#87 = ORIENTED_EDGE ( 'NONE', *, *, #794, .T. ) ;
#88 = PRESENTATION_STYLE_ASSIGNMENT (( #855 ) ) ;
#89 = EDGE_CURVE ( 'NONE', #684, #766, #645, .T. ) ;
#90 = ORIENTED_EDGE ( 'NONE', *, *, #329, .T. ) ;
#91 = DIRECTION ( 'NONE',  ( 0.000000000000000000, 0.000000000000000000, 1.000000000000000000 ) ) ;
#92 = CARTESIAN_POINT ( 'NONE',  ( 0.4958446515105744967, -0.1157715527205882555, -5.385700556899804425 ) ) ;
#93 = ORIENTED_EDGE ( 'NONE', *, *, #41, .F. ) ;
#94 = LINE ( 'NONE', #1048, #815 ) ;
#95 = DIRECTION ( 'NONE',  ( -0.000000000000000000, 1.000000000000000000, -0.000000000000000000 ) ) ;
#96 = ADVANCED_FACE ( 'NONE', ( #638, #385 ), #715, .T. ) ;
#97 = CARTESIAN_POINT ( 'NONE',  ( 0.1482759319830945222, -0.4241841657967299617, -4.572783546620125428 ) ) ;
#98 = CARTESIAN_POINT ( 'NONE',  ( 2.516884155871666362, 0.8000000000000003775, -1.809777374685120455 ) ) ;
#99 = EDGE_LOOP ( 'NONE', ( #195, #911, #602, #122 ) ) ;
#100 = CARTESIAN_POINT ( 'NONE',  ( 1.129725274371320642, 0.1030451673383799699, -5.891038480875831596 ) ) ;
#101 = VECTOR ( 'NONE', #986, 1000.000000000000000 ) ;
#102 = VECTOR ( 'NONE', #328, 1000.000000000000000 ) ;
#103 = CARTESIAN_POINT ( 'NONE',  ( -2.286973397463027612E-20, 0.3259259259259222885, 6.599999999999999645 ) ) ;
#104 = FACE_OUTER_BOUND ( 'NONE', #220, .T. ) ;
#105 = CARTESIAN_POINT ( 'NONE',  ( 3.231052304580904089, 0.000000000000000000, -2.523945523394358403 ) ) ;
#106 = EDGE_CURVE ( 'NONE', #475, #167, #741, .T. ) ;
#107 = DIRECTION ( 'NONE',  ( -0.7071067811865474617, -0.000000000000000000, 0.7071067811865476838 ) ) ;
#108 = ORIENTED_EDGE ( 'NONE', *, *, #1038, .T. ) ;
#109 = CARTESIAN_POINT ( 'NONE',  ( 0.000000000000000000, -0.5999999999999998668, 0.000000000000000000 ) ) ;
#110 = DIRECTION ( 'NONE',  ( 0.000000000000000000, 0.000000000000000000, 1.000000000000000000 ) ) ;
#111 = FACE_OUTER_BOUND ( 'NONE', #842, .T. ) ;
#112 = CARTESIAN_POINT ( 'NONE',  ( 0.000000000000000000, 0.000000000000000000, 0.000000000000000000 ) ) ;
#113 = DIRECTION ( 'NONE',  ( 0.000000000000000000, -1.000000000000000000, 0.000000000000000000 ) ) ;
#114 = FILL_AREA_STYLE_COLOUR ( '', #1002 ) ;
#115 = CARTESIAN_POINT ( 'NONE',  ( -0.2958174408786510279, -0.04448246089887149951, -5.593106783351544209 ) ) ;
#116 = ORIENTED_EDGE ( 'NONE', *, *, #694, .F. ) ;
#117 = VECTOR ( 'NONE', #567, 1000.000000000000000 ) ;
#118 = CARTESIAN_POINT ( 'NONE',  ( -2.229754816689881736, 0.1908232177393711371, 3.441507339707845947 ) ) ;
#119 = VECTOR ( 'NONE', #499, 1000.000000000000000 ) ;
#120 = CYLINDRICAL_SURFACE ( 'NONE', #549, 0.4000000000000005773 ) ;
#121 = CARTESIAN_POINT ( 'NONE',  ( -0.2952376684140506913, -0.4034719746760399572, 4.622090279751346564 ) ) ;
#122 = ORIENTED_EDGE ( 'NONE', *, *, #735, .F. ) ;
#123 = EDGE_CURVE ( 'NONE', #502, #1017, #243, .T. ) ;
#124 = CYLINDRICAL_SURFACE ( 'NONE', #605, 1.250000000000000222 ) ;
#125 = CARTESIAN_POINT ( 'NONE',  ( 0.6423679973167378821, 0.2760189040205682787, 6.435196926841582510 ) ) ;
#126 = ORIENTED_EDGE ( 'NONE', *, *, #895, .F. ) ;
#127 = DIRECTION ( 'NONE',  ( -1.500423087409463390E-16, 0.000000000000000000, -1.000000000000000000 ) ) ;
#128 = FACE_BOUND ( 'NONE', #594, .T. ) ;
#129 = APPLICATION_CONTEXT ( 'automotive_design' ) ;
#130 = CARTESIAN_POINT ( 'NONE',  ( 1.249999999999999778, -0.08367121060338933436, -5.349999999999999645 ) ) ;
#131 = EDGE_CURVE ( 'NONE', #417, #306, #1061, .T. ) ;
#132 = CARTESIAN_POINT ( 'NONE',  ( 0.7808081062550152884, 0.2468818760961714320, 6.340023615358949982 ) ) ;
#133 = ORIENTED_EDGE ( 'NONE', *, *, #318, .F. ) ;
#134 = CARTESIAN_POINT ( 'NONE',  ( 0.000000000000000000, 0.000000000000000000, -3.100000000000000089 ) ) ;
#135 = CARTESIAN_POINT ( 'NONE',  ( 6.735557395310441284E-17, -0.4305341257900646701, 4.557557860366868496 ) ) ;
#136 = AXIS2_PLACEMENT_3D ( 'NONE', #351, #776, #668 ) ;
#137 = PRESENTATION_LAYER_ASSIGNMENT (  '', '', ( #31 ) ) ;
#138 = CARTESIAN_POINT ( 'NONE',  ( -2.635279908930072690, 0.04272742376845262147, 1.634356561057356938 ) ) ;
#139 = CARTESIAN_POINT ( 'NONE',  ( 1.250000000000000000, -0.5149187952844932470, 4.146007302465221755 ) ) ;
#140 = ADVANCED_FACE ( 'NONE', ( #646 ), #841, .T. ) ;
#141 = ORIENTED_EDGE ( 'NONE', *, *, #245, .F. ) ;
#142 = FACE_OUTER_BOUND ( 'NONE', #680, .T. ) ;
#143 = CARTESIAN_POINT ( 'NONE',  ( -1.249999999999999778, -0.08367121060338876537, -5.349999999999999645 ) ) ;
#144 = DIRECTION ( 'NONE',  ( 0.000000000000000000, 0.000000000000000000, 1.000000000000000000 ) ) ;
#145 = ORIENTED_EDGE ( 'NONE', *, *, #123, .F. ) ;
#146 = CARTESIAN_POINT ( 'NONE',  ( 0.000000000000000000, 4.400000000000000355, -6.599999999999999645 ) ) ;
#147 = CARTESIAN_POINT ( 'NONE',  ( -2.277962043095299356E-13, -0.02312671838195679702, 5.657557860368942038 ) ) ;
#148 = CARTESIAN_POINT ( 'NONE',  ( 1.249999999999998446, -0.5999999999999998668, -3.904804732633886832 ) ) ;
#149 = FACE_BOUND ( 'NONE', #237, .T. ) ;
#150 = CARTESIAN_POINT ( 'NONE',  ( 3.356482400783697084, 0.7577652680243390781, -2.355802454588245887 ) ) ;
#151 = ORIENTED_EDGE ( 'NONE', *, *, #440, .F. ) ;
#152 = CARTESIAN_POINT ( 'NONE',  ( 0.000000000000000000, 4.400000000000000355, 5.349999999999999645 ) ) ;
#153 = ORIENTED_EDGE ( 'NONE', *, *, #633, .T. ) ;
#154 = CARTESIAN_POINT ( 'NONE',  ( 5.703553390593272709, 0.000000000000000000, -4.996446609406728356 ) ) ;
#155 = DIRECTION ( 'NONE',  ( -0.7071067811865474617, -0.000000000000000000, 0.7071067811865476838 ) ) ;
#156 = AXIS2_PLACEMENT_3D ( 'NONE', #473, #47, #393 ) ;
#157 = LINE ( 'NONE', #839, #45 ) ;
#158 = CARTESIAN_POINT ( 'NONE',  ( 3.231052304580904089, 0.8000000000000003775, -2.523945523394358403 ) ) ;
#159 = AXIS2_PLACEMENT_3D ( 'NONE', #976, #383, #550 ) ;
#160 = ORIENTED_EDGE ( 'NONE', *, *, #1106, .T. ) ;
#161 = AXIS2_PLACEMENT_3D ( 'NONE', #903, #235, #731 ) ;
#162 = CARTESIAN_POINT ( 'NONE',  ( 0.2951866350349871548, -0.04429471657006164853, 5.593656479000278736 ) ) ;
#163 = ORIENTED_EDGE ( 'NONE', *, *, #696, .T. ) ;
#164 = EDGE_CURVE ( 'NONE', #262, #21, #737, .T. ) ;
#165 = CARTESIAN_POINT ( 'NONE',  ( -1.502058557369182701, 0.1898848541514371602, 2.712886090923583904 ) ) ;
#166 = DIRECTION ( 'NONE',  ( 0.000000000000000000, -1.000000000000000000, 0.000000000000000000 ) ) ;
#167 = VERTEX_POINT ( 'NONE', #569 ) ;
#168 = CARTESIAN_POINT ( 'NONE',  ( -1.249999999999999778, -0.08367121060338876537, -5.349999999999999645 ) ) ;
#169 = ORIENTED_EDGE ( 'NONE', *, *, #714, .T. ) ;
#170 = DIRECTION ( 'NONE',  ( 0.000000000000000000, 1.000000000000000000, 0.000000000000000000 ) ) ;
#171 = EDGE_CURVE ( 'NONE', #21, #357, #515, .T. ) ;
#172 = CARTESIAN_POINT ( 'NONE',  ( 5.986396103067892938, 0.3999999999999999667, -4.713603896932109016 ) ) ;
#173 = ORIENTED_EDGE ( 'NONE', *, *, #807, .F. ) ;
#174 = EDGE_LOOP ( 'NONE', ( #1107, #614, #126, #887 ) ) ;
#175 = FACE_OUTER_BOUND ( 'NONE', #174, .T. ) ;
#176 = B_SPLINE_CURVE_WITH_KNOTS ( 'NONE', 3,
 ( #148, #579, #69, #130 ),
 .UNSPECIFIED., .F., .F.,
 ( 4, 4 ),
 ( 6.447129612864634281E-18, 0.001534661128580899281 ),
 .UNSPECIFIED. ) ;
#177 = AXIS2_PLACEMENT_3D ( 'NONE', #739, #822, #918 ) ;
#178 = EDGE_CURVE ( 'NONE', #502, #205, #34, .T. ) ;
#179 = ORIENTED_EDGE ( 'NONE', *, *, #620, .F. ) ;
#180 = SURFACE_STYLE_FILL_AREA ( #676 ) ;
#181 = ORIENTED_EDGE ( 'NONE', *, *, #503, .F. ) ;
#182 = B_SPLINE_CURVE_WITH_KNOTS ( 'NONE', 3,
 ( #771, #5, #954, #100, #279, #352, #186, #445, #359, #689, #1041, #268, #950, #619 ),
 .UNSPECIFIED., .F., .F.,
 ( 4, 2, 2, 2, 2, 2, 4 ),
 ( 5.421010862427522170E-20, 0.0005018090974711309719, 0.0007527136462066974336, 0.001003618194942263895, 0.001254522743677830357, 0.001505427292413396819, 0.002007236389884528658 ),
 .UNSPECIFIED. ) ;
#183 = FACE_OUTER_BOUND ( 'NONE', #577, .T. ) ;
#184 = ORIENTED_EDGE ( 'NONE', *, *, #488, .F. ) ;
#185 = CARTESIAN_POINT ( 'NONE',  ( -1.250000000000000000, -0.4298319872811642850, 4.387225757443249385 ) ) ;
#186 = CARTESIAN_POINT ( 'NONE',  ( 0.9533574296117690583, 0.1909554378494187077, -6.162612003416315432 ) ) ;
#187 = ADVANCED_FACE ( 'NONE', ( #637 ), #120, .F. ) ;
#188 = ORIENTED_EDGE ( 'NONE', *, *, #131, .F. ) ;
#189 = DIRECTION ( 'NONE',  ( 0.000000000000000000, -0.000000000000000000, 1.000000000000000000 ) ) ;
#190 = DIRECTION ( 'NONE',  ( -0.7071067811865474617, -0.000000000000000000, 0.7071067811865476838 ) ) ;
#191 = EDGE_LOOP ( 'NONE', ( #667, #153, #151, #1027 ) ) ;
#192 = ADVANCED_FACE ( 'NONE', ( #706 ), #1056, .F. ) ;
#193 = FACE_OUTER_BOUND ( 'NONE', #55, .T. ) ;
#194 = FACE_OUTER_BOUND ( 'NONE', #99, .T. ) ;
#195 = ORIENTED_EDGE ( 'NONE', *, *, #494, .F. ) ;
#196 = ORIENTED_EDGE ( 'NONE', *, *, #494, .T. ) ;
#197 = CIRCLE ( 'NONE', #16, 3.100000000000000089 ) ;
#198 = FACE_OUTER_BOUND ( 'NONE', #848, .T. ) ;
#199 = DIRECTION ( 'NONE',  ( -0.7071067811865474617, -0.000000000000000000, 0.7071067811865476838 ) ) ;
#200 = CARTESIAN_POINT ( 'NONE',  ( -0.5660088140672994150, 0.2858717105244402146, 6.467612006622905696 ) ) ;
#201 =( NAMED_UNIT ( * ) SI_UNIT ( $, .STERADIAN. ) SOLID_ANGLE_UNIT ( ) );
#202 = MANIFOLD_SOLID_BREP ( 'µ¹½Ç4', #231 ) ;
#203 = ADVANCED_FACE ( 'NONE', ( #914 ), #878, .F. ) ;
#204 = CARTESIAN_POINT ( 'NONE',  ( -1.219949450978346173, 0.02805679089202964965, 5.666592277897950503 ) ) ;
#205 = VERTEX_POINT ( 'NONE', #665 ) ;
#206 = CARTESIAN_POINT ( 'NONE',  ( -2.440123240657840142, -8.182338270476539303E-16, 3.296530314631556990 ) ) ;
#207 = CARTESIAN_POINT ( 'NONE',  ( -0.7808081062550152884, 0.2468818760961714320, -6.340023615358949982 ) ) ;
#208 = CARTESIAN_POINT ( 'NONE',  ( -0.7764056993371333260, 0.2444875088478699054, 6.333117851168434065 ) ) ;
#209 = EDGE_LOOP ( 'NONE', ( #1053, #591, #1020, #993 ) ) ;
#210 = ADVANCED_FACE ( 'NONE', ( #327 ), #1018, .T. ) ;
#211 = VECTOR ( 'NONE', #59, 1000.000000000000114 ) ;
#212 = CYLINDRICAL_SURFACE ( 'NONE', #1112, 0.4000000000000005773 ) ;
#213 = AXIS2_PLACEMENT_3D ( 'NONE', #346, #1116, #70 ) ;
#214 = CARTESIAN_POINT ( 'NONE',  ( -0.3363331975315612121, 0.3155808369392265611, 6.565347802086465734 ) ) ;
#215 = ORIENTED_EDGE ( 'NONE', *, *, #440, .T. ) ;
#216 = FACE_BOUND ( 'NONE', #938, .T. ) ;
#217 = EDGE_CURVE ( 'NONE', #357, #349, #589, .T. ) ;
#218 = DIRECTION ( 'NONE',  ( -0.000000000000000000, 1.000000000000000000, -0.000000000000000000 ) ) ;
#219 = CARTESIAN_POINT ( 'NONE',  ( -0.5494467265713470772, -0.2681492634285510546, 4.965712638776355270 ) ) ;
#220 = EDGE_LOOP ( 'NONE', ( #691, #333, #597, #582, #917, #838, #181, #510, #931 ) ) ;
#221 = DIRECTION ( 'NONE',  ( 0.000000000000000000, 1.000000000000000000, 0.000000000000000000 ) ) ;
#222 = CARTESIAN_POINT ( 'NONE',  ( 6.735557395310440051E-17, 4.400000000000000355, -5.657557860366868141 ) ) ;
#223 = EDGE_CURVE ( 'NONE', #869, #296, #573, .T. ) ;
#224 = CARTESIAN_POINT ( 'NONE',  ( -1.126474843340105503, 0.1348577310616407843, -5.984654755256501701 ) ) ;
#225 = LINE ( 'NONE', #922, #1110 ) ;
#226 = ORIENTED_EDGE ( 'NONE', *, *, #217, .F. ) ;
#227 = CARTESIAN_POINT ( 'NONE',  ( 3.796405077356794918E-16, 0.000000000000000000, 3.100000000000000089 ) ) ;
#228 = CARTESIAN_POINT ( 'NONE',  ( 0.1484612405711578653, -0.02312671838261655399, 5.657557860366971170 ) ) ;
#229 = VECTOR ( 'NONE', #113, 1000.000000000000000 ) ;
#230 = CARTESIAN_POINT ( 'NONE',  ( 0.000000000000000000, 0.4000000000000001887, 6.800000000000006928 ) ) ;
#231 = CLOSED_SHELL ( 'NONE', ( #956, #523, #203, #585, #1024, #409, #140, #96, #210, #302, #973, #467, #1046, #384, #888, #866, #285, #963, #704, #686, #642, #720, #482, #933, #754, #187, #192, #380, #1089 ) ) ;
#232 = AXIS2_PLACEMENT_3D ( 'NONE', #787, #960, #871 ) ;
#233 = ORIENTED_EDGE ( 'NONE', *, *, #294, .T. ) ;
#234 = CARTESIAN_POINT ( 'NONE',  ( -1.722837740905644788, 0.8000000000000001554, 2.579398507917006977 ) ) ;
#235 = DIRECTION ( 'NONE',  ( 1.000000000000000000, 0.000000000000000000, -1.500423087409463390E-16 ) ) ;
#236 = CARTESIAN_POINT ( 'NONE',  ( -1.634912790111568759, 0.04207554727100714514, 2.634955601299999284 ) ) ;
#237 = EDGE_LOOP ( 'NONE', ( #116, #276 ) ) ;
#238 = EDGE_CURVE ( 'NONE', #475, #772, #996, .T. ) ;
#239 = CARTESIAN_POINT ( 'NONE',  ( -1.249999999999999778, 4.400000000000000355, 5.349999999999999645 ) ) ;
#240 = CARTESIAN_POINT ( 'NONE',  ( -1.250000000000000000, 4.400000000000000355, 3.904804732633885944 ) ) ;
#241 = CARTESIAN_POINT ( 'NONE',  ( 1.249999999999998446, 4.400000000000000355, -3.904804732633886832 ) ) ;
#242 = CARTESIAN_POINT ( 'NONE',  ( 5.703553390593272709, 0.000000000000000000, -4.996446609406728356 ) ) ;
#243 = LINE ( 'NONE', #1099, #119 ) ;
#244 = EDGE_LOOP ( 'NONE', ( #929, #10, #861, #300 ) ) ;
#245 = EDGE_CURVE ( 'NONE', #470, #673, #176, .T. ) ;
#246 = ORIENTED_EDGE ( 'NONE', *, *, #881, .F. ) ;
#247 = AXIS2_PLACEMENT_3D ( 'NONE', #286, #783, #364 ) ;
#248 = CARTESIAN_POINT ( 'NONE',  ( 1.809777374685118900, 0.8000000000000003775, -2.516884155871667250 ) ) ;
#249 = ORIENTED_EDGE ( 'NONE', *, *, #969, .F. ) ;
#250 = CARTESIAN_POINT ( 'NONE',  ( -1.461221593272409747, 0.3999999999999999667, 2.734013799408195666 ) ) ;
#251 = EDGE_CURVE ( 'NONE', #349, #438, #225, .T. ) ;
#252 = CARTESIAN_POINT ( 'NONE',  ( -2.192031021678320091, 0.5050669438079732343, 3.464823227814143092 ) ) ;
#253 = ORIENTED_EDGE ( 'NONE', *, *, #488, .T. ) ;
#254 = PLANE ( 'NONE',  #213 ) ;
#255 = ORIENTED_EDGE ( 'NONE', *, *, #337, .F. ) ;
#256 = EDGE_LOOP ( 'NONE', ( #750, #732, #459, #1086 ) ) ;
#257 = ORIENTED_EDGE ( 'NONE', *, *, #735, .T. ) ;
#258 = EDGE_CURVE ( 'NONE', #763, #475, #490, .T. ) ;
#259 = DIRECTION ( 'NONE',  ( -0.7071067811865474617, -0.000000000000000000, 0.7071067811865476838 ) ) ;
#260 = ORIENTED_EDGE ( 'NONE', *, *, #813, .T. ) ;
#261 = CARTESIAN_POINT ( 'NONE',  ( -2.523945523394357515, 0.8000000000000003775, 3.231052304580904977 ) ) ;
#262 = VERTEX_POINT ( 'NONE', #910 ) ;
#263 = CARTESIAN_POINT ( 'NONE',  ( 0.000000000000000000, -0.5999999999999998668, 0.000000000000000000 ) ) ;
#264 = CARTESIAN_POINT ( 'NONE',  ( 6.735557395310441284E-17, -0.02312671838265047825, -5.657557860366868141 ) ) ;
#265 = ORIENTED_EDGE ( 'NONE', *, *, #920, .T. ) ;
#266 = VECTOR ( 'NONE', #428, 1000.000000000000000 ) ;
#267 = VECTOR ( 'NONE', #972, 1000.000000000000000 ) ;
#268 = CARTESIAN_POINT ( 'NONE',  ( 0.3363331975315612121, 0.3155808369392265611, -6.565347802086465734 ) ) ;
#269 = DIRECTION ( 'NONE',  ( -0.7071067811865474617, -0.000000000000000000, 0.7071067811865476838 ) ) ;
#270 = ORIENTED_EDGE ( 'NONE', *, *, #448, .T. ) ;
#271 = CARTESIAN_POINT ( 'NONE',  ( -1.249999999999999778, -0.3430867941843485647, -4.627821346882325493 ) ) ;
#272 = DIRECTION ( 'NONE',  ( 0.000000000000000000, 1.000000000000000000, 0.000000000000000000 ) ) ;
#273 = CARTESIAN_POINT ( 'NONE',  ( 2.579309883840028128, 0.8000000000000007105, -1.722960991719971968 ) ) ;
#274 = EDGE_CURVE ( 'NONE', #766, #429, #733, .T. ) ;
#275 = CARTESIAN_POINT ( 'NONE',  ( -2.192031021665569401, 0.4000000000005500822, 3.464823227822134477 ) ) ;
#276 = ORIENTED_EDGE ( 'NONE', *, *, #290, .F. ) ;
#277 = DIRECTION ( 'NONE',  ( 1.500423087409463390E-16, 0.000000000000000000, -1.000000000000000000 ) ) ;
#278 = LINE ( 'NONE', #617, #229 ) ;
#279 = CARTESIAN_POINT ( 'NONE',  ( 1.092733320620500326, 0.1264405323915501755, -5.962330610741015668 ) ) ;
#280 = PRODUCT_RELATED_PRODUCT_CATEGORY ( 'part', '', ( #373 ) ) ;
#281 = CARTESIAN_POINT ( 'NONE',  ( 0.000000000000000000, 4.400000000000000355, -5.349999999999999645 ) ) ;
#282 = CIRCLE ( 'NONE', #631, 1.250000000000000222 ) ;
#283 = B_SPLINE_CURVE_WITH_KNOTS ( 'NONE', 3,
 ( #147, #228, #162, #1079, #303, #745, #326, #909, #407, #135 ),
 .UNSPECIFIED., .F., .F.,
 ( 4, 2, 2, 2, 4 ),
 ( 0.001777889705839745104, 0.002222136848240282691, 0.002666383990640820278, 0.003110631133041357431, 0.003554878275441895018 ),
 .UNSPECIFIED. ) ;
#284 = CIRCLE ( 'NONE', #656, 4.099999999999999645 ) ;
#285 = ADVANCED_FACE ( 'NONE', ( #828 ), #644, .F. ) ;
#286 = CARTESIAN_POINT ( 'NONE',  ( 5.703553390593272709, 0.3999999999999999667, -4.996446609406728356 ) ) ;
#287 = CARTESIAN_POINT ( 'NONE',  ( -0.1674135440639977768, 0.3259259259259221775, 6.599999999999997868 ) ) ;
#288 = CARTESIAN_POINT ( 'NONE',  ( 0.000000000000000000, 0.000000000000000000, 0.000000000000000000 ) ) ;
#289 = CARTESIAN_POINT ( 'NONE',  ( 4.996446609406725692, 0.8000000000000001554, -5.703553390593274486 ) ) ;
#290 = EDGE_CURVE ( 'NONE', #1035, #336, #477, .T. ) ;
#291 = CARTESIAN_POINT ( 'NONE',  ( 6.735557395310441284E-17, -0.02312671838265047825, -5.657557860366868141 ) ) ;
#292 = EDGE_LOOP ( 'NONE', ( #260, #1031, #354, #233, #432, #758 ) ) ;
#293 = CYLINDRICAL_SURFACE ( 'NONE', #1000, 4.099999999999999645 ) ;
#294 = EDGE_CURVE ( 'NONE', #167, #684, #824, .T. ) ;
#295 = CARTESIAN_POINT ( 'NONE',  ( -1.129725274371320642, 0.1030451673383799560, 5.891038480875831596 ) ) ;
#296 = VERTEX_POINT ( 'NONE', #241 ) ;
#297 = CIRCLE ( 'NONE', #847, 4.099999999999999645 ) ;
#298 = CARTESIAN_POINT ( 'NONE',  ( 0.000000000000000000, 0.4000000000000001887, 0.000000000000000000 ) ) ;
#299 = VECTOR ( 'NONE', #269, 1000.000000000000000 ) ;
#300 = ORIENTED_EDGE ( 'NONE', *, *, #694, .T. ) ;
#301 = CARTESIAN_POINT ( 'NONE',  ( 0.000000000000000000, 0.8000000000000003775, 0.000000000000000000 ) ) ;
#302 = ADVANCED_FACE ( 'NONE', ( #403 ), #1096, .T. ) ;
#303 = CARTESIAN_POINT ( 'NONE',  ( 0.5506918264021077869, -0.1653515323217109867, 5.244738462688879999 ) ) ;
#304 = CARTESIAN_POINT ( 'NONE',  ( -2.516884155871667250, 0.8000000000000003775, 1.809777374685119344 ) ) ;
#305 = CARTESIAN_POINT ( 'NONE',  ( 0.000000000000000000, 4.400000000000000355, -5.107557860366868319 ) ) ;
#306 = VERTEX_POINT ( 'NONE', #227 ) ;
#307 = B_SPLINE_CURVE_WITH_KNOTS ( 'NONE', 3,
 ( #248, #420, #498, #1108, #320, #671, #513, #851, #74, #759 ),
 .UNSPECIFIED., .F., .F.,
 ( 4, 2, 2, 2, 4 ),
 ( 7.893110957891143786E-19, 0.0003163949332121803902, 0.0006327898664243599130, 0.0009491847996365394358, 0.001265579732848719175 ),
 .UNSPECIFIED. ) ;
#308 = CARTESIAN_POINT ( 'NONE',  ( -1.249999999999999778, 8.076149824100303576, -5.349999999999999645 ) ) ;
#309 = DIRECTION ( 'NONE',  ( 0.000000000000000000, -1.000000000000000000, 0.000000000000000000 ) ) ;
#310 = DIRECTION ( 'NONE',  ( 0.000000000000000000, 1.000000000000000000, 0.000000000000000000 ) ) ;
#311 = ORIENTED_EDGE ( 'NONE', *, *, #251, .F. ) ;
#312 = CARTESIAN_POINT ( 'NONE',  ( -3.356891740331877649, 0.04299345886992590043, 2.355192943021799934 ) ) ;
#313 = DIRECTION ( 'NONE',  ( -0.000000000000000000, 1.000000000000000000, -0.000000000000000000 ) ) ;
#314 = AXIS2_PLACEMENT_3D ( 'NONE', #1059, #1055, #110 ) ;
#315 =( GEOMETRIC_REPRESENTATION_CONTEXT ( 3 ) GLOBAL_UNCERTAINTY_ASSIGNED_CONTEXT ( ( #345 ) ) GLOBAL_UNIT_ASSIGNED_CONTEXT ( ( #804, #1062, #201 ) ) REPRESENTATION_CONTEXT ( 'NONE', 'WORKASPACE' ) );
#316 = CARTESIAN_POINT ( 'NONE',  ( 0.000000000000000000, -2.155634918610404682, 5.107557860366868319 ) ) ;
#317 = CARTESIAN_POINT ( 'NONE',  ( 1.249999999999999778, -0.1704508631754255987, 5.109384567060309301 ) ) ;
#318 = EDGE_CURVE ( 'NONE', #344, #951, #282, .T. ) ;
#319 = AXIS2_PLACEMENT_3D ( 'NONE', #1075, #797, #891 ) ;
#320 = CARTESIAN_POINT ( 'NONE',  ( 1.461333000327884823, 0.5059891949748014373, -2.733954256757170853 ) ) ;
#321 = AXIS2_PLACEMENT_3D ( 'NONE', #705, #707, #967 ) ;
#322 = CARTESIAN_POINT ( 'NONE',  ( 3.464823227822134033, 0.3999999999994498512, -2.192031021665571622 ) ) ;
#323 = ORIENTED_EDGE ( 'NONE', *, *, #784, .F. ) ;
#324 = DIRECTION ( 'NONE',  ( -0.000000000000000000, -1.000000000000000000, -0.000000000000000000 ) ) ;
#325 = B_SPLINE_CURVE_WITH_KNOTS ( 'NONE', 3,
 ( #544, #713, #118, #1063, #206, #378 ),
 .UNSPECIFIED., .F., .F.,
 ( 4, 2, 4 ),
 ( 0.0006298106995009623236, 0.0009443438855273194894, 0.001258877071553676655 ),
 .UNSPECIFIED. ) ;
#326 = CARTESIAN_POINT ( 'NONE',  ( 0.4938011573927163500, -0.3219011942797042058, 4.826516204233311846 ) ) ;
#327 = FACE_OUTER_BOUND ( 'NONE', #256, .T. ) ;
#328 = DIRECTION ( 'NONE',  ( -0.000000000000000000, 1.000000000000000000, -0.000000000000000000 ) ) ;
#329 = EDGE_CURVE ( 'NONE', #438, #663, #877, .T. ) ;
#330 = ORIENTED_EDGE ( 'NONE', *, *, #895, .T. ) ;
#331 = DIRECTION ( 'NONE',  ( 0.000000000000000000, 0.000000000000000000, 1.000000000000000000 ) ) ;
#332 = B_SPLINE_CURVE_WITH_KNOTS ( 'NONE', 3,
 ( #793, #625, #204, #295, #724, #394, #966, #457, #208, #623, #200, #214, #287, #541 ),
 .UNSPECIFIED., .F., .F.,
 ( 4, 2, 2, 2, 2, 2, 4 ),
 ( 5.421010862427522170E-20, 0.0005018090974711309719, 0.0007527136462066974336, 0.001003618194942263895, 0.001254522743677830357, 0.001505427292413396819, 0.002007236389884528658 ),
 .UNSPECIFIED. ) ;
#333 = ORIENTED_EDGE ( 'NONE', *, *, #26, .T. ) ;
#334 = CARTESIAN_POINT ( 'NONE',  ( 6.735557395310441284E-17, -2.155634918610404682, 4.557557860366868496 ) ) ;
#335 = LINE ( 'NONE', #242, #410 ) ;
#336 = VERTEX_POINT ( 'NONE', #493 ) ;
#337 = EDGE_CURVE ( 'NONE', #492, #399, #833, .T. ) ;
#338 = VERTEX_POINT ( 'NONE', #832 ) ;
#339 = CONICAL_SURFACE ( 'NONE', #444, 6.800000000000006928, 1.216090674783951053 ) ;
#340 = CARTESIAN_POINT ( 'NONE',  ( 1.249999999999999778, 8.076149824100303576, 5.349999999999999645 ) ) ;
#341 = ORIENTED_EDGE ( 'NONE', *, *, #862, .F. ) ;
#342 = CARTESIAN_POINT ( 'NONE',  ( -3.231052304580904089, 0.000000000000000000, 2.523945523394358403 ) ) ;
#343 = EDGE_CURVE ( 'NONE', #1100, #357, #900, .T. ) ;
#344 = VERTEX_POINT ( 'NONE', #239 ) ;
#345 = UNCERTAINTY_MEASURE_WITH_UNIT (LENGTH_MEASURE( 1.000000000000000082E-05 ), #804, 'distance_accuracy_value', 'NONE');
#346 = CARTESIAN_POINT ( 'NONE',  ( 5.703553390593273598, 0.8000000000000002665, -4.996446609406728356 ) ) ;
#347 = CARTESIAN_POINT ( 'NONE',  ( 2.734013799408195222, 0.3999999999999999667, -1.461221593272411301 ) ) ;
#348 = VERTEX_POINT ( 'NONE', #576 ) ;
#349 = VERTEX_POINT ( 'NONE', #912 ) ;
#350 = LINE ( 'NONE', #953, #534 ) ;
#351 = CARTESIAN_POINT ( 'NONE',  ( 0.000000000000000000, 8.076149824100303576, 5.349999999999999645 ) ) ;
#352 = CARTESIAN_POINT ( 'NONE',  ( 1.004908468896530849, 0.1702907425013798215, -6.097779282933676548 ) ) ;
#353 = DIRECTION ( 'NONE',  ( 1.500423087409463390E-16, -0.000000000000000000, 1.000000000000000000 ) ) ;
#354 = ORIENTED_EDGE ( 'NONE', *, *, #106, .T. ) ;
#355 = DIRECTION ( 'NONE',  ( 0.000000000000000000, 1.000000000000000000, 0.000000000000000000 ) ) ;
#356 = DIRECTION ( 'NONE',  ( 0.000000000000000000, -1.000000000000000000, 0.000000000000000000 ) ) ;
#357 = VERTEX_POINT ( 'NONE', #134 ) ;
#358 = VECTOR ( 'NONE', #309, 1000.000000000000000 ) ;
#359 = CARTESIAN_POINT ( 'NONE',  ( 0.7764056993371333260, 0.2444875088478699054, -6.333117851168434065 ) ) ;
#360 = DIRECTION ( 'NONE',  ( -0.000000000000000000, 1.000000000000000000, -0.000000000000000000 ) ) ;
#361 = ORIENTED_EDGE ( 'NONE', *, *, #813, .F. ) ;
#362 = DIRECTION ( 'NONE',  ( 0.000000000000000000, 0.000000000000000000, 1.000000000000000000 ) ) ;
#363 = CARTESIAN_POINT ( 'NONE',  ( 0.3441624487378450725, -0.3833411048128783083, -4.672544398239162788 ) ) ;
#364 = DIRECTION ( 'NONE',  ( 0.7071067811865474617, 0.000000000000000000, 0.7071067811865474617 ) ) ;
#365 = EDGE_CURVE ( 'NONE', #892, #395, #883, .T. ) ;
#366 = DIRECTION ( 'NONE',  ( 0.000000000000000000, 1.000000000000000000, 0.000000000000000000 ) ) ;
#367 = APPLICATION_CONTEXT ( 'automotive_design' ) ;
#368 = DIRECTION ( 'NONE',  ( 0.000000000000000000, 0.000000000000000000, 1.000000000000000000 ) ) ;
#369 = DIRECTION ( 'NONE',  ( 0.000000000000000000, -0.000000000000000000, 1.000000000000000000 ) ) ;
#370 = CARTESIAN_POINT ( 'NONE',  ( 3.441084116615656718, 0.1901112219734444608, -2.230380533450841529 ) ) ;
#371 = ORIENTED_EDGE ( 'NONE', *, *, #627, .T. ) ;
#372 = CARTESIAN_POINT ( 'NONE',  ( -1.249999999999999778, -0.1704508631754257653, -5.109384567060308413 ) ) ;
#373 = PRODUCT ( 'Å¦¿Ûµç³Ø²Ö', 'Å¦¿Ûµç³Ø²Ö', '', ( #1113 ) ) ;
#374 = CARTESIAN_POINT ( 'NONE',  ( -2.286973397463027612E-20, 0.3259259259259222885, 6.599999999999999645 ) ) ;
#375 = AXIS2_PLACEMENT_3D ( 'NONE', #700, #454, #882 ) ;
#376 = EDGE_CURVE ( 'NONE', #205, #12, #425, .T. ) ;
#377 = AXIS2_PLACEMENT_3D ( 'NONE', #301, #994, #387 ) ;
#378 = CARTESIAN_POINT ( 'NONE',  ( -2.523945523394357515, 0.000000000000000000, 3.231052304580904977 ) ) ;
#379 = ORIENTED_EDGE ( 'NONE', *, *, #89, .T. ) ;
#380 = ADVANCED_FACE ( 'NONE', ( #142, #216 ), #546, .T. ) ;
#381 = DIRECTION ( 'NONE',  ( -0.7071067811865474617, -0.000000000000000000, 0.7071067811865476838 ) ) ;
#382 = ORIENTED_EDGE ( 'NONE', *, *, #561, .T. ) ;
#383 = DIRECTION ( 'NONE',  ( -0.000000000000000000, -1.000000000000000000, -0.000000000000000000 ) ) ;
#384 = ADVANCED_FACE ( 'NONE', ( #893 ), #476, .F. ) ;
#385 = FACE_OUTER_BOUND ( 'NONE', #563, .T. ) ;
#386 = ORIENTED_EDGE ( 'NONE', *, *, #1054, .F. ) ;
#387 = DIRECTION ( 'NONE',  ( 0.000000000000000000, 0.000000000000000000, 1.000000000000000000 ) ) ;
#388 = AXIS2_PLACEMENT_3D ( 'NONE', #414, #52, #553 ) ;
#389 = CARTESIAN_POINT ( 'NONE',  ( 0.000000000000000000, -2.155634918610404682, -5.107557860366868319 ) ) ;
#390 = VECTOR ( 'NONE', #356, 1000.000000000000000 ) ;
#391 = VECTOR ( 'NONE', #1081, 1000.000000000000000 ) ;
#392 = CARTESIAN_POINT ( 'NONE',  ( -0.1671023966928876781, 0.3259259259259223995, -6.599999999999999645 ) ) ;
#393 = DIRECTION ( 'NONE',  ( 0.000000000000000000, -0.000000000000000000, 1.000000000000000000 ) ) ;
#394 = CARTESIAN_POINT ( 'NONE',  ( -1.004908468896530849, 0.1702907425013797937, 6.097779282933676548 ) ) ;
#395 = VERTEX_POINT ( 'NONE', #471 ) ;
#396 = DIRECTION ( 'NONE',  ( 0.000000000000000000, 0.000000000000000000, -1.000000000000000000 ) ) ;
#397 = CARTESIAN_POINT ( 'NONE',  ( 0.000000000000000000, 8.076149824100303576, -6.599999999999999645 ) ) ;
#398 = DIRECTION ( 'NONE',  ( 0.7071067811865474617, 0.000000000000000000, 0.7071067811865474617 ) ) ;
#399 = VERTEX_POINT ( 'NONE', #146 ) ;
#400 = DIRECTION ( 'NONE',  ( 0.000000000000000000, 0.000000000000000000, 1.000000000000000000 ) ) ;
#401 = EDGE_CURVE ( 'NONE', #262, #75, #744, .T. ) ;
#402 = LINE ( 'NONE', #978, #926 ) ;
#403 = FACE_OUTER_BOUND ( 'NONE', #191, .T. ) ;
#404 = CARTESIAN_POINT ( 'NONE',  ( 0.000000000000000000, 0.000000000000000000, 0.000000000000000000 ) ) ;
#405 = ORIENTED_EDGE ( 'NONE', *, *, #448, .F. ) ;
#406 = CARTESIAN_POINT ( 'NONE',  ( 2.516884155871666362, 0.000000000000000000, -1.809777374685120455 ) ) ;
#407 = CARTESIAN_POINT ( 'NONE',  ( 0.1502975698209910171, -0.4305341257900645036, 4.557557860366868496 ) ) ;
#408 = VECTOR ( 'NONE', #992, 1000.000000000000114 ) ;
#409 = ADVANCED_FACE ( 'NONE', ( #908 ), #817, .F. ) ;
#410 = VECTOR ( 'NONE', #259, 1000.000000000000000 ) ;
#411 = DIRECTION ( 'NONE',  ( 0.000000000000000000, 1.000000000000000000, 0.000000000000000000 ) ) ;
#412 = PLANE ( 'NONE',  #1022 ) ;
#413 = VERTEX_POINT ( 'NONE', #406 ) ;
#414 = CARTESIAN_POINT ( 'NONE',  ( 0.000000000000000000, 0.4000000000000001887, 0.000000000000000000 ) ) ;
#415 = CARTESIAN_POINT ( 'NONE',  ( 6.735557395310440051E-17, 4.400000000000000355, 4.557557860366868496 ) ) ;
#416 = EDGE_CURVE ( 'NONE', #470, #1119, #622, .T. ) ;
#417 = VERTEX_POINT ( 'NONE', #483 ) ;
#418 = FACE_OUTER_BOUND ( 'NONE', #699, .T. ) ;
#419 = ORIENTED_EDGE ( 'NONE', *, *, #1106, .F. ) ;
#420 = CARTESIAN_POINT ( 'NONE',  ( 1.722900467116648127, 0.7999999999999999334, -2.579353404340348543 ) ) ;
#421 = VERTEX_POINT ( 'NONE', #56 ) ;
#422 = EDGE_CURVE ( 'NONE', #779, #348, #718, .T. ) ;
#423 = DIRECTION ( 'NONE',  ( 0.000000000000000000, 0.000000000000000000, 1.000000000000000000 ) ) ;
#424 = ORIENTED_EDGE ( 'NONE', *, *, #48, .T. ) ;
#425 = CIRCLE ( 'NONE', #377, 4.099999999999999645 ) ;
#426 = DIRECTION ( 'NONE',  ( 0.000000000000000000, 0.000000000000000000, -1.000000000000000000 ) ) ;
#427 = AXIS2_PLACEMENT_3D ( 'NONE', #886, #628, #897 ) ;
#428 = DIRECTION ( 'NONE',  ( -0.7071067811865474617, -0.000000000000000000, 0.7071067811865476838 ) ) ;
#429 = VERTEX_POINT ( 'NONE', #501 ) ;
#430 = B_SPLINE_CURVE_WITH_KNOTS ( 'NONE', 3,
 ( #436, #185, #521, #600 ),
 .UNSPECIFIED., .F., .F.,
 ( 4, 4 ),
 ( 6.447129612864634281E-18, 0.001534661128580899932 ),
 .UNSPECIFIED. ) ;
#431 = DIRECTION ( 'NONE',  ( -0.000000000000000000, -1.000000000000000000, -0.000000000000000000 ) ) ;
#432 = ORIENTED_EDGE ( 'NONE', *, *, #51, .F. ) ;
#433 = ORIENTED_EDGE ( 'NONE', *, *, #862, .T. ) ;
#434 = ORIENTED_EDGE ( 'NONE', *, *, #561, .F. ) ;
#435 = DIRECTION ( 'NONE',  ( 1.500423087409463390E-16, 0.000000000000000000, -1.000000000000000000 ) ) ;
#436 = CARTESIAN_POINT ( 'NONE',  ( -1.250000000000000000, -0.5999999999999998668, 3.904804732633886388 ) ) ;
#437 = ORIENTED_EDGE ( 'NONE', *, *, #401, .F. ) ;
#438 = VERTEX_POINT ( 'NONE', #342 ) ;
#439 = CARTESIAN_POINT ( 'NONE',  ( -1.249999999999999778, -0.4291994433474441428, -4.386985089763099310 ) ) ;
#440 = EDGE_CURVE ( 'NONE', #421, #1119, #681, .T. ) ;
#441 = DIRECTION ( 'NONE',  ( -0.000000000000000000, -1.000000000000000000, -0.000000000000000000 ) ) ;
#442 = CARTESIAN_POINT ( 'NONE',  ( 7.039660860012800385E-14, -0.4305341257903532171, -4.557557860366174829 ) ) ;
#443 = CIRCLE ( 'NONE', #604, 4.099999999999999645 ) ;
#444 = AXIS2_PLACEMENT_3D ( 'NONE', #843, #360, #690 ) ;
#445 = CARTESIAN_POINT ( 'NONE',  ( 0.8389873766207797123, 0.2280334627921320190, -6.280230529795288064 ) ) ;
#446 = AXIS2_PLACEMENT_3D ( 'NONE', #905, #166, #562 ) ;
#447 = DIRECTION ( 'NONE',  ( -0.000000000000000000, -1.000000000000000000, -0.000000000000000000 ) ) ;
#448 = EDGE_CURVE ( 'NONE', #1065, #785, #949, .T. ) ;
#449 = CARTESIAN_POINT ( 'NONE',  ( 3.356963641814440624, 0.04304813818549245441, -2.355090726311185989 ) ) ;
#450 = CARTESIAN_POINT ( 'NONE',  ( 0.000000000000000000, 4.400000000000000355, 0.000000000000000000 ) ) ;
#451 = DIRECTION ( 'NONE',  ( 0.000000000000000000, 1.000000000000000000, 0.000000000000000000 ) ) ;
#452 = CARTESIAN_POINT ( 'NONE',  ( -0.4959014972518567266, -0.1157810547735997342, -5.385671901657376637 ) ) ;
#453 = EDGE_CURVE ( 'NONE', #785, #486, #430, .T. ) ;
#454 = DIRECTION ( 'NONE',  ( 0.000000000000000000, 1.000000000000000000, 0.000000000000000000 ) ) ;
#455 = DIRECTION ( 'NONE',  ( 0.000000000000000000, -1.000000000000000000, 0.000000000000000000 ) ) ;
#456 = SURFACE_STYLE_FILL_AREA ( #463 ) ;
#457 = CARTESIAN_POINT ( 'NONE',  ( -0.8389873766207797123, 0.2280334627921320190, 6.280230529795288064 ) ) ;
#458 = VECTOR ( 'NONE', #381, 1000.000000000000000 ) ;
#459 = ORIENTED_EDGE ( 'NONE', *, *, #537, .F. ) ;
#460 = PRODUCT_DEFINITION_FORMATION_WITH_SPECIFIED_SOURCE ( 'ÈÎºÎ', '', #373, .NOT_KNOWN. ) ;
#461 = AXIS2_PLACEMENT_3D ( 'NONE', #672, #820, #660 ) ;
#462 = CARTESIAN_POINT ( 'NONE',  ( 1.249999999999998446, 8.076149824100303576, 3.904804732633886832 ) ) ;
#463 = FILL_AREA_STYLE ('',( #114 ) ) ;
#464 = CARTESIAN_POINT ( 'NONE',  ( -0.4939564635124950032, -0.3218078753873992448, 4.826753542676624598 ) ) ;
#465 = ORIENTED_EDGE ( 'NONE', *, *, #548, .F. ) ;
#466 = CARTESIAN_POINT ( 'NONE',  ( 0.000000000000000000, 4.400000000000000355, 0.000000000000000000 ) ) ;
#467 = ADVANCED_FACE ( 'NONE', ( #859 ), #4, .T. ) ;
#468 = DIRECTION ( 'NONE',  ( -0.000000000000000000, -1.000000000000000000, -0.000000000000000000 ) ) ;
#469 = CARTESIAN_POINT ( 'NONE',  ( 1.250000000000149214, 0.03123139320745424788, 5.668592422790476704 ) ) ;
#470 = VERTEX_POINT ( 'NONE', #1015 ) ;
#471 = CARTESIAN_POINT ( 'NONE',  ( 1.809777374685118900, 0.8000000000000003775, -2.516884155871667250 ) ) ;
#472 = CARTESIAN_POINT ( 'NONE',  ( 4.996446609406725692, 0.8000000000000001554, -5.703553390593274486 ) ) ;
#473 = CARTESIAN_POINT ( 'NONE',  ( 0.000000000000000000, -0.5999999999999999778, 0.000000000000000000 ) ) ;
#474 = CARTESIAN_POINT ( 'NONE',  ( -0.5505447766954552069, -0.1652316941292937269, 5.245079571675963059 ) ) ;
#475 = VERTEX_POINT ( 'NONE', #80 ) ;
#476 = PLANE ( 'NONE',  #725 ) ;
#477 = CIRCLE ( 'NONE', #1072, 0.5500000000000001554 ) ;
#478 =( GEOMETRIC_REPRESENTATION_CONTEXT ( 3 ) GLOBAL_UNCERTAINTY_ASSIGNED_CONTEXT ( ( #1097 ) ) GLOBAL_UNIT_ASSIGNED_CONTEXT ( ( #955, #509, #83 ) ) REPRESENTATION_CONTEXT ( 'NONE', 'WORKASPACE' ) );
#479 = CARTESIAN_POINT ( 'NONE',  ( -2.712977491564358967, 0.6098517994881633708, 1.501894533997804926 ) ) ;
#480 = B_SPLINE_CURVE_WITH_KNOTS ( 'NONE', 3,
 ( #818, #392, #1084, #736, #207, #224, #1067, #143 ),
 .UNSPECIFIED., .F., .F.,
 ( 4, 2, 2, 4 ),
 ( 0.002007236389884528658, 0.002508112847273580998, 0.003008989304662632903, 0.004010742219440737583 ),
 .UNSPECIFIED. ) ;
#481 = ORIENTED_EDGE ( 'NONE', *, *, #329, .F. ) ;
#482 = ADVANCED_FACE ( 'NONE', ( #418 ), #583, .F. ) ;
#483 = CARTESIAN_POINT ( 'NONE',  ( -1.809777374685117346, 0.000000000000000000, 2.516884155871665030 ) ) ;
#484 = DIRECTION ( 'NONE',  ( 0.000000000000000000, 0.000000000000000000, 1.000000000000000000 ) ) ;
#485 = CARTESIAN_POINT ( 'NONE',  ( 5.703553390593273598, 0.8000000000000002665, -4.996446609406728356 ) ) ;
#486 = VERTEX_POINT ( 'NONE', #941 ) ;
#487 = DIRECTION ( 'NONE',  ( -0.000000000000000000, -1.000000000000000000, -0.000000000000000000 ) ) ;
#488 = EDGE_CURVE ( 'NONE', #763, #429, #781, .T. ) ;
#489 = CARTESIAN_POINT ( 'NONE',  ( 2.579398507917008310, -1.600892270310627148E-16, -1.722837740905647896 ) ) ;
#490 = LINE ( 'NONE', #230, #408 ) ;
#491 = FACE_BOUND ( 'NONE', #669, .T. ) ;
#492 = VERTEX_POINT ( 'NONE', #761 ) ;
#493 = CARTESIAN_POINT ( 'NONE',  ( 0.000000000000000000, 4.400000000000000355, -4.557557860366868496 ) ) ;
#494 = EDGE_CURVE ( 'NONE', #348, #535, #1028, .T. ) ;
#495 = CONICAL_SURFACE ( 'NONE', #678, 6.800000000000006928, 1.216090674783951053 ) ;
#496 = CARTESIAN_POINT ( 'NONE',  ( 1.249999999999999778, -0.2569682192707078427, 4.868674176892942462 ) ) ;
#497 = PRESENTATION_LAYER_ASSIGNMENT (  '', '', ( #980 ) ) ;
#498 = CARTESIAN_POINT ( 'NONE',  ( 1.634356561057355828, 0.7572725762315474229, -2.635279908930072690 ) ) ;
#499 = DIRECTION ( 'NONE',  ( -0.7071067811865474617, -0.000000000000000000, 0.7071067811865476838 ) ) ;
#500 = ORIENTED_EDGE ( 'NONE', *, *, #568, .F. ) ;
#501 = CARTESIAN_POINT ( 'NONE',  ( 1.249999999999998446, -0.5999999999999998668, 3.904804732633886832 ) ) ;
#502 = VERTEX_POINT ( 'NONE', #1118 ) ;
#503 = EDGE_CURVE ( 'NONE', #1017, #892, #28, .T. ) ;
#504 = CARTESIAN_POINT ( 'NONE',  ( 2.355192943021798602, 0.7570065411300739289, -3.356891740331878982 ) ) ;
#505 = ORIENTED_EDGE ( 'NONE', *, *, #422, .T. ) ;
#506 = EDGE_LOOP ( 'NONE', ( #505, #196, #419, #825 ) ) ;
#507 = DIRECTION ( 'NONE',  ( 0.000000000000000000, 0.000000000000000000, 1.000000000000000000 ) ) ;
#508 = EDGE_LOOP ( 'NONE', ( #71, #371, #382, #742 ) ) ;
#509 =( NAMED_UNIT ( * ) PLANE_ANGLE_UNIT ( ) SI_UNIT ( $, .RADIAN. ) );
#510 = ORIENTED_EDGE ( 'NONE', *, *, #1058, .F. ) ;
#511 = CIRCLE ( 'NONE', #13, 0.5500000000000001554 ) ;
#512 = AXIS2_PLACEMENT_3D ( 'NONE', #1071, #447, #635 ) ;
#513 = CARTESIAN_POINT ( 'NONE',  ( 1.501894533997804038, 0.1901482005118355079, -2.712977491564359411 ) ) ;
#514 = ORIENTED_EDGE ( 'NONE', *, *, #294, .F. ) ;
#515 = CIRCLE ( 'NONE', #850, 3.100000000000000089 ) ;
#516 = AXIS2_PLACEMENT_3D ( 'NONE', #603, #95, #957 ) ;
#517 = ORIENTED_EDGE ( 'NONE', *, *, #238, .F. ) ;
#518 = SURFACE_SIDE_STYLE ('',( #180 ) ) ;
#519 = EDGE_LOOP ( 'NONE', ( #558, #184, #361, #93, #860 ) ) ;
#520 = CARTESIAN_POINT ( 'NONE',  ( 0.000000000000000000, 4.400000000000000355, 0.000000000000000000 ) ) ;
#521 = CARTESIAN_POINT ( 'NONE',  ( -1.249999999999999778, -0.2572242880210444116, 4.868786401844605649 ) ) ;
#522 = VERTEX_POINT ( 'NONE', #442 ) ;
#523 = ADVANCED_FACE ( 'NONE', ( #111 ), #791, .F. ) ;
#524 = ORIENTED_EDGE ( 'NONE', *, *, #969, .T. ) ;
#525 = DIRECTION ( 'NONE',  ( -0.000000000000000000, 1.000000000000000000, -0.000000000000000000 ) ) ;
#526 = CARTESIAN_POINT ( 'NONE',  ( 0.2842704147605191189, -0.4003020277680102157, -4.630945177005800772 ) ) ;
#527 = EDGE_LOOP ( 'NONE', ( #552, #755, #940, #465, #821, #837, #169, #726, #437, #716 ) ) ;
#528 = CARTESIAN_POINT ( 'NONE',  ( 2.523945523394356627, 0.8000000000000003775, -3.231052304580905421 ) ) ;
#529 = CYLINDRICAL_SURFACE ( 'NONE', #516, 0.5500000000000001554 ) ;
#530 = EDGE_CURVE ( 'NONE', #492, #1082, #24, .T. ) ;
#531 = DIRECTION ( 'NONE',  ( -0.7071067811865474617, -0.000000000000000000, 0.7071067811865476838 ) ) ;
#532 = DIRECTION ( 'NONE',  ( 0.000000000000000000, -1.000000000000000000, -0.000000000000000000 ) ) ;
#533 = ORIENTED_EDGE ( 'NONE', *, *, #106, .F. ) ;
#534 = VECTOR ( 'NONE', #435, 1000.000000000000000 ) ;
#535 = VERTEX_POINT ( 'NONE', #1051 ) ;
#536 = PLANE ( 'NONE',  #375 ) ;
#537 = EDGE_CURVE ( 'NONE', #869, #673, #278, .T. ) ;
#538 = CARTESIAN_POINT ( 'NONE',  ( -0.1485748937057100594, -0.4305341257900793805, -4.557557860366834745 ) ) ;
#539 = DIRECTION ( 'NONE',  ( -0.000000000000000000, -1.000000000000000000, -0.000000000000000000 ) ) ;
#540 = CARTESIAN_POINT ( 'NONE',  ( 3.296608250113163940, -1.410309857178409572E-16, -2.440023470827187513 ) ) ;
#541 = CARTESIAN_POINT ( 'NONE',  ( -2.286973397463027612E-20, 0.3259259259259222885, 6.599999999999999645 ) ) ;
#542 = ORIENTED_EDGE ( 'NONE', *, *, #503, .T. ) ;
#543 = DIRECTION ( 'NONE',  ( 0.000000000000000000, 0.000000000000000000, 1.000000000000000000 ) ) ;
#544 = CARTESIAN_POINT ( 'NONE',  ( -2.192031021665569401, 0.4000000000005500822, 3.464823227822134477 ) ) ;
#545 = CARTESIAN_POINT ( 'NONE',  ( -0.1502360518276756318, -0.02312671838265047825, -5.657557860366868141 ) ) ;
#546 = CONICAL_SURFACE ( 'NONE', #388, 6.800000000000006928, 1.216090674783951053 ) ;
#547 = ORIENTED_EDGE ( 'NONE', *, *, #178, .T. ) ;
#548 = EDGE_CURVE ( 'NONE', #1117, #438, #297, .T. ) ;
#549 = AXIS2_PLACEMENT_3D ( 'NONE', #987, #107, #792 ) ;
#550 = DIRECTION ( 'NONE',  ( 0.000000000000000000, 0.000000000000000000, -1.000000000000000000 ) ) ;
#551 = CARTESIAN_POINT ( 'NONE',  ( -0.2944684095634560461, -0.4037447768658404268, -4.621411684683588206 ) ) ;
#552 = ORIENTED_EDGE ( 'NONE', *, *, #171, .T. ) ;
#553 = DIRECTION ( 'NONE',  ( 0.000000000000000000, 0.000000000000000000, 1.000000000000000000 ) ) ;
#554 = EDGE_CURVE ( 'NONE', #75, #502, #921, .T. ) ;
#555 = CYLINDRICAL_SURFACE ( 'NONE', #159, 3.100000000000000089 ) ;
#556 = CARTESIAN_POINT ( 'NONE',  ( -2.733954256757170853, 0.2940108050251984406, 1.461333000327885712 ) ) ;
#557 = CARTESIAN_POINT ( 'NONE',  ( -0.2947942276663207961, -0.04413511883413526182, 5.594118955752513500 ) ) ;
#558 = ORIENTED_EDGE ( 'NONE', *, *, #641, .F. ) ;
#559 = CARTESIAN_POINT ( 'NONE',  ( -3.441589804509950667, 0.6089599776972256517, 2.229628086555741628 ) ) ;
#560 = CARTESIAN_POINT ( 'NONE',  ( 2.516884155871666362, 0.000000000000000000, -1.809777374685120455 ) ) ;
#561 = EDGE_CURVE ( 'NONE', #570, #1082, #480, .T. ) ;
#562 = DIRECTION ( 'NONE',  ( 0.000000000000000000, 0.000000000000000000, -1.000000000000000000 ) ) ;
#563 = EDGE_LOOP ( 'NONE', ( #215, #1103, #405, #1049 ) ) ;
#564 = DIRECTION ( 'NONE',  ( 1.000000000000000000, 0.000000000000000000, -1.500423087409463390E-16 ) ) ;
#565 = VECTOR ( 'NONE', #66, 1000.000000000000000 ) ;
#566 = VECTOR ( 'NONE', #999, 1000.000000000000000 ) ;
#567 = DIRECTION ( 'NONE',  ( -0.000000000000000000, 1.000000000000000000, -0.000000000000000000 ) ) ;
#568 = EDGE_CURVE ( 'NONE', #205, #892, #643, .T. ) ;
#569 = CARTESIAN_POINT ( 'NONE',  ( -2.277962043095299356E-13, -0.02312671838195679702, 5.657557860368942038 ) ) ;
#570 = VERTEX_POINT ( 'NONE', #806 ) ;
#571 = CARTESIAN_POINT ( 'NONE',  ( -1.634225770436258385, 0.7572061984281692748, 2.635361342959056774 ) ) ;
#572 = CARTESIAN_POINT ( 'NONE',  ( 2.734013799408195222, 0.3999999999999999667, -1.461221593272411301 ) ) ;
#573 = LINE ( 'NONE', #1011, #391 ) ;
#574 = DIRECTION ( 'NONE',  ( -0.000000000000000000, 1.000000000000000000, -0.000000000000000000 ) ) ;
#575 = ORIENTED_EDGE ( 'NONE', *, *, #223, .F. ) ;
#576 = CARTESIAN_POINT ( 'NONE',  ( -1.461221593272409747, 0.3999999999999999667, 2.734013799408195666 ) ) ;
#577 = EDGE_LOOP ( 'NONE', ( #932, #163, #697, #768 ) ) ;
#578 = LINE ( 'NONE', #154, #299 ) ;
#579 = CARTESIAN_POINT ( 'NONE',  ( 1.249999999999998446, -0.4298319872811644515, -4.387225757443249385 ) ) ;
#580 = DIRECTION ( 'NONE',  ( 0.000000000000000000, -1.000000000000000000, 0.000000000000000000 ) ) ;
#581 = CARTESIAN_POINT ( 'NONE',  ( 3.441507339707845059, 0.6091767822606282135, -2.229754816689883068 ) ) ;
#582 = ORIENTED_EDGE ( 'NONE', *, *, #171, .F. ) ;
#583 = CYLINDRICAL_SURFACE ( 'NONE', #709, 0.4000000000000005773 ) ;
#584 = FACE_OUTER_BOUND ( 'NONE', #209, .T. ) ;
#585 = ADVANCED_FACE ( 'NONE', ( #651 ), #823, .F. ) ;
#586 = ORIENTED_EDGE ( 'NONE', *, *, #1068, .T. ) ;
#587 = AXIS2_PLACEMENT_3D ( 'NONE', #1078, #324, #396 ) ;
#588 = AXIS2_PLACEMENT_3D ( 'NONE', #923, #431, #426 ) ;
#589 = CIRCLE ( 'NONE', #870, 3.100000000000000089 ) ;
#590 = CARTESIAN_POINT ( 'NONE',  ( -1.809777374685117346, 0.000000000000000000, 2.516884155871665030 ) ) ;
#591 = ORIENTED_EDGE ( 'NONE', *, *, #274, .T. ) ;
#592 = DIRECTION ( 'NONE',  ( 0.000000000000000000, -1.000000000000000000, 0.000000000000000000 ) ) ;
#593 = CARTESIAN_POINT ( 'NONE',  ( 2.230499446147283571, 0.6100947463470458576, -3.441006854963344797 ) ) ;
#594 = EDGE_LOOP ( 'NONE', ( #629, #77, #547, #1034, #856 ) ) ;
#595 = DIRECTION ( 'NONE',  ( -0.7071067811865474617, -0.000000000000000000, 0.7071067811865476838 ) ) ;
#596 = APPLICATION_PROTOCOL_DEFINITION ( 'draft international standard', 'automotive_design', 1998, #129 ) ;
#597 = ORIENTED_EDGE ( 'NONE', *, *, #343, .T. ) ;
#598 = ORIENTED_EDGE ( 'NONE', *, *, #840, .F. ) ;
#599 = CARTESIAN_POINT ( 'NONE',  ( 0.000000000000000000, -0.5999999999999998668, 0.000000000000000000 ) ) ;
#600 = CARTESIAN_POINT ( 'NONE',  ( -1.249999999999999778, -0.08367121060338933436, 5.349999999999999645 ) ) ;
#601 = ORIENTED_EDGE ( 'NONE', *, *, #178, .F. ) ;
#602 = ORIENTED_EDGE ( 'NONE', *, *, #834, .T. ) ;
#603 = CARTESIAN_POINT ( 'NONE',  ( 0.000000000000000000, -2.155634918610404682, 5.107557860366868319 ) ) ;
#604 = AXIS2_PLACEMENT_3D ( 'NONE', #263, #610, #368 ) ;
#605 = AXIS2_PLACEMENT_3D ( 'NONE', #688, #722, #9 ) ;
#606 = CARTESIAN_POINT ( 'NONE',  ( 0.1503483202006670461, -0.02312671838265048518, -5.657557860366869029 ) ) ;
#607 = EDGE_CURVE ( 'NONE', #338, #306, #402, .T. ) ;
#608 = VERTEX_POINT ( 'NONE', #902 ) ;
#609 = ORIENTED_EDGE ( 'NONE', *, *, #123, .T. ) ;
#610 = DIRECTION ( 'NONE',  ( 0.000000000000000000, 1.000000000000000000, 0.000000000000000000 ) ) ;
#611 = CARTESIAN_POINT ( 'NONE',  ( 0.5492951001401371602, -0.2683933188105641632, -4.965066042595627671 ) ) ;
#612 = ORIENTED_EDGE ( 'NONE', *, *, #1007, .F. ) ;
#613 = EDGE_CURVE ( 'NONE', #779, #1014, #811, .T. ) ;
#614 = ORIENTED_EDGE ( 'NONE', *, *, #365, .T. ) ;
#615 = CARTESIAN_POINT ( 'NONE',  ( 1.249999999999999778, -0.08367121060338933436, -5.349999999999999645 ) ) ;
#616 = CARTESIAN_POINT ( 'NONE',  ( 1.249999999999998446, 4.400000000000000355, 3.904804732633886832 ) ) ;
#617 = CARTESIAN_POINT ( 'NONE',  ( 1.249999999999999778, 8.076149824100303576, -5.349999999999999645 ) ) ;
#618 = B_SPLINE_CURVE_WITH_KNOTS ( 'NONE', 3,
 ( #261, #1030, #762, #778, #252, #275 ),
 .UNSPECIFIED., .F., .F.,
 ( 4, 2, 4 ),
 ( 0.000000000000000000, 0.0003149053497504811618, 0.0006298106995009623236 ),
 .UNSPECIFIED. ) ;
#619 = CARTESIAN_POINT ( 'NONE',  ( 2.286973397463027612E-20, 0.3259259259259222885, -6.599999999999999645 ) ) ;
#620 = EDGE_CURVE ( 'NONE', #349, #852, #810, .T. ) ;
#621 = CARTESIAN_POINT ( 'NONE',  ( -1.250000000000000000, -0.5999999999999998668, -3.904804732633886388 ) ) ;
#622 = CIRCLE ( 'NONE', #657, 4.099999999999999645 ) ;
#623 = CARTESIAN_POINT ( 'NONE',  ( -0.6402517174879230888, 0.2733921659373068636, 6.426756359397512774 ) ) ;
#624 = CIRCLE ( 'NONE', #319, 3.100000000000000089 ) ;
#625 = CARTESIAN_POINT ( 'NONE',  ( -1.249999999999999778, -0.02612978891603247311, 5.509546088062237779 ) ) ;
#626 = LINE ( 'NONE', #462, #1060 ) ;
#627 = EDGE_CURVE ( 'NONE', #399, #570, #53, .T. ) ;
#628 = DIRECTION ( 'NONE',  ( -0.000000000000000000, -1.000000000000000000, -0.000000000000000000 ) ) ;
#629 = ORIENTED_EDGE ( 'NONE', *, *, #401, .T. ) ;
#630 = CARTESIAN_POINT ( 'NONE',  ( 0.000000000000000000, 4.400000000000000355, 0.000000000000000000 ) ) ;
#631 = AXIS2_PLACEMENT_3D ( 'NONE', #152, #221, #400 ) ;
#632 = ORIENTED_EDGE ( 'NONE', *, *, #1058, .T. ) ;
#633 = EDGE_CURVE ( 'NONE', #1082, #1119, #1088, .T. ) ;
#634 = VECTOR ( 'NONE', #190, 1000.000000000000000 ) ;
#635 = DIRECTION ( 'NONE',  ( 0.000000000000000000, 0.000000000000000000, -1.000000000000000000 ) ) ;
#636 = CARTESIAN_POINT ( 'NONE',  ( -2.635033077079323771, 0.7578672996302407983, 1.634788898813910984 ) ) ;
#637 = FACE_OUTER_BOUND ( 'NONE', #1008, .T. ) ;
#638 = FACE_BOUND ( 'NONE', #777, .T. ) ;
#639 = ORIENTED_EDGE ( 'NONE', *, *, #984, .T. ) ;
#640 = DIRECTION ( 'NONE',  ( -1.500423087409463390E-16, 0.000000000000000000, 1.000000000000000000 ) ) ;
#641 = EDGE_CURVE ( 'NONE', #429, #470, #443, .T. ) ;
#642 = ADVANCED_FACE ( 'NONE', ( #193 ), #529, .F. ) ;
#643 = LINE ( 'NONE', #485, #101 ) ;
#644 = PLANE ( 'NONE',  #156 ) ;
#645 = B_SPLINE_CURVE_WITH_KNOTS ( 'NONE', 3,
 ( #374, #35, #874, #125, #132, #712, #469, #42 ),
 .UNSPECIFIED., .F., .F.,
 ( 4, 2, 2, 4 ),
 ( 0.002007236389884528658, 0.002508112847273580998, 0.003008989304662632903, 0.004010742219440737583 ),
 .UNSPECIFIED. ) ;
#646 = FACE_OUTER_BOUND ( 'NONE', #508, .T. ) ;
#647 = EDGE_LOOP ( 'NONE', ( #898, #524 ) ) ;
#648 = CARTESIAN_POINT ( 'NONE',  ( -3.464769546780176679, 0.2946269049068486745, 2.192115872336780402 ) ) ;
#649 = CARTESIAN_POINT ( 'NONE',  ( 1.249999999999999778, 8.076149824100303576, 5.349999999999999645 ) ) ;
#650 = EDGE_CURVE ( 'NONE', #522, #336, #952, .T. ) ;
#651 = FACE_OUTER_BOUND ( 'NONE', #654, .T. ) ;
#652 = DIRECTION ( 'NONE',  ( 0.000000000000000000, 0.000000000000000000, 1.000000000000000000 ) ) ;
#653 = CARTESIAN_POINT ( 'NONE',  ( 4.996446609406726580, 0.000000000000000000, -5.703553390593274486 ) ) ;
#654 = EDGE_LOOP ( 'NONE', ( #533, #86, #323, #341 ) ) ;
#655 = CARTESIAN_POINT ( 'NONE',  ( -3.356550809365208110, 0.7577182793912560221, 2.355705510248431001 ) ) ;
#656 = AXIS2_PLACEMENT_3D ( 'NONE', #109, #366, #703 ) ;
#657 = AXIS2_PLACEMENT_3D ( 'NONE', #1094, #734, #1083 ) ;
#658 = CARTESIAN_POINT ( 'NONE',  ( 1.249999999999999778, -0.08367121060338882088, 5.349999999999999645 ) ) ;
#659 = CARTESIAN_POINT ( 'NONE',  ( -1.461221593272410857, 0.2945398242599633343, 2.734013799408195222 ) ) ;
#660 = DIRECTION ( 'NONE',  ( 0.000000000000000000, 0.000000000000000000, 1.000000000000000000 ) ) ;
#661 = ORIENTED_EDGE ( 'NONE', *, *, #997, .F. ) ;
#662 = CARTESIAN_POINT ( 'NONE',  ( 0.000000000000000000, 0.8000000000000003775, 0.000000000000000000 ) ) ;
#663 = VERTEX_POINT ( 'NONE', #946 ) ;
#664 = CARTESIAN_POINT ( 'NONE',  ( 2.734013799408195222, 0.3999999999999999667, -1.461221593272411301 ) ) ;
#665 = CARTESIAN_POINT ( 'NONE',  ( 3.231052304580904089, 0.8000000000000003775, -2.523945523394358403 ) ) ;
#666 = CARTESIAN_POINT ( 'NONE',  ( 2.355705510248430112, 0.04228172060874305083, -3.356550809365208554 ) ) ;
#667 = ORIENTED_EDGE ( 'NONE', *, *, #530, .T. ) ;
#668 = DIRECTION ( 'NONE',  ( 0.000000000000000000, 0.000000000000000000, -1.000000000000000000 ) ) ;
#669 = EDGE_LOOP ( 'NONE', ( #808, #935 ) ) ;
#670 = CARTESIAN_POINT ( 'NONE',  ( 1.249999999999999778, -0.3430867941843477875, 4.627821346882327269 ) ) ;
#671 = CARTESIAN_POINT ( 'NONE',  ( 1.461110667807306918, 0.2949251690761505729, -2.734073084668301679 ) ) ;
#672 = CARTESIAN_POINT ( 'NONE',  ( 0.000000000000000000, 0.000000000000000000, 0.000000000000000000 ) ) ;
#673 = VERTEX_POINT ( 'NONE', #615 ) ;
#674 = CARTESIAN_POINT ( 'NONE',  ( -1.461221593272410635, 0.5056125728975557898, 2.734013799408195666 ) ) ;
#675 = EDGE_CURVE ( 'NONE', #421, #1065, #33, .T. ) ;
#676 = FILL_AREA_STYLE ('',( #1023 ) ) ;
#677 = EDGE_LOOP ( 'NONE', ( #330, #1047, #803, #173 ) ) ;
#678 = AXIS2_PLACEMENT_3D ( 'NONE', #298, #218, #774 ) ;
#679 = CARTESIAN_POINT ( 'NONE',  ( 0.000000000000000000, -0.5999999999999998668, 4.099999999999999645 ) ) ;
#680 = EDGE_LOOP ( 'NONE', ( #141, #39, #925, #434, #43 ) ) ;
#681 = LINE ( 'NONE', #853, #64 ) ;
#682 = CARTESIAN_POINT ( 'NONE',  ( 2.192115872336777738, 0.5053730950931508703, -3.464769546780175347 ) ) ;
#683 = CARTESIAN_POINT ( 'NONE',  ( 2.734013799408195222, 0.5054601757400365436, -1.461221593272411301 ) ) ;
#684 = VERTEX_POINT ( 'NONE', #103 ) ;
#685 = ORIENTED_EDGE ( 'NONE', *, *, #650, .F. ) ;
#686 = ADVANCED_FACE ( 'NONE', ( #875 ), #780, .F. ) ;
#687 = PRODUCT_DEFINITION_CONTEXT ( 'detailed design', #367, 'design' ) ;
#688 = CARTESIAN_POINT ( 'NONE',  ( 0.000000000000000000, 8.076149824100303576, -5.349999999999999645 ) ) ;
#689 = CARTESIAN_POINT ( 'NONE',  ( 0.6402517174879230888, 0.2733921659373068636, -6.426756359397512774 ) ) ;
#690 = DIRECTION ( 'NONE',  ( 0.000000000000000000, 0.000000000000000000, 1.000000000000000000 ) ) ;
#691 = ORIENTED_EDGE ( 'NONE', *, *, #607, .F. ) ;
#692 = VECTOR ( 'NONE', #592, 1000.000000000000000 ) ;
#693 = CARTESIAN_POINT ( 'NONE',  ( 0.5506911770351241575, -0.1654190673936659639, -5.244555132987112067 ) ) ;
#694 = EDGE_CURVE ( 'NONE', #336, #1035, #511, .T. ) ;
#695 = CARTESIAN_POINT ( 'NONE',  ( 2.634955601299998396, 0.7579244527289928923, -1.634912790111569869 ) ) ;
#696 = EDGE_CURVE ( 'NONE', #399, #869, #29, .T. ) ;
#697 = ORIENTED_EDGE ( 'NONE', *, *, #537, .T. ) ;
#698 = CARTESIAN_POINT ( 'NONE',  ( -1.250000000000000000, -0.5999999999999998668, -3.904804732633886388 ) ) ;
#699 = EDGE_LOOP ( 'NONE', ( #311, #1044, #944, #481 ) ) ;
#700 = CARTESIAN_POINT ( 'NONE',  ( 5.703553390593273598, 0.8000000000000002665, -4.996446609406728356 ) ) ;
#701 = CARTESIAN_POINT ( 'NONE',  ( 7.039660860012800385E-14, -0.4305341257903532171, -4.557557860366174829 ) ) ;
#702 = CARTESIAN_POINT ( 'NONE',  ( -1.249999999999999778, 8.076149824100303576, -5.349999999999999645 ) ) ;
#703 = DIRECTION ( 'NONE',  ( 0.000000000000000000, 0.000000000000000000, 1.000000000000000000 ) ) ;
#704 = ADVANCED_FACE ( 'NONE', ( #7 ), #790, .T. ) ;
#705 = CARTESIAN_POINT ( 'NONE',  ( 0.000000000000000000, 4.400000000000000355, 0.000000000000000000 ) ) ;
#706 = FACE_OUTER_BOUND ( 'NONE', #677, .T. ) ;
#707 = DIRECTION ( 'NONE',  ( 0.000000000000000000, 1.000000000000000000, 0.000000000000000000 ) ) ;
#708 = B_SPLINE_CURVE_WITH_KNOTS ( 'NONE', 3,
 ( #1006, #749, #504, #593, #682, #753, #1032, #666, #1012, #934 ),
 .UNSPECIFIED., .F., .F.,
 ( 4, 2, 2, 2, 4 ),
 ( 1.245653460271121909E-18, 0.0003147192678884198143, 0.0006294385357768383276, 0.0009441578036652567866, 0.001258877071553675354 ),
 .UNSPECIFIED. ) ;
#709 = AXIS2_PLACEMENT_3D ( 'NONE', #72, #595, #756 ) ;
#710 = CARTESIAN_POINT ( 'NONE',  ( 3.464823227822134033, 0.3999999999994498512, -2.192031021665571622 ) ) ;
#711 = AXIS2_PLACEMENT_3D ( 'NONE', #649, #913, #995 ) ;
#712 = CARTESIAN_POINT ( 'NONE',  ( 1.126474843340105503, 0.1348577310616407843, 5.984654755256501701 ) ) ;
#713 = CARTESIAN_POINT ( 'NONE',  ( -2.192031021678361391, 0.2950572271693160387, 3.464823227814115558 ) ) ;
#714 = EDGE_CURVE ( 'NONE', #306, #413, #1091, .T. ) ;
#715 = CYLINDRICAL_SURFACE ( 'NONE', #427, 4.099999999999999645 ) ;
#716 = ORIENTED_EDGE ( 'NONE', *, *, #164, .T. ) ;
#717 = CARTESIAN_POINT ( 'NONE',  ( 5.703553390593272709, 0.3999999999999999667, -4.996446609406728356 ) ) ;
#718 = B_SPLINE_CURVE_WITH_KNOTS ( 'NONE', 3,
 ( #1087, #234, #571, #770, #674, #250 ),
 .UNSPECIFIED., .F., .F.,
 ( 4, 2, 4 ),
 ( 2.168404344971008868E-19, 0.0003166233743007916763, 0.0006332467486015831357 ),
 .UNSPECIFIED. ) ;
#719 = CARTESIAN_POINT ( 'NONE',  ( -2.579353404340346323, -1.562775787684183633E-16, 1.722900467116647016 ) ) ;
#720 = ADVANCED_FACE ( 'NONE', ( #198 ), #536, .F. ) ;
#721 = ORIENTED_EDGE ( 'NONE', *, *, #274, .F. ) ;
#722 = DIRECTION ( 'NONE',  ( 0.000000000000000000, -1.000000000000000000, 0.000000000000000000 ) ) ;
#723 = CARTESIAN_POINT ( 'NONE',  ( -2.712491994235325610, 0.1891006432704203377, 1.502733758285539345 ) ) ;
#724 = CARTESIAN_POINT ( 'NONE',  ( -1.092733320620500326, 0.1264405323915501200, 5.962330610741015668 ) ) ;
#725 = AXIS2_PLACEMENT_3D ( 'NONE', #44, #564, #127 ) ;
#726 = ORIENTED_EDGE ( 'NONE', *, *, #1068, .F. ) ;
#727 = EDGE_CURVE ( 'NONE', #852, #663, #800, .T. ) ;
#728 = CIRCLE ( 'NONE', #962, 4.099999999999999645 ) ;
#729 = CARTESIAN_POINT ( 'NONE',  ( 0.000000000000000000, 4.400000000000000355, -5.349999999999999645 ) ) ;
#730 = CARTESIAN_POINT ( 'NONE',  ( 0.000000000000000000, 0.8000000000000003775, 0.000000000000000000 ) ) ;
#731 = DIRECTION ( 'NONE',  ( -1.500423087409463390E-16, 0.000000000000000000, -1.000000000000000000 ) ) ;
#732 = ORIENTED_EDGE ( 'NONE', *, *, #245, .T. ) ;
#733 = B_SPLINE_CURVE_WITH_KNOTS ( 'NONE', 3,
 ( #658, #317, #496, #670, #896, #139, #1005 ),
 .UNSPECIFIED., .F., .F.,
 ( 4, 3, 4 ),
 ( -0.0007673574339846964652, 0.000000000000000000, 0.0007673052976499995098 ),
 .UNSPECIFIED. ) ;
#734 = DIRECTION ( 'NONE',  ( 0.000000000000000000, 1.000000000000000000, 0.000000000000000000 ) ) ;
#735 = EDGE_CURVE ( 'NONE', #535, #1117, #325, .T. ) ;
#736 = CARTESIAN_POINT ( 'NONE',  ( -0.6423679973167378821, 0.2760189040205682787, -6.435196926841582510 ) ) ;
#737 = LINE ( 'NONE', #653, #566 ) ;
#738 = ORIENTED_EDGE ( 'NONE', *, *, #48, .F. ) ;
#739 = CARTESIAN_POINT ( 'NONE',  ( 0.000000000000000000, 0.000000000000000000, 0.000000000000000000 ) ) ;
#740 = PRODUCT_DEFINITION ( 'Î´Öª', '', #460, #687 ) ;
#741 = B_SPLINE_CURVE_WITH_KNOTS ( 'NONE', 3,
 ( #1064, #974, #121, #464, #219, #474, #802, #557, #814, #49 ),
 .UNSPECIFIED., .F., .F.,
 ( 4, 2, 2, 2, 4 ),
 ( 1.063117390899240250E-19, 0.0004444724264599363844, 0.0008889448529198726605, 0.001333417279379808720, 0.001777889705839745104 ),
 .UNSPECIFIED. ) ;
#742 = ORIENTED_EDGE ( 'NONE', *, *, #530, .F. ) ;
#743 = DIRECTION ( 'NONE',  ( -1.000000000000000000, 0.000000000000000000, -1.500423087409463390E-16 ) ) ;
#744 = CIRCLE ( 'NONE', #177, 4.099999999999999645 ) ;
#745 = CARTESIAN_POINT ( 'NONE',  ( 0.5492944612309277330, -0.2684600823658165880, 4.964884806917575943 ) ) ;
#746 = AXIS2_PLACEMENT_3D ( 'NONE', #450, #981, #970 ) ;
#747 = CARTESIAN_POINT ( 'NONE',  ( 0.000000000000000000, 0.4000000000000001887, 6.800000000000006928 ) ) ;
#748 = EDGE_CURVE ( 'NONE', #880, #429, #626, .T. ) ;
#749 = CARTESIAN_POINT ( 'NONE',  ( 2.440073061511568220, 0.8000000000000001554, -3.296569512211686259 ) ) ;
#750 = ORIENTED_EDGE ( 'NONE', *, *, #840, .T. ) ;
#751 = CARTESIAN_POINT ( 'NONE',  ( -3.464876718743813200, 0.5046280843719468390, 2.191946471507289385 ) ) ;
#752 = ORIENTED_EDGE ( 'NONE', *, *, #258, .F. ) ;
#753 = CARTESIAN_POINT ( 'NONE',  ( 2.191946471507287164, 0.2953719156280525948, -3.464876718743811423 ) ) ;
#754 = ADVANCED_FACE ( 'NONE', ( #175 ), #254, .F. ) ;
#755 = ORIENTED_EDGE ( 'NONE', *, *, #217, .T. ) ;
#756 = DIRECTION ( 'NONE',  ( 0.7071067811865474617, 0.000000000000000000, 0.7071067811865474617 ) ) ;
#757 = FACE_OUTER_BOUND ( 'NONE', #6, .T. ) ;
#758 = ORIENTED_EDGE ( 'NONE', *, *, #453, .F. ) ;
#759 = CARTESIAN_POINT ( 'NONE',  ( 1.809777374685120455, 0.000000000000000000, -2.516884155871667694 ) ) ;
#760 = ORIENTED_EDGE ( 'NONE', *, *, #51, .T. ) ;
#761 = CARTESIAN_POINT ( 'NONE',  ( -1.249999999999999778, 4.400000000000000355, -5.349999999999999645 ) ) ;
#762 = CARTESIAN_POINT ( 'NONE',  ( -2.355090726311185989, 0.7569518618145075761, 3.356963641814440624 ) ) ;
#763 = VERTEX_POINT ( 'NONE', #679 ) ;
#764 = CIRCLE ( 'NONE', #81, 4.099999999999999645 ) ;
#765 = LINE ( 'NONE', #930, #102 ) ;
#766 = VERTEX_POINT ( 'NONE', #78 ) ;
#767 = EDGE_CURVE ( 'NONE', #348, #417, #65, .T. ) ;
#768 = ORIENTED_EDGE ( 'NONE', *, *, #8, .T. ) ;
#769 = CARTESIAN_POINT ( 'NONE',  ( 0.000000000000000000, -2.155634918610404682, 5.657557860366868141 ) ) ;
#770 = CARTESIAN_POINT ( 'NONE',  ( -1.502579526469439042, 0.6106485994928652072, 2.712577748813076006 ) ) ;
#771 = CARTESIAN_POINT ( 'NONE',  ( 1.249999999999999778, -0.08367121060338933436, -5.349999999999999645 ) ) ;
#772 = VERTEX_POINT ( 'NONE', #415 ) ;
#773 = CARTESIAN_POINT ( 'NONE',  ( 0.000000000000000000, -2.155634918610404682, -4.557557860366868496 ) ) ;
#774 = DIRECTION ( 'NONE',  ( 0.000000000000000000, 0.000000000000000000, 1.000000000000000000 ) ) ;
#775 = ORIENTED_EDGE ( 'NONE', *, *, #554, .F. ) ;
#776 = DIRECTION ( 'NONE',  ( 0.000000000000000000, -1.000000000000000000, 0.000000000000000000 ) ) ;
#777 = EDGE_LOOP ( 'NONE', ( #108, #160, #257, #971, #90 ) ) ;
#778 = CARTESIAN_POINT ( 'NONE',  ( -2.230380533450839753, 0.6098887780265557224, 3.441084116615656718 ) ) ;
#779 = VERTEX_POINT ( 'NONE', #1098 ) ;
#780 = CYLINDRICAL_SURFACE ( 'NONE', #314, 0.5500000000000001554 ) ;
#781 = CIRCLE ( 'NONE', #1004, 4.099999999999999645 ) ;
#782 = LINE ( 'NONE', #894, #390 ) ;
#783 = DIRECTION ( 'NONE',  ( -0.7071067811865474617, -0.000000000000000000, 0.7071067811865476838 ) ) ;
#784 = EDGE_CURVE ( 'NONE', #608, #772, #979, .T. ) ;
#785 = VERTEX_POINT ( 'NONE', #1026 ) ;
#786 = AXIS2_PLACEMENT_3D ( 'NONE', #1090, #819, #398 ) ;
#787 = CARTESIAN_POINT ( 'NONE',  ( 0.000000000000000000, 4.400000000000000355, 0.000000000000000000 ) ) ;
#788 = LINE ( 'NONE', #472, #634 ) ;
#789 = ORIENTED_EDGE ( 'NONE', *, *, #799, .F. ) ;
#790 = PLANE ( 'NONE',  #943 ) ;
#791 = CYLINDRICAL_SURFACE ( 'NONE', #247, 0.4000000000000005773 ) ;
#792 = DIRECTION ( 'NONE',  ( 0.7071067811865474617, 0.000000000000000000, 0.7071067811865474617 ) ) ;
#793 = CARTESIAN_POINT ( 'NONE',  ( -1.249999999999999778, -0.08367121060338933436, 5.349999999999999645 ) ) ;
#794 = EDGE_CURVE ( 'NONE', #989, #1035, #765, .T. ) ;
#795 = AXIS2_PLACEMENT_3D ( 'NONE', #281, #539, #961 ) ;
#796 = SURFACE_STYLE_USAGE ( .BOTH. , #884 ) ;
#797 = DIRECTION ( 'NONE',  ( 0.000000000000000000, 1.000000000000000000, 0.000000000000000000 ) ) ;
#798 = ORIENTED_EDGE ( 'NONE', *, *, #57, .T. ) ;
#799 = EDGE_CURVE ( 'NONE', #951, #766, #844, .T. ) ;
#800 = LINE ( 'NONE', #289, #267 ) ;
#801 = DIRECTION ( 'NONE',  ( 0.000000000000000000, 0.000000000000000000, 1.000000000000000000 ) ) ;
#802 = CARTESIAN_POINT ( 'NONE',  ( -0.4967474588735719121, -0.1160652495940121265, 5.384843450167186241 ) ) ;
#803 = ORIENTED_EDGE ( 'NONE', *, *, #164, .F. ) ;
#804 =( LENGTH_UNIT ( ) NAMED_UNIT ( * ) SI_UNIT ( .MILLI., .METRE. ) );
#805 = CARTESIAN_POINT ( 'NONE',  ( 2.516884155871666362, 0.8000000000000003775, -1.809777374685120455 ) ) ;
#806 = CARTESIAN_POINT ( 'NONE',  ( 2.286973397463027612E-20, 0.3259259259259222885, -6.599999999999999645 ) ) ;
#807 = EDGE_CURVE ( 'NONE', #12, #262, #708, .T. ) ;
#808 = ORIENTED_EDGE ( 'NONE', *, *, #984, .F. ) ;
#809 = CARTESIAN_POINT ( 'NONE',  ( -3.441006854963343908, 0.1899052536529534096, 2.230499446147286235 ) ) ;
#810 = B_SPLINE_CURVE_WITH_KNOTS ( 'NONE', 3,
 ( #991, #719, #138, #723, #556, #37, #479, #636, #46, #304 ),
 .UNSPECIFIED., .F., .F.,
 ( 4, 2, 2, 2, 4 ),
 ( 6.179734112920814525E-19, 0.0003163949332121803902, 0.0006327898664243602382, 0.0009491847996365399779, 0.001265579732848719826 ),
 .UNSPECIFIED. ) ;
#811 = LINE ( 'NONE', #1080, #458 ) ;
#812 =( NAMED_UNIT ( * ) SI_UNIT ( $, .STERADIAN. ) SOLID_ANGLE_UNIT ( ) );
#813 = EDGE_CURVE ( 'NONE', #785, #763, #728, .T. ) ;
#814 = CARTESIAN_POINT ( 'NONE',  ( -0.1485365273835662359, -0.02312671838268431923, 5.657557860366766889 ) ) ;
#815 = VECTOR ( 'NONE', #353, 1000.000000000000000 ) ;
#816 = ORIENTED_EDGE ( 'NONE', *, *, #318, .T. ) ;
#817 = CYLINDRICAL_SURFACE ( 'NONE', #587, 3.100000000000000089 ) ;
#818 = CARTESIAN_POINT ( 'NONE',  ( 2.286973397463027612E-20, 0.3259259259259222885, -6.599999999999999645 ) ) ;
#819 = DIRECTION ( 'NONE',  ( -0.7071067811865474617, -0.000000000000000000, 0.7071067811865476838 ) ) ;
#820 = DIRECTION ( 'NONE',  ( 0.000000000000000000, 1.000000000000000000, 0.000000000000000000 ) ) ;
#821 = ORIENTED_EDGE ( 'NONE', *, *, #834, .F. ) ;
#822 = DIRECTION ( 'NONE',  ( 0.000000000000000000, -1.000000000000000000, -0.000000000000000000 ) ) ;
#823 = CYLINDRICAL_SURFACE ( 'NONE', #998, 0.5500000000000001554 ) ;
#824 = LINE ( 'NONE', #747, #211 ) ;
#825 = ORIENTED_EDGE ( 'NONE', *, *, #613, .F. ) ;
#826 = CARTESIAN_POINT ( 'NONE',  ( -3.296569052261084654, 0.8000000000000002665, 2.440073650321600951 ) ) ;
#827 = CARTESIAN_POINT ( 'NONE',  ( 2.712577748813076006, 0.1893514005071346706, -1.502579526469439930 ) ) ;
#828 = FACE_OUTER_BOUND ( 'NONE', #519, .T. ) ;
#829 = FACE_OUTER_BOUND ( 'NONE', #22, .T. ) ;
#830 = DIRECTION ( 'NONE',  ( 0.000000000000000000, 1.000000000000000000, 0.000000000000000000 ) ) ;
#831 = EDGE_LOOP ( 'NONE', ( #1052, #760, #379, #789, #133 ) ) ;
#832 = CARTESIAN_POINT ( 'NONE',  ( 3.796405077356794918E-16, 4.400000000000000355, 3.100000000000000089 ) ) ;
#833 = CIRCLE ( 'NONE', #904, 1.250000000000000222 ) ;
#834 = EDGE_CURVE ( 'NONE', #417, #1117, #335, .T. ) ;
#835 =( LENGTH_UNIT ( ) NAMED_UNIT ( * ) SI_UNIT ( .MILLI., .METRE. ) );
#836 = CARTESIAN_POINT ( 'NONE',  ( -1.722960991719970858, -7.436949276892756977E-16, 2.579309883840030349 ) ) ;
#837 = ORIENTED_EDGE ( 'NONE', *, *, #131, .T. ) ;
#838 = ORIENTED_EDGE ( 'NONE', *, *, #365, .F. ) ;
#839 = CARTESIAN_POINT ( 'NONE',  ( 1.249999999999998446, 8.076149824100303576, -3.904804732633886832 ) ) ;
#840 = EDGE_CURVE ( 'NONE', #296, #470, #157, .T. ) ;
#841 = CYLINDRICAL_SURFACE ( 'NONE', #446, 1.250000000000000222 ) ;
#842 = EDGE_LOOP ( 'NONE', ( #601, #609, #542, #500 ) ) ;
#843 = CARTESIAN_POINT ( 'NONE',  ( 0.000000000000000000, 0.4000000000000001887, 0.000000000000000000 ) ) ;
#844 = LINE ( 'NONE', #340, #565 ) ;
#845 = EDGE_CURVE ( 'NONE', #395, #21, #307, .T. ) ;
#846 = ORIENTED_EDGE ( 'NONE', *, *, #727, .F. ) ;
#847 = AXIS2_PLACEMENT_3D ( 'NONE', #959, #532, #868 ) ;
#848 = EDGE_LOOP ( 'NONE', ( #846, #798, #1109, #942 ) ) ;
#849 = COLOUR_RGB ( '',1.000000000000000000, 1.000000000000000000, 1.000000000000000000 ) ;
#850 = AXIS2_PLACEMENT_3D ( 'NONE', #404, #830, #1013 ) ;
#851 = CARTESIAN_POINT ( 'NONE',  ( 1.634788898813910984, 0.04213270036975851757, -2.635033077079322883 ) ) ;
#852 = VERTEX_POINT ( 'NONE', #1019 ) ;
#853 = CARTESIAN_POINT ( 'NONE',  ( -1.250000000000000000, 8.076149824100303576, -3.904804732633886388 ) ) ;
#854 = ORIENTED_EDGE ( 'NONE', *, *, #1077, .T. ) ;
#855 = SURFACE_STYLE_USAGE ( .BOTH. , #518 ) ;
#856 = ORIENTED_EDGE ( 'NONE', *, *, #807, .T. ) ;
#857 = CARTESIAN_POINT ( 'NONE',  ( 0.000000000000000000, 4.400000000000000355, -5.107557860366868319 ) ) ;
#858 = DIRECTION ( 'NONE',  ( 0.000000000000000000, 1.000000000000000000, 0.000000000000000000 ) ) ;
#859 = FACE_OUTER_BOUND ( 'NONE', #831, .T. ) ;
#860 = ORIENTED_EDGE ( 'NONE', *, *, #416, .F. ) ;
#861 = ORIENTED_EDGE ( 'NONE', *, *, #650, .T. ) ;
#862 = EDGE_CURVE ( 'NONE', #167, #608, #85, .T. ) ;
#863 = CARTESIAN_POINT ( 'NONE',  ( 6.735557395310441284E-17, -0.02312671838265047825, -5.657557860366868141 ) ) ;
#864 = CARTESIAN_POINT ( 'NONE',  ( 1.809777374685120455, 0.000000000000000000, -2.516884155871667694 ) ) ;
#865 = AXIS2_PLACEMENT_3D ( 'NONE', #18, #27, #362 ) ;
#866 = ADVANCED_FACE ( 'NONE', ( #915, #149, #491, #829 ), #412, .T. ) ;
#867 = DIRECTION ( 'NONE',  ( 0.7071067811865474617, 0.000000000000000000, 0.7071067811865474617 ) ) ;
#868 = DIRECTION ( 'NONE',  ( 0.000000000000000000, 0.000000000000000000, -1.000000000000000000 ) ) ;
#869 = VERTEX_POINT ( 'NONE', #40 ) ;
#870 = AXIS2_PLACEMENT_3D ( 'NONE', #1085, #310, #652 ) ;
#871 = DIRECTION ( 'NONE',  ( 0.000000000000000000, 0.000000000000000000, 1.000000000000000000 ) ) ;
#872 = CARTESIAN_POINT ( 'NONE',  ( -1.249999999999999778, -0.08367121060338876537, -5.349999999999999645 ) ) ;
#873 = DIRECTION ( 'NONE',  ( 0.7071067811865474617, 0.000000000000000000, 0.7071067811865474617 ) ) ;
#874 = CARTESIAN_POINT ( 'NONE',  ( 0.3355317112294498028, 0.3156599828704607091, 6.565609922945093047 ) ) ;
#875 = FACE_OUTER_BOUND ( 'NONE', #244, .T. ) ;
#876 = CARTESIAN_POINT ( 'NONE',  ( 3.464823227814140871, 0.2949330561920267546, -2.192031021678321867 ) ) ;
#877 = B_SPLINE_CURVE_WITH_KNOTS ( 'NONE', 3,
 ( #1101, #990, #312, #809, #648, #751, #559, #655, #826, #1009 ),
 .UNSPECIFIED., .F., .F.,
 ( 4, 2, 2, 2, 4 ),
 ( 1.525555016278265831E-21, 0.0003147192678884188927, 0.0006294385357768377855, 0.0009441578036652566782, 0.001258877071553675788 ),
 .UNSPECIFIED. ) ;
#878 = CYLINDRICAL_SURFACE ( 'NONE', #786, 0.4000000000000005773 ) ;
#879 = CARTESIAN_POINT ( 'NONE',  ( -0.4943027615547934683, -0.3217087986086838991, -4.826996764914174953 ) ) ;
#880 = VERTEX_POINT ( 'NONE', #616 ) ;
#881 = EDGE_CURVE ( 'NONE', #421, #492, #1037, .T. ) ;
#882 = DIRECTION ( 'NONE',  ( 0.000000000000000000, -0.000000000000000000, 1.000000000000000000 ) ) ;
#883 = CIRCLE ( 'NONE', #1042, 3.100000000000000089 ) ;
#884 = SURFACE_SIDE_STYLE ('',( #456 ) ) ;
#885 = MECHANICAL_DESIGN_GEOMETRIC_PRESENTATION_REPRESENTATION (  '', ( #31 ), #315 ) ;
#886 = CARTESIAN_POINT ( 'NONE',  ( 0.000000000000000000, 4.400000000000000355, 0.000000000000000000 ) ) ;
#887 = ORIENTED_EDGE ( 'NONE', *, *, #376, .F. ) ;
#888 = ADVANCED_FACE ( 'NONE', ( #23, #128 ), #293, .T. ) ;
#889 = DIRECTION ( 'NONE',  ( 0.000000000000000000, 0.000000000000000000, -1.000000000000000000 ) ) ;
#890 = ADVANCED_BREP_SHAPE_REPRESENTATION ( 'Å¦¿Ûµç³Ø²Ö', ( #202, #945 ), #478 ) ;
#891 = DIRECTION ( 'NONE',  ( 0.000000000000000000, 0.000000000000000000, 1.000000000000000000 ) ) ;
#892 = VERTEX_POINT ( 'NONE', #805 ) ;
#893 = FACE_OUTER_BOUND ( 'NONE', #67, .T. ) ;
#894 = CARTESIAN_POINT ( 'NONE',  ( -1.249999999999999778, 8.076149824100303576, 5.349999999999999645 ) ) ;
#895 = EDGE_CURVE ( 'NONE', #12, #395, #788, .T. ) ;
#896 = CARTESIAN_POINT ( 'NONE',  ( 1.249999999999999778, -0.4291994433474435322, 4.386985089763100198 ) ) ;
#897 = DIRECTION ( 'NONE',  ( 0.000000000000000000, 0.000000000000000000, -1.000000000000000000 ) ) ;
#898 = ORIENTED_EDGE ( 'NONE', *, *, #784, .T. ) ;
#899 = B_SPLINE_CURVE_WITH_KNOTS ( 'NONE', 3,
 ( #1069, #538, #551, #879, #38, #1057, #452, #115, #545, #291 ),
 .UNSPECIFIED., .F., .F.,
 ( 4, 2, 2, 2, 4 ),
 ( 0.001778023242728331245, 0.002222197131217443136, 0.002666371019706555243, 0.003110544908195666917, 0.003554718796684779025 ),
 .UNSPECIFIED. ) ;
#900 = LINE ( 'NONE', #1003, #947 ) ;
#901 = CARTESIAN_POINT ( 'NONE',  ( 2.635361342959055442, 0.04279380157183050593, -1.634225770436259495 ) ) ;
#902 = CARTESIAN_POINT ( 'NONE',  ( 0.000000000000000000, 4.400000000000000355, 5.657557860366868141 ) ) ;
#903 = CARTESIAN_POINT ( 'NONE',  ( 1.249999999999999778, 8.076149824100303576, -5.349999999999999645 ) ) ;
#904 = AXIS2_PLACEMENT_3D ( 'NONE', #729, #487, #331 ) ;
#905 = CARTESIAN_POINT ( 'NONE',  ( 0.000000000000000000, 8.076149824100303576, -5.349999999999999645 ) ) ;
#906 = VECTOR ( 'NONE', #277, 1000.000000000000000 ) ;
#907 = ORIENTED_EDGE ( 'NONE', *, *, #767, .F. ) ;
#908 = FACE_OUTER_BOUND ( 'NONE', #975, .T. ) ;
#909 = CARTESIAN_POINT ( 'NONE',  ( 0.2951029494696066902, -0.4034977993830662912, 4.622029030389678717 ) ) ;
#910 = CARTESIAN_POINT ( 'NONE',  ( 2.523945523394359292, 0.000000000000000000, -3.231052304580906753 ) ) ;
#911 = ORIENTED_EDGE ( 'NONE', *, *, #767, .T. ) ;
#912 = CARTESIAN_POINT ( 'NONE',  ( -2.516884155871664142, 0.000000000000000000, 1.809777374685118234 ) ) ;
#913 = DIRECTION ( 'NONE',  ( -1.000000000000000000, 0.000000000000000000, -1.500423087409463390E-16 ) ) ;
#914 = FACE_OUTER_BOUND ( 'NONE', #506, .T. ) ;
#915 = FACE_BOUND ( 'NONE', #647, .T. ) ;
#916 = CARTESIAN_POINT ( 'NONE',  ( 3.464823227814114670, 0.5049427728306840057, -2.192031021678364056 ) ) ;
#917 = ORIENTED_EDGE ( 'NONE', *, *, #845, .F. ) ;
#918 = DIRECTION ( 'NONE',  ( 0.000000000000000000, 0.000000000000000000, -1.000000000000000000 ) ) ;
#919 = ORIENTED_EDGE ( 'NONE', *, *, #641, .T. ) ;
#920 = EDGE_CURVE ( 'NONE', #951, #880, #350, .T. ) ;
#921 = B_SPLINE_CURVE_WITH_KNOTS ( 'NONE', 3,
 ( #105, #540, #449, #370, #876, #710 ),
 .UNSPECIFIED., .F., .F.,
 ( 4, 2, 4 ),
 ( 4.379036780926995901E-19, 0.0003149053497504812702, 0.0006298106995009621067 ),
 .UNSPECIFIED. ) ;
#922 = CARTESIAN_POINT ( 'NONE',  ( 4.996446609406726580, 0.000000000000000000, -5.703553390593274486 ) ) ;
#923 = CARTESIAN_POINT ( 'NONE',  ( 0.000000000000000000, 4.400000000000000355, 5.107557860366868319 ) ) ;
#924 = CARTESIAN_POINT ( 'NONE',  ( 3.296530314631556990, 0.8000000000000007105, -2.440123240657841031 ) ) ;
#925 = ORIENTED_EDGE ( 'NONE', *, *, #633, .F. ) ;
#926 = VECTOR ( 'NONE', #468, 1000.000000000000000 ) ;
#927 = VECTOR ( 'NONE', #574, 1000.000000000000000 ) ;
#928 = PLANE ( 'NONE',  #711 ) ;
#929 = ORIENTED_EDGE ( 'NONE', *, *, #794, .F. ) ;
#930 = CARTESIAN_POINT ( 'NONE',  ( 6.735557395310441284E-17, -2.155634918610404682, -5.657557860366868141 ) ) ;
#931 = ORIENTED_EDGE ( 'NONE', *, *, #714, .F. ) ;
#932 = ORIENTED_EDGE ( 'NONE', *, *, #627, .F. ) ;
#933 = ADVANCED_FACE ( 'NONE', ( #194 ), #212, .F. ) ;
#934 = CARTESIAN_POINT ( 'NONE',  ( 2.523945523394359292, 0.000000000000000000, -3.231052304580906753 ) ) ;
#935 = ORIENTED_EDGE ( 'NONE', *, *, #26, .F. ) ;
#936 = SHAPE_DEFINITION_REPRESENTATION ( #968, #890 ) ;
#937 = ORIENTED_EDGE ( 'NONE', *, *, #1054, .T. ) ;
#938 = EDGE_LOOP ( 'NONE', ( #1001, #612 ) ) ;
#939 = DIRECTION ( 'NONE',  ( 0.000000000000000000, -1.000000000000000000, 0.000000000000000000 ) ) ;
#940 = ORIENTED_EDGE ( 'NONE', *, *, #251, .T. ) ;
#941 = CARTESIAN_POINT ( 'NONE',  ( -1.249999999999999778, -0.08367121060338933436, 5.349999999999999645 ) ) ;
#942 = ORIENTED_EDGE ( 'NONE', *, *, #1038, .F. ) ;
#943 = AXIS2_PLACEMENT_3D ( 'NONE', #112, #355, #189 ) ;
#944 = ORIENTED_EDGE ( 'NONE', *, *, #727, .T. ) ;
#945 = AXIS2_PLACEMENT_3D ( 'NONE', #288, #543, #1029 ) ;
#946 = CARTESIAN_POINT ( 'NONE',  ( -3.231052304580904977, 0.8000000000000003775, 2.523945523394357959 ) ) ;
#947 = VECTOR ( 'NONE', #61, 1000.000000000000000 ) ;
#948 = CARTESIAN_POINT ( 'NONE',  ( 0.2959857538637812313, -0.04453168954275032315, -5.592962548823773972 ) ) ;
#949 = LINE ( 'NONE', #11, #692 ) ;
#950 = CARTESIAN_POINT ( 'NONE',  ( 0.1674135440639977768, 0.3259259259259221775, -6.599999999999997868 ) ) ;
#951 = VERTEX_POINT ( 'NONE', #3 ) ;
#952 = LINE ( 'NONE', #773, #977 ) ;
#953 = CARTESIAN_POINT ( 'NONE',  ( 1.249999999999999778, 4.400000000000000355, 5.349999999999999645 ) ) ;
#954 = CARTESIAN_POINT ( 'NONE',  ( 1.219949450978346173, 0.02805679089202964965, -5.666592277897950503 ) ) ;
#955 =( LENGTH_UNIT ( ) NAMED_UNIT ( * ) SI_UNIT ( .MILLI., .METRE. ) );
#956 = ADVANCED_FACE ( 'NONE', ( #1066 ), #495, .T. ) ;
#957 = DIRECTION ( 'NONE',  ( 0.000000000000000000, 0.000000000000000000, 1.000000000000000000 ) ) ;
#958 = CARTESIAN_POINT ( 'NONE',  ( -1.249999999999999778, 4.400000000000000355, -5.349999999999999645 ) ) ;
#959 = CARTESIAN_POINT ( 'NONE',  ( 0.000000000000000000, 0.000000000000000000, 0.000000000000000000 ) ) ;
#960 = DIRECTION ( 'NONE',  ( 0.000000000000000000, 1.000000000000000000, 0.000000000000000000 ) ) ;
#961 = DIRECTION ( 'NONE',  ( 0.000000000000000000, 0.000000000000000000, 1.000000000000000000 ) ) ;
#962 = AXIS2_PLACEMENT_3D ( 'NONE', #599, #170, #507 ) ;
#963 = ADVANCED_FACE ( 'NONE', ( #104 ), #555, .F. ) ;
#964 = CARTESIAN_POINT ( 'NONE',  ( 4.996446609406726580, 0.4000000000000000777, -5.703553390593274486 ) ) ;
#965 = B_SPLINE_CURVE_WITH_KNOTS ( 'NONE', 3,
 ( #560, #489, #901, #827, #1095, #664 ),
 .UNSPECIFIED., .F., .F.,
 ( 4, 2, 4 ),
 ( 2.250456846435640757E-19, 0.0003166233743007919473, 0.0006332467486015836778 ),
 .UNSPECIFIED. ) ;
#966 = CARTESIAN_POINT ( 'NONE',  ( -0.9533574296117690583, 0.1909554378494187077, 6.162612003416315432 ) ) ;
#967 = DIRECTION ( 'NONE',  ( 0.000000000000000000, 0.000000000000000000, 1.000000000000000000 ) ) ;
#968 = PRODUCT_DEFINITION_SHAPE ( 'NONE', 'NONE',  #740 ) ;
#969 = EDGE_CURVE ( 'NONE', #772, #608, #1092, .T. ) ;
#970 = DIRECTION ( 'NONE',  ( 0.000000000000000000, 0.000000000000000000, 1.000000000000000000 ) ) ;
#971 = ORIENTED_EDGE ( 'NONE', *, *, #548, .T. ) ;
#972 = DIRECTION ( 'NONE',  ( -0.7071067811865474617, -0.000000000000000000, 0.7071067811865476838 ) ) ;
#973 = ADVANCED_FACE ( 'NONE', ( #183 ), #124, .T. ) ;
#974 = CARTESIAN_POINT ( 'NONE',  ( -0.1503737878613907730, -0.4305341257900647256, 4.557557860366868496 ) ) ;
#975 = EDGE_LOOP ( 'NONE', ( #639, #50, #188, #907, #25, #73, #179, #226, #1076 ) ) ;
#976 = CARTESIAN_POINT ( 'NONE',  ( 0.000000000000000000, 4.400000000000000355, 0.000000000000000000 ) ) ;
#977 = VECTOR ( 'NONE', #525, 1000.000000000000000 ) ;
#978 = CARTESIAN_POINT ( 'NONE',  ( 3.796405077356794918E-16, 4.400000000000000355, 3.100000000000000089 ) ) ;
#979 = CIRCLE ( 'NONE', #588, 0.5500000000000001554 ) ;
#980 = STYLED_ITEM ( 'NONE', ( #32 ), #202 ) ;
#981 = DIRECTION ( 'NONE',  ( 0.000000000000000000, 1.000000000000000000, 0.000000000000000000 ) ) ;
#982 = EDGE_LOOP ( 'NONE', ( #919, #598, #738, #1039 ) ) ;
#983 = DIRECTION ( 'NONE',  ( 0.000000000000000000, 0.000000000000000000, 1.000000000000000000 ) ) ;
#984 = EDGE_CURVE ( 'NONE', #1100, #338, #197, .T. ) ;
#985 = DIRECTION ( 'NONE',  ( 0.000000000000000000, 0.000000000000000000, 1.000000000000000000 ) ) ;
#986 = DIRECTION ( 'NONE',  ( -0.7071067811865474617, -0.000000000000000000, 0.7071067811865476838 ) ) ;
#987 = CARTESIAN_POINT ( 'NONE',  ( 5.703553390593272709, 0.3999999999999999667, -4.996446609406728356 ) ) ;
#988 = CARTESIAN_POINT ( 'NONE',  ( 3.231052304580904089, 0.000000000000000000, -2.523945523394358403 ) ) ;
#989 = VERTEX_POINT ( 'NONE', #863 ) ;
#990 = CARTESIAN_POINT ( 'NONE',  ( -3.296569512211682706, -5.717472393966527289E-17, 2.440073061511568220 ) ) ;
#991 = CARTESIAN_POINT ( 'NONE',  ( -2.516884155871664142, 0.000000000000000000, 1.809777374685118234 ) ) ;
#992 = DIRECTION ( 'NONE',  ( 0.000000000000000000, 0.3473143558235989303, 0.9377487607237017242 ) ) ;
#993 = ORIENTED_EDGE ( 'NONE', *, *, #920, .F. ) ;
#994 = DIRECTION ( 'NONE',  ( 0.000000000000000000, 1.000000000000000000, 0.000000000000000000 ) ) ;
#995 = DIRECTION ( 'NONE',  ( -1.500423087409463390E-16, 0.000000000000000000, 1.000000000000000000 ) ) ;
#996 = LINE ( 'NONE', #334, #117 ) ;
#997 = EDGE_CURVE ( 'NONE', #344, #486, #782, .T. ) ;
#998 = AXIS2_PLACEMENT_3D ( 'NONE', #316, #58, #801 ) ;
#999 = DIRECTION ( 'NONE',  ( -0.7071067811865474617, -0.000000000000000000, 0.7071067811865476838 ) ) ;
#1000 = AXIS2_PLACEMENT_3D ( 'NONE', #466, #441, #889 ) ;
#1001 = ORIENTED_EDGE ( 'NONE', *, *, #82, .F. ) ;
#1002 = COLOUR_RGB ( '',1.000000000000000000, 1.000000000000000000, 1.000000000000000000 ) ;
#1003 = CARTESIAN_POINT ( 'NONE',  ( 0.000000000000000000, 4.400000000000000355, -3.100000000000000089 ) ) ;
#1004 = AXIS2_PLACEMENT_3D ( 'NONE', #1111, #76, #423 ) ;
#1005 = CARTESIAN_POINT ( 'NONE',  ( 1.249999999999998446, -0.5999999999999998668, 3.904804732633886832 ) ) ;
#1006 = CARTESIAN_POINT ( 'NONE',  ( 2.523945523394356627, 0.8000000000000003775, -3.231052304580905421 ) ) ;
#1007 = EDGE_CURVE ( 'NONE', #989, #522, #19, .T. ) ;
#1008 = EDGE_LOOP ( 'NONE', ( #145, #775, #586, #632 ) ) ;
#1009 = CARTESIAN_POINT ( 'NONE',  ( -3.231052304580904977, 0.8000000000000003775, 2.523945523394357959 ) ) ;
#1010 = DIRECTION ( 'NONE',  ( 0.000000000000000000, 0.000000000000000000, 1.000000000000000000 ) ) ;
#1011 = CARTESIAN_POINT ( 'NONE',  ( 1.249999999999999778, 4.400000000000000355, -5.349999999999999645 ) ) ;
#1012 = CARTESIAN_POINT ( 'NONE',  ( 2.440073650321600063, -4.144814555231043321E-16, -3.296569052261083765 ) ) ;
#1013 = DIRECTION ( 'NONE',  ( 0.000000000000000000, 0.000000000000000000, 1.000000000000000000 ) ) ;
#1014 = VERTEX_POINT ( 'NONE', #1050 ) ;
#1015 = CARTESIAN_POINT ( 'NONE',  ( 1.249999999999998446, -0.5999999999999998668, -3.904804732633886832 ) ) ;
#1016 = FACE_OUTER_BOUND ( 'NONE', #15, .T. ) ;
#1017 = VERTEX_POINT ( 'NONE', #572 ) ;
#1018 = PLANE ( 'NONE',  #161 ) ;
#1019 = CARTESIAN_POINT ( 'NONE',  ( -2.516884155871667250, 0.8000000000000003775, 1.809777374685119344 ) ) ;
#1020 = ORIENTED_EDGE ( 'NONE', *, *, #748, .F. ) ;
#1021 = AXIS2_PLACEMENT_3D ( 'NONE', #308, #743, #640 ) ;
#1022 = AXIS2_PLACEMENT_3D ( 'NONE', #630, #272, #369 ) ;
#1023 = FILL_AREA_STYLE_COLOUR ( '', #849 ) ;
#1024 = ADVANCED_FACE ( 'NONE', ( #1016 ), #1102, .F. ) ;
#1025 = AXIS2_PLACEMENT_3D ( 'NONE', #964, #199, #873 ) ;
#1026 = CARTESIAN_POINT ( 'NONE',  ( -1.250000000000000000, -0.5999999999999998668, 3.904804732633886388 ) ) ;
#1027 = ORIENTED_EDGE ( 'NONE', *, *, #881, .T. ) ;
#1028 = LINE ( 'NONE', #172, #266 ) ;
#1029 = DIRECTION ( 'NONE',  ( 1.000000000000000000, 0.000000000000000000, 0.000000000000000000 ) ) ;
#1030 = CARTESIAN_POINT ( 'NONE',  ( -2.440023470827183960, 0.8000000000000000444, 3.296608250113163052 ) ) ;
#1031 = ORIENTED_EDGE ( 'NONE', *, *, #258, .T. ) ;
#1032 = CARTESIAN_POINT ( 'NONE',  ( 2.229628086555739852, 0.1910400223027735322, -3.441589804509950667 ) ) ;
#1033 = CARTESIAN_POINT ( 'NONE',  ( 2.712886090923583460, 0.6101151458485624124, -1.502058557369184033 ) ) ;
#1034 = ORIENTED_EDGE ( 'NONE', *, *, #376, .T. ) ;
#1035 = VERTEX_POINT ( 'NONE', #222 ) ;
#1036 = CARTESIAN_POINT ( 'NONE',  ( -1.249999999999999778, -0.2569682192707083979, -4.868674176892941574 ) ) ;
#1037 = LINE ( 'NONE', #958, #906 ) ;
#1038 = EDGE_CURVE ( 'NONE', #663, #1014, #764, .T. ) ;
#1039 = ORIENTED_EDGE ( 'NONE', *, *, #748, .T. ) ;
#1040 = DIRECTION ( 'NONE',  ( 0.000000000000000000, -1.000000000000000000, 0.000000000000000000 ) ) ;
#1041 = CARTESIAN_POINT ( 'NONE',  ( 0.5660088140672994150, 0.2858717105244402146, -6.467612006622905696 ) ) ;
#1042 = AXIS2_PLACEMENT_3D ( 'NONE', #662, #68, #983 ) ;
#1043 = CARTESIAN_POINT ( 'NONE',  ( 0.000000000000000000, 4.400000000000000355, -3.100000000000000089 ) ) ;
#1044 = ORIENTED_EDGE ( 'NONE', *, *, #620, .T. ) ;
#1045 = CARTESIAN_POINT ( 'NONE',  ( 0.4947360837649799614, -0.3215374681801105861, -4.827425354514485178 ) ) ;
#1046 = ADVANCED_FACE ( 'NONE', ( #584 ), #928, .F. ) ;
#1047 = ORIENTED_EDGE ( 'NONE', *, *, #845, .T. ) ;
#1048 = CARTESIAN_POINT ( 'NONE',  ( -1.249999999999999778, 4.400000000000000355, 5.349999999999999645 ) ) ;
#1049 = ORIENTED_EDGE ( 'NONE', *, *, #675, .F. ) ;
#1050 = CARTESIAN_POINT ( 'NONE',  ( -2.523945523394357515, 0.8000000000000003775, 3.231052304580904977 ) ) ;
#1051 = CARTESIAN_POINT ( 'NONE',  ( -2.192031021665569401, 0.4000000000005500822, 3.464823227822134477 ) ) ;
#1052 = ORIENTED_EDGE ( 'NONE', *, *, #997, .T. ) ;
#1053 = ORIENTED_EDGE ( 'NONE', *, *, #799, .T. ) ;
#1054 = EDGE_CURVE ( 'NONE', #167, #475, #283, .T. ) ;
#1055 = DIRECTION ( 'NONE',  ( -0.000000000000000000, 1.000000000000000000, -0.000000000000000000 ) ) ;
#1056 = CYLINDRICAL_SURFACE ( 'NONE', #1025, 0.4000000000000005773 ) ;
#1057 = CARTESIAN_POINT ( 'NONE',  ( -0.5505428349129605214, -0.1650958933616271940, -5.245448560531396076 ) ) ;
#1058 = EDGE_CURVE ( 'NONE', #413, #1017, #965, .T. ) ;
#1059 = CARTESIAN_POINT ( 'NONE',  ( 0.000000000000000000, -2.155634918610404682, -5.107557860366868319 ) ) ;
#1060 = VECTOR ( 'NONE', #580, 1000.000000000000000 ) ;
#1061 = CIRCLE ( 'NONE', #461, 3.100000000000000089 ) ;
#1062 =( NAMED_UNIT ( * ) PLANE_ANGLE_UNIT ( ) SI_UNIT ( $, .RADIAN. ) );
#1063 = CARTESIAN_POINT ( 'NONE',  ( -2.355802454588244998, 0.04223473197565979359, 3.356482400783698861 ) ) ;
#1064 = CARTESIAN_POINT ( 'NONE',  ( 6.735557395310441284E-17, -0.4305341257900646701, 4.557557860366868496 ) ) ;
#1065 = VERTEX_POINT ( 'NONE', #240 ) ;
#1066 = FACE_OUTER_BOUND ( 'NONE', #292, .T. ) ;
#1067 = CARTESIAN_POINT ( 'NONE',  ( -1.250000000000149214, 0.03123139320745424788, -5.668592422790476704 ) ) ;
#1068 = EDGE_CURVE ( 'NONE', #75, #413, #578, .T. ) ;
#1069 = CARTESIAN_POINT ( 'NONE',  ( 7.039660860012800385E-14, -0.4305341257903532171, -4.557557860366174829 ) ) ;
#1070 = ORIENTED_EDGE ( 'NONE', *, *, #675, .T. ) ;
#1071 = CARTESIAN_POINT ( 'NONE',  ( 0.000000000000000000, 4.400000000000000355, 5.107557860366868319 ) ) ;
#1072 = AXIS2_PLACEMENT_3D ( 'NONE', #305, #411, #144 ) ;
#1073 = AXIS2_PLACEMENT_3D ( 'NONE', #389, #313, #484 ) ;
#1074 = CIRCLE ( 'NONE', #232, 3.100000000000000089 ) ;
#1075 = CARTESIAN_POINT ( 'NONE',  ( 0.000000000000000000, 0.8000000000000003775, 0.000000000000000000 ) ) ;
#1076 = ORIENTED_EDGE ( 'NONE', *, *, #343, .F. ) ;
#1077 = EDGE_CURVE ( 'NONE', #1065, #344, #94, .T. ) ;
#1078 = CARTESIAN_POINT ( 'NONE',  ( 0.000000000000000000, 4.400000000000000355, 0.000000000000000000 ) ) ;
#1079 = CARTESIAN_POINT ( 'NONE',  ( 0.4961503767371659990, -0.1158327725835968935, 5.385517965785172834 ) ) ;
#1080 = CARTESIAN_POINT ( 'NONE',  ( 5.703553390593273598, 0.8000000000000002665, -4.996446609406728356 ) ) ;
#1081 = DIRECTION ( 'NONE',  ( 1.500423087409463390E-16, -0.000000000000000000, 1.000000000000000000 ) ) ;
#1082 = VERTEX_POINT ( 'NONE', #168 ) ;
#1083 = DIRECTION ( 'NONE',  ( 0.000000000000000000, 0.000000000000000000, 1.000000000000000000 ) ) ;
#1084 = CARTESIAN_POINT ( 'NONE',  ( -0.3355317112294498028, 0.3156599828704607091, -6.565609922945093047 ) ) ;
#1085 = CARTESIAN_POINT ( 'NONE',  ( 0.000000000000000000, 0.000000000000000000, 0.000000000000000000 ) ) ;
#1086 = ORIENTED_EDGE ( 'NONE', *, *, #223, .T. ) ;
#1087 = CARTESIAN_POINT ( 'NONE',  ( -1.809777374685119566, 0.8000000000000003775, 2.516884155871667250 ) ) ;
#1088 = B_SPLINE_CURVE_WITH_KNOTS ( 'NONE', 3,
 ( #872, #372, #1036, #271, #439, #30, #621 ),
 .UNSPECIFIED., .F., .F.,
 ( 4, 3, 4 ),
 ( -0.0007673574339846983084, 0.000000000000000000, 0.0007673052976499976667 ),
 .UNSPECIFIED. ) ;
#1089 = ADVANCED_FACE ( 'NONE', ( #757 ), #339, .T. ) ;
#1090 = CARTESIAN_POINT ( 'NONE',  ( 5.703553390593272709, 0.3999999999999999667, -4.996446609406728356 ) ) ;
#1091 = CIRCLE ( 'NONE', #865, 3.100000000000000089 ) ;
#1092 = CIRCLE ( 'NONE', #512, 0.5500000000000001554 ) ;
#1093 = ORIENTED_EDGE ( 'NONE', *, *, #1077, .F. ) ;
#1094 = CARTESIAN_POINT ( 'NONE',  ( 0.000000000000000000, -0.5999999999999998668, 0.000000000000000000 ) ) ;
#1095 = CARTESIAN_POINT ( 'NONE',  ( 2.734013799408195222, 0.2943874271024440881, -1.461221593272411079 ) ) ;
#1096 = PLANE ( 'NONE',  #1021 ) ;
#1097 = UNCERTAINTY_MEASURE_WITH_UNIT (LENGTH_MEASURE( 1.000000000000000082E-05 ), #955, 'distance_accuracy_value', 'NONE');
#1098 = CARTESIAN_POINT ( 'NONE',  ( -1.809777374685119566, 0.8000000000000003775, 2.516884155871667250 ) ) ;
#1099 = CARTESIAN_POINT ( 'NONE',  ( 5.986396103067892938, 0.3999999999999999667, -4.713603896932109016 ) ) ;
#1100 = VERTEX_POINT ( 'NONE', #1043 ) ;
#1101 = CARTESIAN_POINT ( 'NONE',  ( -3.231052304580904089, 0.000000000000000000, 2.523945523394358403 ) ) ;
#1102 = CYLINDRICAL_SURFACE ( 'NONE', #1073, 0.5500000000000001554 ) ;
#1103 = ORIENTED_EDGE ( 'NONE', *, *, #41, .T. ) ;
#1104 = CARTESIAN_POINT ( 'NONE',  ( -1.461221593272409747, 0.3999999999999999667, 2.734013799408195666 ) ) ;
#1105 = ORIENTED_EDGE ( 'NONE', *, *, #453, .T. ) ;
#1106 = EDGE_CURVE ( 'NONE', #1014, #535, #618, .T. ) ;
#1107 = ORIENTED_EDGE ( 'NONE', *, *, #568, .T. ) ;
#1108 = CARTESIAN_POINT ( 'NONE',  ( 1.502733758285538457, 0.6108993567295790683, -2.712491994235325610 ) ) ;
#1109 = ORIENTED_EDGE ( 'NONE', *, *, #613, .T. ) ;
#1110 = VECTOR ( 'NONE', #155, 1000.000000000000000 ) ;
#1111 = CARTESIAN_POINT ( 'NONE',  ( 0.000000000000000000, -0.5999999999999998668, 0.000000000000000000 ) ) ;
#1112 = AXIS2_PLACEMENT_3D ( 'NONE', #717, #531, #867 ) ;
#1113 = PRODUCT_CONTEXT ( 'NONE', #129, 'mechanical' ) ;
#1114 = CIRCLE ( 'NONE', #746, 4.099999999999999645 ) ;
#1115 = ORIENTED_EDGE ( 'NONE', *, *, #290, .T. ) ;
#1116 = DIRECTION ( 'NONE',  ( 0.000000000000000000, 1.000000000000000000, 0.000000000000000000 ) ) ;
#1117 = VERTEX_POINT ( 'NONE', #14 ) ;
#1118 = CARTESIAN_POINT ( 'NONE',  ( 3.464823227822134033, 0.3999999999994498512, -2.192031021665571622 ) ) ;
#1119 = VERTEX_POINT ( 'NONE', #698 ) ;
ENDSEC;
END-ISO-10303-21;
